<svg xmlns="http://www.w3.org/2000/svg" viewBox="0 0 790 240" role="img" aria-label="Concept 1 lockup — First Light mark with wordmark">
<path d="M94 106 A26 26 0 0 1 146 106 Z" fill="#ff8200"/><line x1="152.9" y1="87.0" x2="163.3" y2="81.0" stroke="#ff8200" stroke-width="8" stroke-linecap="round"/><line x1="136.1" y1="71.6" x2="141.1" y2="60.7" stroke="#ff8200" stroke-width="8" stroke-linecap="round"/><line x1="120.0" y1="68.0" x2="120.0" y2="56.0" stroke="#ff8200" stroke-width="8" stroke-linecap="round"/><line x1="103.9" y1="71.6" x2="98.9" y2="60.7" stroke="#ff8200" stroke-width="8" stroke-linecap="round"/><line x1="87.1" y1="87.0" x2="76.7" y2="81.0" stroke="#ff8200" stroke-width="8" stroke-linecap="round"/><path d="M62 106 L62 124 A58 58 0 0 0 178 124 L178 106" fill="none" stroke="#241a10" stroke-width="11" stroke-linecap="round" stroke-linejoin="round"/><line x1="50" y1="106" x2="190" y2="106" stroke="#241a10" stroke-width="11" stroke-linecap="round"/><path d="M182 122 C206 122 206 152 178 154" fill="none" stroke="#241a10" stroke-width="10" stroke-linecap="round"/><line x1="86" y1="196" x2="154" y2="196" stroke="#241a10" stroke-width="11" stroke-linecap="round"/><path transform="translate(264.00,118.00)" fill="#241a10" d="M15.708 -16.072 29.848 -29.344Q31.36 -30.772000000000002 31.864 -31.85Q32.368 -32.928 32.046 -33.698Q31.724 -34.468 30.716 -34.916000000000004L29.904 -35.28Q29.176000000000002 -35.616 28.826 -36.092Q28.476 -36.568 28.476 -37.296Q28.476 -38.192 29.064 -38.696Q29.652 -39.2 30.884 -39.2H43.232Q44.464 -39.2 45.052 -38.696Q45.64 -38.192 45.64 -37.296Q45.64 -36.54 45.206 -36.120000000000005Q44.772 -35.7 43.54 -35.168Q43.148 -35.0 42.714 -34.734Q42.28 -34.468 41.524 -33.866Q40.768 -33.264 39.452 -32.102000000000004Q38.136 -30.94 35.952 -28.98L17.444 -12.32ZM21.224 -19.544 31.220000000000002 -27.832 44.1 -6.328Q44.772 -5.208 45.29 -4.774Q45.808 -4.34 46.34 -4.144Q47.096000000000004 -3.7520000000000002 47.418000000000006 -3.178Q47.74 -2.604 47.74 -1.9040000000000001Q47.74 -1.036 47.152 -0.518Q46.564 0.0 45.332 0.0H29.512Q28.28 0.0 27.692 -0.518Q27.104 -1.036 27.104 -1.932Q27.104 -2.66 27.439999999999998 -3.164Q27.776 -3.668 28.308 -3.864L29.036 -4.144Q29.54 -4.34 29.526 -4.872Q29.512 -5.404 28.84 -6.5520000000000005ZM19.432000000000002 -6.216Q19.432000000000002 -5.516 19.698 -5.096Q19.964000000000002 -4.676 20.580000000000002 -4.368L21.364 -3.976Q22.232 -3.556 22.526 -3.0940000000000003Q22.82 -2.632 22.82 -1.9040000000000001Q22.82 -1.036 22.232 -0.518Q21.644000000000002 0.0 20.412 0.0H4.9Q3.668 0.0 3.08 -0.518Q2.492 -1.036 2.492 -1.9040000000000001Q2.492 -3.416 3.948 -3.976L5.0120000000000005 -4.368Q5.74 -4.648 6.09 -5.082Q6.44 -5.516 6.44 -6.216V-32.984Q6.44 -33.684 6.09 -34.117999999999995Q5.74 -34.552 5.0120000000000005 -34.832L3.948 -35.224000000000004Q2.492 -35.784 2.492 -37.296Q2.492 -38.192 3.08 -38.696Q3.668 -39.2 4.9 -39.2H20.972Q22.204 -39.2 22.792 -38.696Q23.38 -38.192 23.38 -37.296Q23.38 -35.784 21.924 -35.224000000000004L20.86 -34.832Q20.16 -34.552 19.796 -34.117999999999995Q19.432000000000002 -33.684 19.432000000000002 -32.984Z M64.54 -25.312V-5.88Q64.54 -4.76 64.708 -4.311999999999999Q64.876 -3.864 65.296 -3.64L65.85600000000001 -3.332Q66.78 -2.8000000000000003 66.78 -1.792Q66.78 0.0 64.624 0.0H52.220000000000006Q51.1 0.0 50.596000000000004 -0.448Q50.092000000000006 -0.896 50.092000000000006 -1.68Q50.092000000000006 -2.24 50.372 -2.66Q50.652 -3.08 51.29600000000001 -3.36L51.912000000000006 -3.64Q52.332 -3.8360000000000003 52.5 -4.298Q52.668000000000006 -4.76 52.668000000000006 -5.88V-19.04Q52.668000000000006 -19.936 52.43000000000001 -20.314Q52.19200000000001 -20.692 51.716 -20.832L51.1 -21.028Q50.512 -21.224 50.246 -21.588Q49.980000000000004 -21.952 49.980000000000004 -22.512Q49.980000000000004 -23.184 50.34400000000001 -23.576Q50.708000000000006 -23.968 51.716 -24.36L57.932 -26.768Q59.36 -27.328 60.242000000000004 -27.58Q61.124 -27.832 61.964000000000006 -27.832Q63.224000000000004 -27.832 63.882000000000005 -27.118000000000002Q64.54 -26.404 64.54 -25.312ZM63.532000000000004 -18.48 61.852000000000004 -20.272000000000002 62.69200000000001 -21.056Q66.64 -24.836000000000002 69.55199999999999 -26.334000000000003Q72.464 -27.832 74.9 -27.832Q78.652 -27.832 80.94800000000001 -25.354Q83.244 -22.876 83.244 -18.872V-5.88Q83.244 -4.76 83.412 -4.298Q83.58000000000001 -3.8360000000000003 84.0 -3.64L84.61600000000001 -3.36Q85.26 -3.08 85.54 -2.66Q85.82000000000001 -2.24 85.82000000000001 -1.68Q85.82000000000001 -0.896 85.316 -0.448Q84.81200000000001 0.0 83.69200000000001 0.0H71.28800000000001Q69.132 0.0 69.132 -1.792Q69.132 -2.8000000000000003 70.05600000000001 -3.332L70.616 -3.64Q71.036 -3.864 71.20400000000001 -4.311999999999999Q71.372 -4.76 71.372 -5.88V-17.192Q71.372 -18.984 70.54599999999999 -19.880000000000003Q69.72 -20.776 68.236 -20.776Q67.31200000000001 -20.776 66.304 -20.412Q65.296 -20.048000000000002 64.512 -19.348Z M104.55200000000002 -27.832Q109.31200000000001 -27.832 112.86800000000001 -26.026Q116.424 -24.22 118.39800000000001 -20.972Q120.37200000000001 -17.724 120.37200000000001 -13.412Q120.37200000000001 -9.436 118.30000000000001 -6.216Q116.22800000000001 -2.996 112.57400000000001 -1.1059999999999999Q108.92000000000002 0.784 104.10400000000001 0.784Q99.34400000000002 0.784 95.78800000000001 -1.0499999999999998Q92.23200000000001 -2.884 90.25800000000001 -6.132000000000001Q88.28400000000002 -9.38 88.28400000000002 -13.636000000000001Q88.28400000000002 -17.696 90.35600000000002 -20.902Q92.42800000000001 -24.108 96.08200000000002 -25.97Q99.73600000000002 -27.832 104.55200000000002 -27.832ZM106.59600000000002 -3.2760000000000002Q107.66000000000001 -3.528 108.22000000000001 -4.76Q108.78000000000002 -5.992 108.72400000000002 -8.344Q108.668 -10.696 107.88400000000001 -14.308Q107.15600000000002 -17.78 106.24600000000001 -19.964Q105.33600000000001 -22.148 104.27200000000002 -23.1Q103.20800000000001 -24.052 102.06000000000002 -23.772000000000002Q100.99600000000001 -23.52 100.436 -22.288Q99.87600000000002 -21.056 99.94600000000003 -18.718Q100.01600000000002 -16.38 100.77200000000002 -12.74Q101.50000000000001 -9.296 102.424 -7.098Q103.34800000000001 -4.9 104.39800000000001 -3.962Q105.44800000000001 -3.024 106.59600000000002 -3.2760000000000002Z M134.008 -14.952 137.116 -13.44 132.412 -7.196Q131.46 -5.908 131.614 -4.942Q131.768 -3.976 132.63600000000002 -3.556L133.168 -3.3040000000000003Q133.728 -3.024 134.008 -2.66Q134.288 -2.2960000000000003 134.288 -1.736Q134.288 -0.9520000000000001 133.728 -0.49000000000000005Q133.168 -0.028 132.216 -0.028H124.46000000000001Q123.50800000000001 -0.028 122.96200000000002 -0.49000000000000005Q122.41600000000001 -0.9520000000000001 122.41600000000001 -1.736Q122.41600000000001 -2.2960000000000003 122.72400000000002 -2.702Q123.03200000000001 -3.108 123.81600000000002 -3.556Q124.76800000000001 -4.0040000000000004 125.53800000000001 -4.634Q126.308 -5.264 127.17600000000002 -6.258Q128.044 -7.252 129.24800000000002 -8.764ZM139.916 -21.56 144.34 -15.316 144.816 -14.756 151.424 -5.936Q152.292 -4.816 152.81 -4.27Q153.328 -3.724 153.83200000000002 -3.416Q154.42000000000002 -3.052 154.70000000000002 -2.66Q154.98000000000002 -2.2680000000000002 154.98000000000002 -1.708Q154.98000000000002 -0.924 154.42000000000002 -0.462Q153.86 0.0 152.88000000000002 0.0H138.18Q137.17200000000003 0.0 136.61200000000002 -0.462Q136.05200000000002 -0.924 136.05200000000002 -1.736Q136.05200000000002 -2.2960000000000003 136.29000000000002 -2.646Q136.52800000000002 -2.996 137.00400000000002 -3.192L137.56400000000002 -3.416Q138.15200000000002 -3.64 138.15200000000002 -4.102Q138.15200000000002 -4.564 137.56400000000002 -5.376L133.14000000000001 -11.704L132.63600000000002 -12.32L126.44800000000001 -21.28Q125.80400000000002 -22.232 125.174 -22.694Q124.54400000000001 -23.156 123.9 -23.436Q123.17200000000001 -23.744 122.906 -24.164Q122.64000000000001 -24.584 122.64000000000001 -25.256Q122.64000000000001 -26.068 123.20000000000002 -26.53Q123.76 -26.992 124.74000000000001 -26.992H139.07600000000002Q140.02800000000002 -26.992 140.58800000000002 -26.544Q141.14800000000002 -26.096 141.14800000000002 -25.284Q141.14800000000002 -24.752 140.952 -24.387999999999998Q140.756 -24.024 140.364 -23.744L139.83200000000002 -23.38Q139.38400000000001 -23.072 139.39800000000002 -22.68Q139.412 -22.288 139.916 -21.56ZM143.05200000000002 -12.068 139.94400000000002 -13.58 144.64800000000002 -19.824Q145.62800000000001 -21.112000000000002 145.47400000000002 -22.078000000000003Q145.32000000000002 -23.044 144.424 -23.464000000000002L143.892 -23.716Q143.33200000000002 -23.996000000000002 143.05200000000002 -24.374000000000002Q142.77200000000002 -24.752 142.77200000000002 -25.284Q142.77200000000002 -26.096 143.332 -26.544Q143.892 -26.992 144.84400000000002 -26.992H152.60000000000002Q153.58 -26.992 154.11200000000002 -26.544Q154.644 -26.096 154.644 -25.284Q154.644 -24.724 154.336 -24.317999999999998Q154.02800000000002 -23.912 153.244 -23.464000000000002Q151.84400000000002 -22.82 150.738 -21.672Q149.632 -20.524 147.812 -18.256Z M208.34799999999998 -24.5Q208.34799999999998 -20.804000000000002 206.38799999999998 -18.102Q204.428 -15.4 200.74599999999998 -13.916Q197.064 -12.432 191.94 -12.432Q188.60799999999998 -12.432 186.01799999999997 -13.16Q183.428 -13.888 181.356 -15.176L181.77599999999998 -18.648Q182.83999999999997 -17.892 183.82 -17.416Q184.79999999999998 -16.94 185.878 -16.716Q186.956 -16.492 188.272 -16.492Q190.344 -16.492 192.052 -17.402Q193.76 -18.312 194.78199999999998 -20.174Q195.80399999999997 -22.036 195.80399999999997 -24.836000000000002Q195.80399999999997 -28.056 194.65599999999998 -30.380000000000003Q193.50799999999998 -32.704 191.534 -33.964Q189.56 -35.224000000000004 187.012 -35.224000000000004H186.33999999999997V-6.216Q186.33999999999997 -5.516 186.66199999999998 -5.026Q186.98399999999998 -4.5360000000000005 187.76799999999997 -4.368L189.44799999999998 -4.0040000000000004Q190.344 -3.8080000000000003 190.736 -3.318Q191.128 -2.828 191.128 -1.9040000000000001Q191.128 -1.036 190.54 -0.518Q189.952 0.0 188.72 0.0H171.808Q170.576 0.0 169.988 -0.518Q169.39999999999998 -1.036 169.39999999999998 -1.9040000000000001Q169.39999999999998 -3.416 170.856 -3.976L171.92 -4.368Q172.648 -4.648 172.998 -5.082Q173.34799999999998 -5.516 173.34799999999998 -6.216V-32.984Q173.34799999999998 -33.684 172.998 -34.117999999999995Q172.648 -34.552 171.92 -34.832L170.856 -35.224000000000004Q169.39999999999998 -35.784 169.39999999999998 -37.296Q169.39999999999998 -38.192 169.988 -38.696Q170.576 -39.2 171.808 -39.2H187.404Q194.124 -39.2 198.8 -37.31Q203.476 -35.42 205.91199999999998 -32.102000000000004Q208.34799999999998 -28.784 208.34799999999998 -24.5Z M225.932 -25.312V-5.88Q225.932 -4.76 226.09999999999997 -4.298Q226.26799999999997 -3.8360000000000003 226.688 -3.64L227.30399999999997 -3.36Q227.94799999999998 -3.08 228.22799999999998 -2.66Q228.50799999999998 -2.24 228.50799999999998 -1.68Q228.50799999999998 -0.896 228.004 -0.448Q227.5 0.0 226.38 0.0H213.612Q212.492 0.0 211.988 -0.448Q211.48399999999998 -0.896 211.48399999999998 -1.68Q211.48399999999998 -2.24 211.76399999999998 -2.66Q212.04399999999998 -3.08 212.688 -3.36L213.30399999999997 -3.64Q213.724 -3.8360000000000003 213.892 -4.298Q214.05999999999997 -4.76 214.05999999999997 -5.88V-19.04Q214.05999999999997 -19.936 213.82199999999997 -20.314Q213.58399999999997 -20.692 213.10799999999998 -20.832L212.492 -21.028Q211.904 -21.224 211.63799999999998 -21.588Q211.37199999999999 -21.952 211.37199999999999 -22.512Q211.37199999999999 -23.184 211.736 -23.576Q212.1 -23.968 213.10799999999998 -24.36L219.32399999999998 -26.768Q220.83599999999998 -27.356 221.70399999999998 -27.594Q222.57199999999997 -27.832 223.24399999999997 -27.832Q224.588 -27.832 225.26 -27.118000000000002Q225.932 -26.404 225.932 -25.312ZM219.38 -30.296Q216.24399999999997 -30.296 214.42399999999998 -31.752Q212.60399999999998 -33.208 212.60399999999998 -35.728Q212.60399999999998 -38.22 214.42399999999998 -39.647999999999996Q216.24399999999997 -41.076 219.38 -41.076Q222.516 -41.076 224.33599999999998 -39.647999999999996Q226.15599999999998 -38.22 226.15599999999998 -35.728Q226.15599999999998 -33.208 224.33599999999998 -31.752Q222.516 -30.296 219.38 -30.296Z M259.056 -19.18Q259.056 -17.052 257.44599999999997 -15.568Q255.83599999999998 -14.084 253.14799999999997 -14.084Q250.54399999999998 -14.084 249.24199999999996 -15.47Q247.93999999999997 -16.856 247.93999999999997 -19.012V-19.908Q247.93999999999997 -21.728 247.18399999999997 -22.778Q246.42799999999997 -23.828 245.19599999999997 -23.828Q244.21599999999998 -23.828 243.36199999999997 -23.1Q242.50799999999998 -22.372 241.97599999999997 -20.874000000000002Q241.44399999999996 -19.376 241.44399999999996 -17.080000000000002Q241.44399999999996 -13.832 242.54999999999995 -11.648Q243.65599999999998 -9.464 245.58799999999997 -8.358Q247.51999999999998 -7.252 249.98399999999998 -7.252Q251.77599999999998 -7.252 253.21799999999996 -7.686Q254.65999999999997 -8.120000000000001 256.08799999999997 -9.38Q256.9 -10.108 257.31999999999994 -10.36Q257.73999999999995 -10.612 258.13199999999995 -10.612Q258.69199999999995 -10.612 258.95799999999997 -10.052Q259.224 -9.492 259.224 -8.68Q259.224 -6.188 257.558 -4.018Q255.89199999999997 -1.848 252.92399999999998 -0.532Q249.95599999999996 0.784 246.03599999999997 0.784Q241.75199999999998 0.784 238.34999999999997 -0.91Q234.94799999999998 -2.604 232.95999999999998 -5.6419999999999995Q230.97199999999998 -8.68 230.97199999999998 -12.74Q230.97199999999998 -17.080000000000002 232.89 -20.496000000000002Q234.80799999999996 -23.912 238.32199999999997 -25.872Q241.83599999999998 -27.832 246.62399999999997 -27.832Q250.45999999999998 -27.832 253.24599999999998 -26.67Q256.032 -25.508 257.544 -23.548000000000002Q259.056 -21.588 259.056 -19.18Z M264.544 0.0Q263.424 0.0 262.91999999999996 -0.448Q262.416 -0.896 262.416 -1.68Q262.416 -2.24 262.696 -2.66Q262.976 -3.08 263.61999999999995 -3.36L264.236 -3.64Q264.65599999999995 -3.8360000000000003 264.82399999999996 -4.298Q264.99199999999996 -4.76 264.99199999999996 -5.88V-33.488Q264.99199999999996 -34.384 264.75399999999996 -34.762Q264.51599999999996 -35.14 264.03999999999996 -35.28L263.424 -35.476Q262.83599999999996 -35.672000000000004 262.56999999999994 -36.036Q262.304 -36.4 262.304 -36.96Q262.304 -37.632 262.668 -38.024Q263.032 -38.416000000000004 264.03999999999996 -38.808L270.256 -41.216Q271.68399999999997 -41.776 272.566 -42.028000000000006Q273.448 -42.28 274.28799999999995 -42.28Q275.548 -42.28 276.206 -41.566Q276.864 -40.852000000000004 276.864 -39.76V-5.88Q276.864 -4.76 277.032 -4.311999999999999Q277.2 -3.864 277.61999999999995 -3.64L278.17999999999995 -3.332Q279.104 -2.8000000000000003 279.104 -1.792Q279.104 0.0 276.948 0.0ZM273.41999999999996 -12.208 283.948 -20.664Q284.9 -21.42 284.816 -22.232Q284.73199999999997 -23.044 283.69599999999997 -23.492L282.996 -23.8Q282.436 -24.052 282.226 -24.402Q282.01599999999996 -24.752 282.01599999999996 -25.312Q282.01599999999996 -26.096 282.56199999999995 -26.544Q283.10799999999995 -26.992 284.032 -26.992H294.952Q295.904 -26.992 296.45 -26.558Q296.996 -26.124 296.996 -25.396Q296.996 -24.668 296.562 -24.177999999999997Q296.128 -23.688 294.67199999999997 -23.296Q293.188 -22.876 291.87199999999996 -22.148000000000003Q290.556 -21.42 288.67999999999995 -19.936L274.876 -9.184000000000001ZM285.096 -20.412 295.23199999999997 -5.264Q295.67999999999995 -4.62 296.058 -4.256Q296.436 -3.892 296.94 -3.528Q297.58399999999995 -3.08 297.962 -2.59Q298.34 -2.1 298.34 -1.54Q298.34 -0.84 297.794 -0.42Q297.248 0.0 296.32399999999996 0.0H283.164Q282.352 0.0 281.86199999999997 -0.448Q281.37199999999996 -0.896 281.37199999999996 -1.6520000000000001Q281.37199999999996 -2.128 281.568 -2.45Q281.76399999999995 -2.7720000000000002 282.212 -3.052L282.74399999999997 -3.36Q283.19199999999995 -3.612 283.2339999999999 -4.074Q283.27599999999995 -4.5360000000000005 282.63199999999995 -5.488L277.424 -13.412Z M317.01599999999996 -19.236Q319.76 -19.236 318.69599999999997 -16.324L317.828 -13.916Q317.352 -12.544 316.69399999999996 -12.054Q316.036 -11.564 314.972 -11.564H301.224Q298.47999999999996 -11.564 299.544 -14.476L300.412 -16.884Q300.888 -18.256 301.54599999999994 -18.746000000000002Q302.20399999999995 -19.236 303.268 -19.236Z M350.308 -13.384 346.21999999999997 -12.796000000000001 354.592 -35.42Q355.404 -37.576 356.45399999999995 -38.388000000000005Q357.50399999999996 -39.2 359.38 -39.2H370.24399999999997Q371.476 -39.2 372.06399999999996 -38.696Q372.652 -38.192 372.652 -37.296Q372.652 -36.512 372.274 -35.994Q371.89599999999996 -35.476 371.224 -35.224000000000004L370.15999999999997 -34.832Q369.292 -34.524 368.99799999999993 -34.048Q368.70399999999995 -33.572 368.76 -32.592L370.524 -6.496Q370.58 -5.46 370.874 -5.04Q371.168 -4.62 371.868 -4.368L372.93199999999996 -3.976Q373.57599999999996 -3.7520000000000002 373.912 -3.248Q374.248 -2.744 374.248 -2.016Q374.248 -1.1480000000000001 373.65999999999997 -0.5740000000000001Q373.072 0.0 371.84 0.0H356.216Q354.95599999999996 0.0 354.36799999999994 -0.518Q353.78 -1.036 353.78 -1.9040000000000001Q353.78 -2.632 354.102 -3.164Q354.424 -3.696 355.236 -3.976L356.328 -4.368Q357.168 -4.676 357.462 -5.138Q357.756 -5.6000000000000005 357.7 -6.524L355.628 -34.216L359.296 -34.524L348.03999999999996 -4.116Q347.256 -1.988 346.42999999999995 -1.4Q345.604 -0.812 344.45599999999996 -0.812Q343.616 -0.812 342.92999999999995 -1.008Q342.24399999999997 -1.204 341.64199999999994 -1.9460000000000002Q341.03999999999996 -2.688 340.39599999999996 -4.312L328.888 -33.432L332.416 -34.048L330.28799999999995 -7.5040000000000004Q330.176 -6.16 330.86199999999997 -5.46Q331.548 -4.76 332.584 -4.172L333.368 -3.724Q333.844 -3.472 334.11 -3.052Q334.376 -2.632 334.376 -1.988Q334.376 -1.092 333.80199999999996 -0.546Q333.22799999999995 0.0 331.996 0.0H323.736Q322.50399999999996 0.0 321.92999999999995 -0.518Q321.356 -1.036 321.356 -1.9040000000000001Q321.356 -2.7720000000000002 321.804 -3.234Q322.25199999999995 -3.696 322.97999999999996 -4.0600000000000005L323.568 -4.34Q324.436 -4.76 325.066 -5.4879999999999995Q325.69599999999997 -6.216 325.808 -7.532L327.712 -31.332Q327.852 -32.984 327.544 -33.74Q327.236 -34.496 326.34 -34.832L325.27599999999995 -35.224000000000004Q324.548 -35.504 324.18399999999997 -36.007999999999996Q323.82 -36.512 323.82 -37.296Q323.82 -39.2 326.22799999999995 -39.2H336.97999999999996Q338.71599999999995 -39.2 339.76599999999996 -38.472Q340.816 -37.744 341.68399999999997 -35.504Z M405.608 -17.024Q405.608 -15.064 404.544 -13.986Q403.48 -12.908 401.492 -12.908H384.88800000000003V-15.82H392.36400000000003Q393.904 -15.82 393.904 -17.276Q393.904 -20.804000000000002 393.092 -22.316000000000003Q392.28000000000003 -23.828 390.936 -23.828Q389.956 -23.828 389.172 -23.1Q388.38800000000003 -22.372 387.92600000000004 -20.874000000000002Q387.464 -19.376 387.464 -17.080000000000002Q387.464 -11.984 389.76 -9.618Q392.056 -7.252 396.032 -7.252Q397.88 -7.252 399.392 -7.672000000000001Q400.904 -8.092 402.36 -9.38Q403.172 -10.108 403.592 -10.36Q404.012 -10.612 404.404 -10.612Q404.964 -10.612 405.23 -10.052Q405.496 -9.492 405.496 -8.68Q405.496 -6.188 403.802 -4.018Q402.108 -1.848 399.098 -0.532Q396.088 0.784 392.084 0.784Q387.8 0.784 384.384 -0.91Q380.968 -2.604 378.98 -5.6419999999999995Q376.992 -8.68 376.992 -12.74Q376.992 -17.304000000000002 378.812 -20.692Q380.632 -24.080000000000002 384.118 -25.956000000000003Q387.604 -27.832 392.532 -27.832Q396.872 -27.832 399.784 -26.432000000000002Q402.696 -25.032 404.15200000000004 -22.596Q405.608 -20.16 405.608 -17.024Z M426.132 -19.236Q428.87600000000003 -19.236 427.812 -16.324L426.944 -13.916Q426.468 -12.544 425.81000000000006 -12.054Q425.15200000000004 -11.564 424.088 -11.564H410.34000000000003Q407.596 -11.564 408.66 -14.476L409.528 -16.884Q410.004 -18.256 410.66200000000003 -18.746000000000002Q411.32 -19.236 412.384 -19.236Z M463.17600000000004 -17.36 462.14000000000004 -31.276Q462.028 -32.844 461.482 -33.698Q460.93600000000004 -34.552 459.788 -34.86L458.976 -35.084Q457.884 -35.392 457.422 -35.896Q456.96000000000004 -36.4 456.96000000000004 -37.268Q456.96000000000004 -38.136 457.548 -38.668000000000006Q458.136 -39.2 459.20000000000005 -39.2H469.588Q470.68 -39.2 471.26800000000003 -38.668000000000006Q471.856 -38.136 471.856 -37.268Q471.856 -36.4 471.352 -35.924Q470.848 -35.448 469.812 -35.112L469.028 -34.86Q467.432 -34.356 466.942 -33.432Q466.452 -32.508 466.564 -30.968L467.684 -17.5Q467.824 -16.016000000000002 467.894 -14.588000000000001Q467.964 -13.16 467.964 -11.620000000000001Q467.964 -8.008000000000001 466.214 -5.1240000000000006Q464.464 -2.24 460.852 -0.56Q457.24 1.12 451.584 1.12Q445.928 1.12 442.17600000000004 -0.43399999999999994Q438.42400000000004 -1.988 436.548 -4.844Q434.672 -7.7 434.672 -11.592Q434.672 -12.068 434.70000000000005 -12.782Q434.728 -13.496 434.798 -14.756Q434.868 -16.016000000000002 435.00800000000004 -18.06L435.988 -32.956Q436.04400000000004 -33.768 435.72200000000004 -34.188Q435.40000000000003 -34.608000000000004 434.392 -34.832L433.3 -35.084Q431.25600000000003 -35.56 431.25600000000003 -37.268Q431.25600000000003 -38.136 431.84400000000005 -38.668000000000006Q432.432 -39.2 433.524 -39.2H451.332Q452.42400000000004 -39.2 453.01200000000006 -38.668000000000006Q453.6 -38.136 453.6 -37.268Q453.6 -36.4 453.11 -35.882Q452.62 -35.364 451.55600000000004 -35.112L450.408 -34.832Q449.708 -34.664 449.386 -34.230000000000004Q449.064 -33.796 449.00800000000004 -32.984L448.05600000000004 -17.892Q447.944 -16.184 447.91600000000005 -14.742Q447.88800000000003 -13.3 447.88800000000003 -12.32Q447.88800000000003 -7.588 449.75 -5.516Q451.612 -3.444 454.88800000000003 -3.444Q457.52000000000004 -3.444 459.42400000000004 -4.452Q461.32800000000003 -5.46 462.36400000000003 -7.322000000000001Q463.40000000000003 -9.184000000000001 463.40000000000003 -11.76Q463.40000000000003 -13.748000000000001 463.33000000000004 -14.994000000000002Q463.26 -16.240000000000002 463.17600000000004 -17.36Z M488.012 -25.312V-22.792L488.572 -21.728V7.168Q488.572 8.288 488.74 8.75Q488.908 9.212 489.328 9.408L489.944 9.688Q490.588 9.968 490.86800000000005 10.388Q491.148 10.808 491.148 11.368Q491.148 12.152000000000001 490.644 12.600000000000001Q490.14 13.048 489.02 13.048H476.252Q475.132 13.048 474.62800000000004 12.600000000000001Q474.124 12.152000000000001 474.124 11.368Q474.124 10.808 474.404 10.388Q474.684 9.968 475.328 9.688L475.944 9.408Q476.364 9.212 476.532 8.75Q476.7 8.288 476.7 7.168V-19.04Q476.7 -19.936 476.462 -20.314Q476.224 -20.692 475.748 -20.832L475.132 -21.028Q474.544 -21.224 474.278 -21.588Q474.012 -21.952 474.012 -22.512Q474.012 -23.184 474.376 -23.534Q474.74 -23.884 475.748 -24.332L481.404 -26.768Q482.776 -27.356 483.672 -27.594Q484.568 -27.832 485.296 -27.832Q486.668 -27.832 487.34000000000003 -27.118000000000002Q488.012 -26.404 488.012 -25.312ZM486.472 -17.528 484.484 -19.432000000000002Q486.892 -23.352 489.88800000000003 -25.592Q492.884 -27.832 496.748 -27.832Q500.08 -27.832 502.712 -26.124000000000002Q505.344 -24.416 506.87 -21.406Q508.396 -18.396 508.396 -14.448Q508.396 -9.884 506.52 -6.454000000000001Q504.644 -3.024 501.396 -1.12Q498.148 0.784 494.06 0.784Q490.672 0.784 488.13800000000003 -0.658Q485.604 -2.1 483.756 -5.04L486.808 -7.112Q488.096 -5.264 489.244 -4.494Q490.392 -3.724 491.736 -3.724Q493.052 -3.724 494.04600000000005 -4.676Q495.04 -5.628 495.586 -7.728Q496.132 -9.828 496.132 -13.244Q496.132 -16.38 495.558 -18.298000000000002Q494.984 -20.216 494.004 -21.098Q493.024 -21.98 491.736 -21.98Q490.196 -21.98 488.908 -20.93Q487.62 -19.88 486.472 -17.528Z"/><path transform="translate(266.00,152.00)" fill="#b04e00" d="M4.29 -6.05 4.88 -6.63Q5.3100000000000005 -6.38 5.885 -6.215Q6.46 -6.05 7.16 -6.05Q8.32 -6.05 9.17 -6.484999999999999Q10.02 -6.92 10.559999999999999 -7.72Q11.1 -8.52 11.290000000000001 -9.58Q11.53 -10.81 11.219999999999999 -11.63Q10.91 -12.450000000000001 10.2 -12.865000000000002Q9.49 -13.280000000000001 8.52 -13.280000000000001Q7.72 -13.280000000000001 7.395 -13.040000000000001Q7.07 -12.8 6.92 -12.32Q6.82 -11.94 6.645 -11.27Q6.47 -10.6 6.24 -9.74Q6.01 -8.88 5.755 -7.930000000000001Q5.5 -6.98 5.245 -6.025Q4.99 -5.07 4.765000000000001 -4.21Q4.54 -3.35 4.375 -2.68Q4.21 -2.0100000000000002 4.14 -1.6300000000000001Q4.0600000000000005 -1.3 4.16 -1.135Q4.26 -0.97 4.45 -0.92L5.03 -0.79Q5.22 -0.73 5.32 -0.64Q5.42 -0.55 5.42 -0.4Q5.42 -0.22 5.275 -0.11Q5.13 0.0 4.8500000000000005 0.0H0.6Q0.34 0.0 0.24000000000000002 -0.1Q0.14 -0.2 0.14 -0.36Q0.14 -0.53 0.265 -0.64Q0.39 -0.75 0.62 -0.79L1.1300000000000001 -0.89Q1.45 -0.9500000000000001 1.6400000000000001 -1.115Q1.83 -1.28 1.95 -1.62Q2.04 -1.97 2.2199999999999998 -2.63Q2.4 -3.29 2.635 -4.155Q2.87 -5.0200000000000005 3.135 -5.985Q3.4 -6.95 3.6550000000000002 -7.92Q3.91 -8.89 4.135 -9.760000000000002Q4.36 -10.63 4.52 -11.305Q4.68 -11.98 4.74 -12.35Q4.82 -12.700000000000001 4.765000000000001 -12.86Q4.71 -13.02 4.42 -13.1L3.84 -13.22Q3.64 -13.280000000000001 3.555 -13.370000000000001Q3.47 -13.46 3.47 -13.59Q3.47 -13.780000000000001 3.62 -13.89Q3.77 -14.0 4.04 -14.0H8.83Q10.450000000000001 -14.0 11.585 -13.43Q12.72 -12.86 13.225000000000001 -11.809999999999999Q13.73 -10.76 13.43 -9.31Q13.19 -8.14 12.385 -7.25Q11.58 -6.36 10.3 -5.86Q9.02 -5.36 7.390000000000001 -5.33Q6.390000000000001 -5.32 5.625 -5.52Q4.86 -5.72 4.29 -6.05ZM7.36 -5.51 9.39 -5.84 10.43 -2.54Q10.57 -2.0300000000000002 10.72 -1.75Q10.870000000000001 -1.47 11.040000000000001 -1.3599999999999999Q11.21 -1.25 11.4 -1.25Q11.61 -1.25 11.774999999999999 -1.35Q11.94 -1.45 12.09 -1.6400000000000001Q12.16 -1.72 12.280000000000001 -1.755Q12.4 -1.79 12.5 -1.75Q12.64 -1.7 12.68 -1.555Q12.72 -1.41 12.620000000000001 -1.22Q12.34 -0.5700000000000001 11.719999999999999 -0.17000000000000004Q11.1 0.23 10.290000000000001 0.23Q9.870000000000001 0.23 9.530000000000001 0.060000000000000005Q9.19 -0.11 8.93 -0.525Q8.67 -0.9400000000000001 8.46 -1.6600000000000001Z M17.23 -2.61Q16.94 -1.83 17.020000000000003 -1.51Q17.1 -1.19 17.36 -1.19Q17.53 -1.19 17.715 -1.295Q17.9 -1.4000000000000001 18.16 -1.6600000000000001Q18.33 -1.81 18.439999999999998 -1.85Q18.55 -1.8900000000000001 18.65 -1.84Q18.77 -1.78 18.765 -1.625Q18.76 -1.47 18.65 -1.24Q18.29 -0.58 17.615000000000002 -0.18999999999999997Q16.94 0.2 16.13 0.2Q15.51 0.2 15.190000000000001 -0.08499999999999999Q14.870000000000001 -0.37 14.86 -0.9099999999999999Q14.85 -1.45 15.13 -2.22L16.75 -6.55Q17.04 -7.33 16.96 -7.65Q16.88 -7.97 16.61 -7.97Q16.45 -7.97 16.265 -7.865Q16.08 -7.76 15.81 -7.5Q15.64 -7.36 15.530000000000001 -7.315Q15.42 -7.2700000000000005 15.32 -7.32Q15.2 -7.38 15.205 -7.535Q15.21 -7.69 15.33 -7.92Q15.68 -8.57 16.345 -8.965Q17.01 -9.36 17.82 -9.36Q18.4 -9.36 18.72 -9.08Q19.04 -8.8 19.07 -8.245000000000001Q19.1 -7.69 18.8 -6.88ZM18.560000000000002 -11.27Q17.91 -11.27 17.57 -11.625Q17.23 -11.98 17.29 -12.48Q17.33 -12.88 17.58 -13.21Q17.83 -13.540000000000001 18.24 -13.74Q18.65 -13.94 19.17 -13.94Q19.85 -13.94 20.165 -13.585Q20.48 -13.23 20.41 -12.72Q20.380000000000003 -12.32 20.125 -11.99Q19.87 -11.66 19.47 -11.465Q19.07 -11.27 18.560000000000002 -11.27Z M31.28 -11.94 28.549999999999997 -2.62Q28.39 -2.08 28.37 -1.76Q28.35 -1.44 28.44 -1.305Q28.53 -1.17 28.71 -1.17Q28.869999999999997 -1.17 29.055 -1.275Q29.240000000000002 -1.3800000000000001 29.509999999999998 -1.6300000000000001Q29.68 -1.79 29.79 -1.83Q29.9 -1.87 30.0 -1.82Q30.119999999999997 -1.76 30.115 -1.605Q30.11 -1.45 29.990000000000002 -1.22Q29.759999999999998 -0.78 29.38 -0.46Q29.0 -0.14 28.55 0.03499999999999999Q28.1 0.21 27.619999999999997 0.21Q27.04 0.21 26.744999999999997 -0.085Q26.45 -0.38 26.45 -0.93Q26.45 -1.23 26.53 -1.635Q26.61 -2.04 26.79 -2.685Q26.97 -3.33 27.259999999999998 -4.32L27.56 -4.16Q26.91 -2.71 26.09 -1.74Q25.27 -0.77 24.395 -0.28Q23.52 0.21 22.669999999999998 0.21Q21.54 0.21 20.945 -0.535Q20.349999999999998 -1.28 20.5 -2.87Q20.61 -4.18 21.2 -5.345Q21.79 -6.51 22.729999999999997 -7.42Q23.669999999999998 -8.33 24.845 -8.844999999999999Q26.02 -9.36 27.29 -9.36Q27.96 -9.36 28.425 -9.184999999999999Q28.89 -9.01 29.165 -8.7Q29.439999999999998 -8.39 29.52 -7.99L28.29 -7.71Q28.14 -8.14 27.85 -8.350000000000001Q27.56 -8.56 27.04 -8.56Q26.4 -8.56 25.77 -8.22Q25.14 -7.88 24.58 -7.285Q24.02 -6.69 23.575 -5.9350000000000005Q23.13 -5.18 22.865 -4.335Q22.599999999999998 -3.49 22.57 -2.66Q22.53 -1.76 22.83 -1.37Q23.13 -0.98 23.619999999999997 -0.98Q24.06 -0.98 24.589999999999996 -1.3399999999999999Q25.119999999999997 -1.7 25.665 -2.335Q26.21 -2.97 26.67 -3.8049999999999997Q27.13 -4.64 27.41 -5.6000000000000005L29.21 -11.540000000000001Q29.45 -12.34 29.369999999999997 -12.655000000000001Q29.29 -12.97 29.02 -12.97Q28.86 -12.97 28.675 -12.865Q28.490000000000002 -12.76 28.22 -12.5Q28.049999999999997 -12.36 27.939999999999998 -12.315Q27.83 -12.27 27.73 -12.32Q27.61 -12.38 27.615 -12.535Q27.619999999999997 -12.69 27.74 -12.92Q27.979999999999997 -13.36 28.354999999999997 -13.684999999999999Q28.729999999999997 -14.01 29.214999999999996 -14.184999999999999Q29.7 -14.36 30.240000000000002 -14.36Q30.85 -14.36 31.155 -14.085Q31.46 -13.81 31.485 -13.265Q31.509999999999998 -12.72 31.28 -11.94Z M33.03 -4.13Q33.03 -4.13 33.4 -4.27Q33.769999999999996 -4.41 34.375 -4.635Q34.98 -4.86 35.675 -5.12Q36.37 -5.38 37.035 -5.635Q37.7 -5.89 38.2 -6.08L37.97 -5.76Q38.05 -6.01 38.089999999999996 -6.32Q38.129999999999995 -6.63 38.14 -7.05Q38.14 -7.72 37.85 -8.155Q37.56 -8.59 37.08 -8.59Q36.61 -8.59 36.105000000000004 -8.235Q35.6 -7.88 35.16 -7.25Q34.72 -6.62 34.42 -5.78Q34.12 -4.94 34.05 -3.97Q33.949999999999996 -2.5 34.51 -1.7650000000000001Q35.07 -1.03 36.1 -1.03Q36.72 -1.03 37.3 -1.2650000000000001Q37.879999999999995 -1.5 38.345 -1.95Q38.81 -2.4 39.06 -3.04Q39.21 -3.2600000000000002 39.325 -3.34Q39.44 -3.42 39.57 -3.42Q39.739999999999995 -3.41 39.834999999999994 -3.2750000000000004Q39.93 -3.14 39.85 -2.83Q39.71 -2.06 39.129999999999995 -1.365Q38.55 -0.67 37.565 -0.23000000000000004Q36.58 0.21 35.22 0.21Q34.06 0.21 33.3 -0.22500000000000003Q32.54 -0.66 32.2 -1.465Q31.86 -2.27 31.93 -3.39Q32.01 -4.59 32.485 -5.67Q32.96 -6.75 33.735 -7.58Q34.51 -8.41 35.485 -8.89Q36.46 -9.370000000000001 37.53 -9.370000000000001Q38.32 -9.370000000000001 38.855000000000004 -9.06Q39.39 -8.75 39.67 -8.23Q39.95 -7.71 40.0 -7.07Q40.01 -6.92 40.084999999999994 -6.82Q40.16 -6.72 40.28 -6.72Q40.43 -6.73 40.5 -6.665000000000001Q40.57 -6.6000000000000005 40.57 -6.47Q40.57 -6.32 40.435 -6.1850000000000005Q40.3 -6.05 39.92 -5.91Q39.51 -5.7700000000000005 38.855000000000004 -5.535Q38.2 -5.3 37.435 -5.02Q36.67 -4.74 35.905 -4.465Q35.14 -4.19 34.51 -3.9650000000000003Q33.879999999999995 -3.74 33.495 -3.6Q33.11 -3.46 33.11 -3.46Z M48.86 -7.7700000000000005 49.209999999999994 -8.76H51.68Q51.949999999999996 -8.76 52.095 -8.68Q52.239999999999995 -8.6 52.239999999999995 -8.39Q52.239999999999995 -8.22 52.11 -8.075000000000001Q51.98 -7.930000000000001 51.754999999999995 -7.8500000000000005Q51.53 -7.7700000000000005 51.239999999999995 -7.7700000000000005ZM46.209999999999994 -8.370000000000001Q46.209999999999994 -8.55 46.349999999999994 -8.66Q46.489999999999995 -8.77 46.779999999999994 -8.77H47.989999999999995L48.459999999999994 -10.71Q48.86 -12.43 49.795 -13.344999999999999Q50.73 -14.26 52.29 -14.26Q53.19 -14.26 53.62 -13.915Q54.05 -13.57 54.05 -13.11Q54.05 -12.64 53.769999999999996 -12.345Q53.489999999999995 -12.05 53.03 -12.05Q52.73 -12.05 52.47 -12.185Q52.209999999999994 -12.32 51.97 -12.485Q51.73 -12.65 51.485 -12.785Q51.239999999999995 -12.92 50.959999999999994 -12.92Q50.48 -12.92 50.155 -12.59Q49.83 -12.26 49.709999999999994 -11.72Q49.64 -11.4 49.695 -11.015Q49.75 -10.63 49.849999999999994 -10.22Q49.949999999999996 -9.81 49.989999999999995 -9.4Q50.03 -8.99 49.93 -8.61L47.44 0.59Q47.36 0.88 47.31999999999999 1.115Q47.279999999999994 1.35 47.279999999999994 1.55Q47.279999999999994 1.8 47.404999999999994 1.96Q47.529999999999994 2.12 47.64999999999999 2.265Q47.769999999999996 2.41 47.769999999999996 2.63Q47.769999999999996 2.92 47.48 3.17Q47.19 3.42 46.735 3.5700000000000003Q46.279999999999994 3.72 45.769999999999996 3.72Q45.169999999999995 3.72 44.989999999999995 3.2800000000000002Q44.809999999999995 2.84 45.059999999999995 1.94L47.51 -6.72Q47.68 -7.29 47.53 -7.550000000000001Q47.379999999999995 -7.8100000000000005 46.72 -7.890000000000001Q46.41 -8.01 46.309999999999995 -8.125Q46.209999999999994 -8.24 46.209999999999994 -8.370000000000001Z M53.059999999999995 -7.32Q52.94 -7.38 52.94 -7.535Q52.94 -7.69 53.059999999999995 -7.92Q53.3 -8.36 53.69 -8.684999999999999Q54.08 -9.01 54.56 -9.184999999999999Q55.04 -9.36 55.56999999999999 -9.36Q56.08 -9.36 56.364999999999995 -9.115Q56.65 -8.870000000000001 56.65 -8.38Q56.65 -7.96 56.47 -7.4Q56.29 -6.84 56.05499999999999 -6.245Q55.81999999999999 -5.65 55.629999999999995 -5.105Q55.44 -4.5600000000000005 55.419999999999995 -4.18L55.26 -4.19Q55.58 -5.38 56.06999999999999 -6.335Q56.559999999999995 -7.29 57.14999999999999 -7.965Q57.739999999999995 -8.64 58.375 -9.0Q59.01 -9.36 59.62 -9.36Q60.379999999999995 -9.36 60.765 -8.934999999999999Q61.15 -8.51 61.14 -7.8100000000000005Q61.12 -7.28 60.92999999999999 -6.9Q60.739999999999995 -6.5200000000000005 60.44 -6.32Q60.14 -6.12 59.78999999999999 -6.12Q59.41 -6.12 59.23 -6.300000000000001Q59.05 -6.48 59.05 -6.72Q59.05 -6.93 59.114999999999995 -7.13Q59.17999999999999 -7.33 59.17999999999999 -7.55Q59.17999999999999 -7.8 59.065 -7.949999999999999Q58.949999999999996 -8.1 58.69 -8.1Q58.25 -8.1 57.685 -7.574999999999999Q57.12 -7.05 56.545 -6.029999999999999Q55.97 -5.01 55.489999999999995 -3.5Q55.26 -2.8000000000000003 55.15 -2.3850000000000002Q55.04 -1.97 55.04 -1.6400000000000001Q55.04 -1.3900000000000001 55.14 -1.2550000000000001Q55.239999999999995 -1.12 55.339999999999996 -1.0Q55.44 -0.88 55.44 -0.65Q55.44 -0.41000000000000003 55.224999999999994 -0.21000000000000002Q55.01 -0.01 54.595 0.105Q54.17999999999999 0.22 53.58 0.22Q53.11 0.22 52.89 0.009999999999999995Q52.669999999999995 -0.2 52.67999999999999 -0.63Q52.69 -1.06 52.91 -1.71L54.51 -6.55Q54.769999999999996 -7.33 54.69499999999999 -7.65Q54.62 -7.97 54.349999999999994 -7.97Q54.19 -7.97 54.0 -7.865Q53.809999999999995 -7.76 53.55 -7.5Q53.379999999999995 -7.36 53.269999999999996 -7.315Q53.16 -7.2700000000000005 53.059999999999995 -7.32Z M67.09 -9.370000000000001Q68.33 -9.34 69.205 -8.77Q70.08 -8.2 70.455 -7.16Q70.83 -6.12 70.57 -4.66Q70.37 -3.5700000000000003 69.855 -2.66Q69.34 -1.75 68.58 -1.095Q67.82 -0.44 66.88999999999999 -0.095Q65.96 0.25 64.92 0.21Q63.709999999999994 0.17 62.849999999999994 -0.39499999999999996Q61.989999999999995 -0.96 61.625 -2.01Q61.26 -3.06 61.51 -4.5Q61.72 -5.6000000000000005 62.224999999999994 -6.51Q62.73 -7.42 63.474999999999994 -8.07Q64.22 -8.72 65.14 -9.065000000000001Q66.06 -9.41 67.09 -9.370000000000001ZM64.96 -0.64Q65.39 -0.59 65.81 -0.74Q66.22999999999999 -0.89 66.615 -1.215Q67.0 -1.54 67.32499999999999 -2.035Q67.64999999999999 -2.5300000000000002 67.905 -3.1900000000000004Q68.16 -3.85 68.33 -4.66Q68.59 -5.91 68.5 -6.75Q68.41 -7.59 68.035 -8.030000000000001Q67.66 -8.47 67.05 -8.52Q66.61999999999999 -8.57 66.215 -8.42Q65.81 -8.27 65.435 -7.945Q65.06 -7.62 64.74000000000001 -7.125Q64.42 -6.63 64.17 -5.970000000000001Q63.919999999999995 -5.3100000000000005 63.75 -4.51Q63.489999999999995 -3.25 63.574999999999996 -2.415Q63.66 -1.58 64.02 -1.1400000000000001Q64.38 -0.7000000000000001 64.96 -0.64Z M77.73 -1.74 79.27 -6.12Q79.61 -7.1000000000000005 79.505 -7.51Q79.4 -7.92 78.92999999999999 -7.92Q78.39 -7.92 77.66 -7.4399999999999995Q76.92999999999999 -6.96 76.21 -5.995Q75.49 -5.03 74.97 -3.58Q74.75 -2.96 74.625 -2.585Q74.5 -2.21 74.45 -1.99Q74.4 -1.77 74.4 -1.62Q74.4 -1.35 74.48 -1.17Q74.56 -0.99 74.56 -0.73Q74.56 -0.3 74.10499999999999 -0.045Q73.64999999999999 0.21 72.87 0.21Q72.24 0.21 72.11 -0.265Q71.98 -0.74 72.34 -1.74L74.06 -6.55Q74.34 -7.33 74.265 -7.65Q74.19 -7.97 73.92 -7.97Q73.76 -7.97 73.575 -7.865Q73.39 -7.76 73.12 -7.5Q72.95 -7.36 72.84 -7.315Q72.73 -7.2700000000000005 72.63 -7.32Q72.51 -7.38 72.515 -7.535Q72.52 -7.69 72.64 -7.92Q73.0 -8.58 73.675 -8.969999999999999Q74.35 -9.36 75.17999999999999 -9.36Q75.73 -9.36 76.05000000000001 -9.115Q76.37 -8.870000000000001 76.37 -8.39Q76.37 -8.1 76.255 -7.73Q76.14 -7.36 75.925 -6.835000000000001Q75.71 -6.3100000000000005 75.405 -5.57Q75.1 -4.83 74.72 -3.8000000000000003L74.67999999999999 -4.23Q75.45 -6.16 76.455 -7.28Q77.46 -8.4 78.47 -8.879999999999999Q79.48 -9.36 80.27 -9.36Q81.0 -9.36 81.36 -9.059999999999999Q81.72 -8.76 81.69 -8.14Q81.69 -7.86 81.58500000000001 -7.525Q81.48 -7.19 81.285 -6.710000000000001Q81.09 -6.23 80.81 -5.525Q80.53 -4.82 80.16 -3.8000000000000003L80.06 -4.23Q80.64 -5.67 81.35 -6.655Q82.06 -7.640000000000001 82.82 -8.24Q83.58 -8.84 84.3 -9.1Q85.02 -9.36 85.61 -9.36Q86.39 -9.36 86.725 -9.0Q87.06 -8.64 87.035 -7.98Q87.00999999999999 -7.32 86.69 -6.41L85.35 -2.61Q85.07 -1.82 85.15 -1.505Q85.23 -1.19 85.5 -1.19Q85.67 -1.19 85.85 -1.29Q86.03 -1.3900000000000001 86.3 -1.6500000000000001Q86.47 -1.8 86.58 -1.84Q86.69 -1.8800000000000001 86.78999999999999 -1.83Q86.91 -1.78 86.905 -1.62Q86.9 -1.46 86.78 -1.24Q86.42999999999999 -0.58 85.75999999999999 -0.185Q85.09 0.21 84.25999999999999 0.21Q83.65 0.21 83.33500000000001 -0.075Q83.02 -0.36 83.0 -0.8999999999999999Q82.98 -1.44 83.25 -2.21L84.62 -6.12Q84.98 -7.1000000000000005 84.86 -7.51Q84.74 -7.92 84.28 -7.92Q83.75 -7.92 83.025 -7.4350000000000005Q82.3 -6.95 81.58500000000001 -5.99Q80.87 -5.03 80.35 -3.58Q80.14 -2.96 80.015 -2.585Q79.89 -2.21 79.84 -1.99Q79.78999999999999 -1.77 79.78999999999999 -1.62Q79.78999999999999 -1.35 79.87 -1.17Q79.95 -0.99 79.95 -0.73Q79.95 -0.3 79.495 -0.045Q79.03999999999999 0.21 78.25999999999999 0.21Q77.84 0.21 77.64500000000001 0.0Q77.45 -0.21 77.475 -0.64Q77.5 -1.07 77.73 -1.74Z M98.3 -11.94 95.47 -2.81Q95.18 -1.86 95.27000000000001 -1.54Q95.36 -1.22 95.71000000000001 -1.22Q96.01 -1.22 96.345 -1.395Q96.68 -1.57 96.96000000000001 -1.9100000000000001Q97.09 -2.04 97.18 -2.075Q97.27000000000001 -2.11 97.37 -2.07Q97.49000000000001 -2.0300000000000002 97.52000000000001 -1.8850000000000002Q97.55 -1.74 97.44 -1.51Q97.26 -1.04 96.80000000000001 -0.65Q96.34 -0.26 95.72 -0.02500000000000001Q95.10000000000001 0.21 94.41 0.21Q93.74000000000001 0.21 93.415 -0.06500000000000002Q93.09 -0.34 93.075 -0.905Q93.06 -1.47 93.33 -2.34L96.19 -11.540000000000001Q96.44 -12.34 96.36 -12.655000000000001Q96.28 -12.97 96.01 -12.97Q95.85000000000001 -12.97 95.66 -12.865Q95.47 -12.76 95.21000000000001 -12.5Q95.04 -12.36 94.93 -12.315Q94.82000000000001 -12.27 94.72 -12.32Q94.60000000000001 -12.38 94.605 -12.535Q94.61 -12.69 94.72 -12.92Q94.97 -13.36 95.35 -13.684999999999999Q95.73 -14.01 96.215 -14.184999999999999Q96.7 -14.36 97.24000000000001 -14.36Q97.86 -14.36 98.17500000000001 -14.08Q98.49000000000001 -13.8 98.51500000000001 -13.260000000000002Q98.54 -12.72 98.3 -11.94Z M106.97 -2.6Q106.76 -1.79 106.83000000000001 -1.48Q106.9 -1.17 107.14 -1.17Q107.32 -1.17 107.495 -1.275Q107.67 -1.3800000000000001 107.93 -1.6300000000000001Q108.1 -1.79 108.21 -1.83Q108.32 -1.87 108.42 -1.82Q108.54 -1.76 108.54 -1.605Q108.54 -1.45 108.42 -1.22Q108.06 -0.5700000000000001 107.39500000000001 -0.18000000000000005Q106.73 0.21 106.02 0.21Q105.44 0.21 105.155 -0.08Q104.87 -0.37 104.87 -0.93Q104.87 -1.16 104.91 -1.44Q104.95 -1.72 105.05000000000001 -2.13Q105.15 -2.54 105.33000000000001 -3.16Q105.51 -3.7800000000000002 105.79 -4.68L105.98 -4.34Q105.43 -2.89 104.65 -1.87Q103.87 -0.85 102.96000000000001 -0.32Q102.05 0.21 101.11 0.21Q100.05 0.21 99.47 -0.495Q98.89 -1.2 99.04 -2.73Q99.13 -3.74 99.54499999999999 -4.705Q99.96 -5.67 100.63499999999999 -6.515000000000001Q101.31 -7.36 102.195 -8.0Q103.08 -8.64 104.125 -9.0Q105.17 -9.36 106.3 -9.36Q107.16 -9.36 107.72 -9.24Q108.28 -9.120000000000001 108.555 -8.905000000000001Q108.83 -8.69 108.81 -8.43Q108.79 -8.21 108.665 -8.085Q108.54 -7.96 108.405 -7.835Q108.27 -7.71 108.21000000000001 -7.49ZM101.16 -2.83Q101.06 -1.8 101.325 -1.38Q101.59 -0.96 102.08 -0.96Q102.54 -0.96 103.055 -1.3199999999999998Q103.57 -1.68 104.09 -2.32Q104.61 -2.96 105.065 -3.79Q105.52 -4.62 105.85 -5.58Q106.18 -6.54 106.33 -7.54Q106.42 -8.06 106.25999999999999 -8.29Q106.1 -8.52 105.75 -8.52Q105.12 -8.52 104.495 -8.2Q103.87 -7.88 103.305 -7.32Q102.74 -6.76 102.28 -6.035Q101.82 -5.3100000000000005 101.53 -4.485Q101.24 -3.66 101.16 -2.83Z M113.25000000000001 -0.55Q113.92 -0.55 114.33000000000001 -0.895Q114.74000000000001 -1.24 114.74000000000001 -1.78Q114.74000000000001 -2.08 114.61500000000001 -2.3600000000000003Q114.49000000000001 -2.64 114.14000000000001 -2.99Q113.79 -3.34 113.12 -3.83Q112.39000000000001 -4.37 111.97500000000001 -4.785Q111.56 -5.2 111.385 -5.615Q111.21000000000001 -6.03 111.21000000000001 -6.55Q111.21000000000001 -7.32 111.67500000000001 -7.96Q112.14000000000001 -8.6 113.00500000000001 -8.985Q113.87 -9.370000000000001 115.09 -9.370000000000001Q116.03 -9.370000000000001 116.68 -9.11Q117.33000000000001 -8.85 117.66500000000002 -8.42Q118.00000000000001 -7.99 118.00000000000001 -7.49Q118.01 -7.09 117.83000000000001 -6.87Q117.65 -6.65 117.33000000000001 -6.65Q117.04 -6.65 116.82000000000001 -6.835000000000001Q116.60000000000001 -7.0200000000000005 116.38000000000001 -7.5Q116.11000000000001 -8.06 115.73500000000001 -8.36Q115.36000000000001 -8.66 114.82000000000001 -8.66Q114.07000000000001 -8.66 113.625 -8.265Q113.18 -7.87 113.18 -7.2700000000000005Q113.18 -6.96 113.31 -6.66Q113.44000000000001 -6.36 113.78500000000001 -6.0Q114.13000000000001 -5.64 114.79 -5.12Q115.57000000000001 -4.53 115.99000000000001 -4.09Q116.41000000000001 -3.65 116.57000000000001 -3.255Q116.73 -2.86 116.73 -2.38Q116.73 -1.6300000000000001 116.27000000000001 -1.0450000000000002Q115.81 -0.46 114.97 -0.125Q114.13000000000001 0.21 112.97000000000001 0.21Q111.95 0.21 111.245 -0.085Q110.54 -0.38 110.17500000000001 -0.855Q109.81 -1.33 109.81 -1.85Q109.82000000000001 -2.22 109.995 -2.4400000000000004Q110.17 -2.66 110.47000000000001 -2.66Q110.79 -2.66 111.03 -2.455Q111.27000000000001 -2.25 111.49000000000001 -1.79Q111.84 -1.11 112.28 -0.8300000000000001Q112.72000000000001 -0.55 113.25000000000001 -0.55Z M120.51000000000002 -8.07 119.74000000000001 -8.23Q119.57000000000002 -8.28 119.48500000000001 -8.385Q119.40000000000002 -8.49 119.40000000000002 -8.63Q119.40000000000002 -8.81 119.55000000000001 -8.915Q119.70000000000002 -9.02 119.97000000000001 -9.02H120.84000000000002Q121.08000000000001 -9.02 121.26500000000001 -9.120000000000001Q121.45000000000002 -9.22 121.61000000000001 -9.4L122.66000000000001 -10.86Q122.80000000000001 -11.02 122.94000000000001 -11.08Q123.08000000000001 -11.14 123.24000000000001 -11.14Q123.43000000000002 -11.14 123.52500000000002 -11.045000000000002Q123.62000000000002 -10.950000000000001 123.62000000000002 -10.77Q123.62000000000002 -10.66 123.59000000000002 -10.475000000000001Q123.56000000000002 -10.290000000000001 123.48000000000002 -10.05L121.30000000000001 -2.91Q120.99000000000001 -1.8900000000000001 121.15 -1.55Q121.31000000000002 -1.21 121.86000000000001 -1.21Q122.32000000000002 -1.21 122.73000000000002 -1.4100000000000001Q123.14000000000001 -1.61 123.57000000000002 -2.1Q123.70000000000002 -2.23 123.78500000000003 -2.275Q123.87000000000002 -2.32 123.96000000000001 -2.32Q124.08000000000001 -2.32 124.15 -2.24Q124.22000000000001 -2.16 124.20000000000002 -2.02Q124.18000000000002 -1.7 123.89000000000001 -1.31Q123.60000000000001 -0.92 123.11000000000001 -0.5750000000000001Q122.62000000000002 -0.23 121.98000000000002 -0.010000000000000009Q121.34000000000002 0.21 120.60000000000001 0.21Q119.83000000000001 0.21 119.43500000000002 -0.11Q119.04000000000002 -0.43 119.00500000000002 -1.0450000000000002Q118.97000000000001 -1.6600000000000001 119.24000000000001 -2.57L120.67000000000002 -7.1000000000000005Q120.83000000000001 -7.61 120.79000000000002 -7.8100000000000005Q120.75000000000001 -8.01 120.51000000000002 -8.07ZM122.21000000000001 -8.120000000000001 122.49000000000001 -9.0H125.21000000000001Q125.58000000000001 -9.0 125.58000000000001 -8.68Q125.58000000000001 -8.42 125.35000000000002 -8.27Q125.12000000000002 -8.120000000000001 124.73000000000002 -8.120000000000001Z M135.54000000000002 -8.56Q134.86 -8.56 134.21000000000004 -8.055Q133.56000000000003 -7.55 133.08000000000004 -6.665Q132.60000000000002 -5.78 132.44000000000003 -4.63Q132.19000000000003 -2.85 132.69000000000003 -1.9500000000000002Q133.19000000000003 -1.05 134.24 -1.06Q134.74 -1.07 135.235 -1.28Q135.73000000000002 -1.49 136.13500000000002 -1.9100000000000001Q136.54000000000002 -2.33 136.77 -2.93Q136.93 -3.16 137.04500000000002 -3.2750000000000004Q137.16000000000003 -3.39 137.32000000000002 -3.38Q137.48000000000002 -3.38 137.56 -3.23Q137.64000000000001 -3.08 137.57000000000002 -2.7800000000000002Q137.49 -2.3000000000000003 137.19 -1.7800000000000002Q136.89000000000001 -1.26 136.365 -0.805Q135.84000000000003 -0.35000000000000003 135.09500000000003 -0.07000000000000002Q134.35000000000002 0.21 133.39000000000001 0.21Q131.53000000000003 0.21 130.70500000000004 -1.0150000000000001Q129.88000000000002 -2.24 130.24 -4.32Q130.42000000000002 -5.38 130.90500000000003 -6.295Q131.39000000000001 -7.21 132.13 -7.9Q132.87 -8.59 133.815 -8.98Q134.76000000000002 -9.370000000000001 135.85000000000002 -9.370000000000001Q136.72000000000003 -9.370000000000001 137.3 -9.06Q137.88000000000002 -8.75 138.16000000000003 -8.254999999999999Q138.44000000000003 -7.76 138.42000000000002 -7.17Q138.4 -6.5200000000000005 138.03000000000003 -6.175000000000001Q137.66000000000003 -5.83 137.21 -5.83Q136.8 -5.83 136.58 -6.03Q136.36 -6.23 136.37 -6.54Q136.37 -6.8100000000000005 136.45000000000002 -7.07Q136.53000000000003 -7.33 136.54000000000002 -7.62Q136.54000000000002 -8.040000000000001 136.27500000000003 -8.3Q136.01000000000002 -8.56 135.54000000000002 -8.56Z M146.99 -2.6Q146.78 -1.79 146.85000000000002 -1.48Q146.92000000000002 -1.17 147.16000000000003 -1.17Q147.34 -1.17 147.515 -1.275Q147.69 -1.3800000000000001 147.95000000000002 -1.6300000000000001Q148.12 -1.79 148.23000000000002 -1.83Q148.34 -1.87 148.44 -1.82Q148.56 -1.76 148.56 -1.605Q148.56 -1.45 148.44 -1.22Q148.08 -0.5700000000000001 147.41500000000002 -0.18000000000000005Q146.75 0.21 146.04000000000002 0.21Q145.46 0.21 145.175 -0.08Q144.89000000000001 -0.37 144.89000000000001 -0.93Q144.89000000000001 -1.16 144.93 -1.44Q144.97 -1.72 145.07 -2.13Q145.17000000000002 -2.54 145.35000000000002 -3.16Q145.53 -3.7800000000000002 145.81 -4.68L146.0 -4.34Q145.45000000000002 -2.89 144.67000000000002 -1.87Q143.89000000000001 -0.85 142.98000000000002 -0.32Q142.07000000000002 0.21 141.13000000000002 0.21Q140.07000000000002 0.21 139.49 -0.495Q138.91 -1.2 139.06 -2.73Q139.15 -3.74 139.565 -4.705Q139.98000000000002 -5.67 140.65500000000003 -6.515000000000001Q141.33 -7.36 142.21500000000003 -8.0Q143.10000000000002 -8.64 144.145 -9.0Q145.19 -9.36 146.32000000000002 -9.36Q147.18 -9.36 147.74 -9.24Q148.3 -9.120000000000001 148.57500000000002 -8.905000000000001Q148.85000000000002 -8.69 148.83 -8.43Q148.81 -8.21 148.685 -8.085Q148.56 -7.96 148.425 -7.835Q148.29000000000002 -7.71 148.23000000000002 -7.49ZM141.18 -2.83Q141.08 -1.8 141.34500000000003 -1.38Q141.61 -0.96 142.10000000000002 -0.96Q142.56 -0.96 143.075 -1.3199999999999998Q143.59 -1.68 144.11 -2.32Q144.63000000000002 -2.96 145.08500000000004 -3.79Q145.54000000000002 -4.62 145.87 -5.58Q146.20000000000002 -6.54 146.35000000000002 -7.54Q146.44 -8.06 146.28 -8.29Q146.12 -8.52 145.77 -8.52Q145.14000000000001 -8.52 144.51500000000001 -8.2Q143.89000000000001 -7.88 143.32500000000002 -7.32Q142.76000000000002 -6.76 142.3 -6.035Q141.84 -5.3100000000000005 141.55 -4.485Q141.26000000000002 -3.66 141.18 -2.83Z M155.52 -11.94 152.69000000000003 -2.81Q152.4 -1.86 152.49 -1.54Q152.58 -1.22 152.93 -1.22Q153.23000000000002 -1.22 153.565 -1.395Q153.9 -1.57 154.18 -1.9100000000000001Q154.31 -2.04 154.4 -2.075Q154.49 -2.11 154.59 -2.07Q154.71 -2.0300000000000002 154.74 -1.8850000000000002Q154.77 -1.74 154.66000000000003 -1.51Q154.48000000000002 -1.04 154.02 -0.65Q153.56 -0.26 152.94 -0.02500000000000001Q152.32000000000002 0.21 151.63000000000002 0.21Q150.96 0.21 150.635 -0.06500000000000002Q150.31 -0.34 150.29500000000002 -0.905Q150.28000000000003 -1.47 150.55 -2.34L153.41000000000003 -11.540000000000001Q153.66000000000003 -12.34 153.58000000000004 -12.655000000000001Q153.50000000000003 -12.97 153.23000000000002 -12.97Q153.07000000000002 -12.97 152.88000000000002 -12.865Q152.69000000000003 -12.76 152.43 -12.5Q152.26000000000002 -12.36 152.15000000000003 -12.315Q152.04000000000002 -12.27 151.94000000000003 -12.32Q151.82000000000002 -12.38 151.82500000000002 -12.535Q151.83 -12.69 151.94000000000003 -12.92Q152.19000000000003 -13.36 152.57000000000002 -13.684999999999999Q152.95000000000002 -14.01 153.435 -14.184999999999999Q153.92000000000002 -14.36 154.46 -14.36Q155.08 -14.36 155.395 -14.08Q155.71 -13.8 155.735 -13.260000000000002Q155.76000000000002 -12.72 155.52 -11.94Z M161.82000000000002 -11.94 158.99000000000004 -2.81Q158.70000000000002 -1.86 158.79000000000002 -1.54Q158.88000000000002 -1.22 159.23000000000002 -1.22Q159.53000000000003 -1.22 159.865 -1.395Q160.20000000000002 -1.57 160.48000000000002 -1.9100000000000001Q160.61 -2.04 160.70000000000002 -2.075Q160.79000000000002 -2.11 160.89000000000001 -2.07Q161.01000000000002 -2.0300000000000002 161.04000000000002 -1.8850000000000002Q161.07000000000002 -1.74 160.96000000000004 -1.51Q160.78000000000003 -1.04 160.32000000000002 -0.65Q159.86 -0.26 159.24 -0.02500000000000001Q158.62000000000003 0.21 157.93000000000004 0.21Q157.26000000000002 0.21 156.935 -0.06500000000000002Q156.61 -0.34 156.59500000000003 -0.905Q156.58000000000004 -1.47 156.85000000000002 -2.34L159.71000000000004 -11.540000000000001Q159.96000000000004 -12.34 159.88000000000005 -12.655000000000001Q159.80000000000004 -12.97 159.53000000000003 -12.97Q159.37000000000003 -12.97 159.18000000000004 -12.865Q158.99000000000004 -12.76 158.73000000000002 -12.5Q158.56000000000003 -12.36 158.45000000000005 -12.315Q158.34000000000003 -12.27 158.24000000000004 -12.32Q158.12000000000003 -12.38 158.12500000000003 -12.535Q158.13000000000002 -12.69 158.24000000000004 -12.92Q158.49000000000004 -13.36 158.87000000000003 -13.684999999999999Q159.25000000000003 -14.01 159.735 -14.184999999999999Q160.22000000000003 -14.36 160.76000000000002 -14.36Q161.38000000000002 -14.36 161.69500000000002 -14.08Q162.01000000000002 -13.8 162.03500000000003 -13.260000000000002Q162.06000000000003 -12.72 161.82000000000002 -11.94Z M168.72000000000006 -8.07 167.95000000000005 -8.23Q167.78000000000006 -8.28 167.69500000000005 -8.385Q167.61000000000004 -8.49 167.61000000000004 -8.63Q167.61000000000004 -8.81 167.76000000000005 -8.915Q167.91000000000005 -9.02 168.18000000000006 -9.02H169.05000000000004Q169.29000000000005 -9.02 169.47500000000005 -9.120000000000001Q169.66000000000005 -9.22 169.82000000000005 -9.4L170.87000000000006 -10.86Q171.01000000000005 -11.02 171.15000000000003 -11.08Q171.29000000000005 -11.14 171.45000000000005 -11.14Q171.64000000000004 -11.14 171.73500000000004 -11.045000000000002Q171.83000000000004 -10.950000000000001 171.83000000000004 -10.77Q171.83000000000004 -10.66 171.80000000000004 -10.475000000000001Q171.77000000000004 -10.290000000000001 171.69000000000005 -10.05L169.51000000000005 -2.91Q169.20000000000005 -1.8900000000000001 169.36000000000004 -1.55Q169.52000000000004 -1.21 170.07000000000005 -1.21Q170.53000000000006 -1.21 170.94000000000005 -1.4100000000000001Q171.35000000000005 -1.61 171.78000000000006 -2.1Q171.91000000000005 -2.23 171.99500000000006 -2.275Q172.08000000000004 -2.32 172.17000000000004 -2.32Q172.29000000000005 -2.32 172.36000000000007 -2.24Q172.43000000000006 -2.16 172.41000000000005 -2.02Q172.39000000000004 -1.7 172.10000000000005 -1.31Q171.81000000000006 -0.92 171.32000000000005 -0.5750000000000001Q170.83000000000004 -0.23 170.19000000000005 -0.010000000000000009Q169.55000000000004 0.21 168.81000000000006 0.21Q168.04000000000005 0.21 167.64500000000004 -0.11Q167.25000000000006 -0.43 167.21500000000006 -1.0450000000000002Q167.18000000000006 -1.6600000000000001 167.45000000000005 -2.57L168.88000000000005 -7.1000000000000005Q169.04000000000005 -7.61 169.00000000000006 -7.8100000000000005Q168.96000000000006 -8.01 168.72000000000006 -8.07ZM170.42000000000004 -8.120000000000001 170.70000000000005 -9.0H173.42000000000004Q173.79000000000005 -9.0 173.79000000000005 -8.68Q173.79000000000005 -8.42 173.56000000000006 -8.27Q173.33000000000004 -8.120000000000001 172.94000000000005 -8.120000000000001Z M179.66000000000005 -9.370000000000001Q180.90000000000003 -9.34 181.77500000000003 -8.77Q182.65000000000003 -8.2 183.02500000000003 -7.16Q183.40000000000003 -6.12 183.14000000000004 -4.66Q182.94000000000005 -3.5700000000000003 182.42500000000004 -2.66Q181.91000000000003 -1.75 181.15000000000003 -1.095Q180.39000000000004 -0.44 179.46000000000004 -0.095Q178.53000000000003 0.25 177.49000000000004 0.21Q176.28000000000003 0.17 175.42000000000002 -0.39499999999999996Q174.56000000000003 -0.96 174.19500000000005 -2.01Q173.83000000000004 -3.06 174.08000000000004 -4.5Q174.29000000000005 -5.6000000000000005 174.79500000000004 -6.51Q175.30000000000004 -7.42 176.04500000000004 -8.07Q176.79000000000005 -8.72 177.71000000000004 -9.065000000000001Q178.63000000000005 -9.41 179.66000000000005 -9.370000000000001ZM177.53000000000003 -0.64Q177.96000000000004 -0.59 178.38000000000005 -0.74Q178.80000000000004 -0.89 179.18500000000006 -1.215Q179.57000000000005 -1.54 179.89500000000004 -2.035Q180.22000000000003 -2.5300000000000002 180.47500000000002 -3.1900000000000004Q180.73000000000005 -3.85 180.90000000000003 -4.66Q181.16000000000005 -5.91 181.07000000000005 -6.75Q180.98000000000005 -7.59 180.60500000000005 -8.030000000000001Q180.23000000000005 -8.47 179.62000000000003 -8.52Q179.19000000000003 -8.57 178.78500000000003 -8.42Q178.38000000000005 -8.27 178.00500000000005 -7.945Q177.63000000000005 -7.62 177.31000000000006 -7.125Q176.99000000000004 -6.63 176.74000000000004 -5.970000000000001Q176.49000000000004 -5.3100000000000005 176.32000000000005 -4.51Q176.06000000000003 -3.25 176.14500000000004 -2.415Q176.23000000000005 -1.58 176.59000000000003 -1.1400000000000001Q176.95000000000005 -0.7000000000000001 177.53000000000003 -0.64Z M191.78000000000006 -7.7700000000000005 192.13000000000005 -8.76H194.60000000000005Q194.87000000000006 -8.76 195.01500000000004 -8.68Q195.16000000000005 -8.6 195.16000000000005 -8.39Q195.16000000000005 -8.22 195.03000000000006 -8.075000000000001Q194.90000000000006 -7.930000000000001 194.67500000000007 -7.8500000000000005Q194.45000000000005 -7.7700000000000005 194.16000000000005 -7.7700000000000005ZM189.13000000000005 -8.370000000000001Q189.13000000000005 -8.55 189.27000000000004 -8.66Q189.41000000000005 -8.77 189.70000000000005 -8.77H190.91000000000005L191.38000000000005 -10.71Q191.78000000000006 -12.43 192.71500000000006 -13.344999999999999Q193.65000000000006 -14.26 195.21000000000006 -14.26Q196.11000000000007 -14.26 196.54000000000008 -13.915Q196.97000000000006 -13.57 196.97000000000006 -13.11Q196.97000000000006 -12.64 196.69000000000005 -12.345Q196.41000000000005 -12.05 195.95000000000005 -12.05Q195.65000000000006 -12.05 195.39000000000004 -12.185Q195.13000000000005 -12.32 194.89000000000004 -12.485Q194.65000000000006 -12.65 194.40500000000006 -12.785Q194.16000000000005 -12.92 193.88000000000005 -12.92Q193.40000000000006 -12.92 193.07500000000005 -12.59Q192.75000000000006 -12.26 192.63000000000005 -11.72Q192.56000000000006 -11.4 192.61500000000007 -11.015Q192.67000000000004 -10.63 192.77000000000004 -10.22Q192.87000000000006 -9.81 192.91000000000005 -9.4Q192.95000000000005 -8.99 192.85000000000005 -8.61L190.36000000000004 0.59Q190.28000000000006 0.88 190.24000000000007 1.115Q190.20000000000005 1.35 190.20000000000005 1.55Q190.20000000000005 1.8 190.32500000000005 1.96Q190.45000000000005 2.12 190.57000000000005 2.265Q190.69000000000005 2.41 190.69000000000005 2.63Q190.69000000000005 2.92 190.40000000000003 3.17Q190.11000000000004 3.42 189.65500000000003 3.5700000000000003Q189.20000000000005 3.72 188.69000000000005 3.72Q188.09000000000006 3.72 187.91000000000005 3.2800000000000002Q187.73000000000005 2.84 187.98000000000005 1.94L190.43000000000006 -6.72Q190.60000000000005 -7.29 190.45000000000005 -7.550000000000001Q190.30000000000007 -7.8100000000000005 189.64000000000004 -7.890000000000001Q189.33000000000007 -8.01 189.23000000000008 -8.125Q189.13000000000005 -8.24 189.13000000000005 -8.370000000000001ZM197.88000000000005 -2.61Q197.59000000000003 -1.83 197.67000000000004 -1.51Q197.75000000000006 -1.19 198.01000000000005 -1.19Q198.18000000000004 -1.19 198.36500000000004 -1.295Q198.55000000000004 -1.4000000000000001 198.81000000000003 -1.6600000000000001Q198.98000000000005 -1.81 199.09000000000003 -1.85Q199.20000000000005 -1.8900000000000001 199.30000000000004 -1.84Q199.42000000000004 -1.78 199.41500000000005 -1.625Q199.41000000000005 -1.47 199.30000000000004 -1.24Q198.94000000000005 -0.58 198.26500000000004 -0.18999999999999997Q197.59000000000003 0.2 196.78000000000003 0.2Q196.16000000000005 0.2 195.84000000000003 -0.08499999999999999Q195.52000000000004 -0.37 195.51000000000005 -0.9099999999999999Q195.50000000000006 -1.45 195.78000000000003 -2.22L197.40000000000003 -6.55Q197.69000000000005 -7.33 197.61000000000004 -7.65Q197.53000000000003 -7.97 197.26000000000005 -7.97Q197.10000000000005 -7.97 196.91500000000005 -7.865Q196.73000000000005 -7.76 196.46000000000004 -7.5Q196.29000000000005 -7.36 196.18000000000006 -7.315Q196.07000000000005 -7.2700000000000005 195.97000000000006 -7.32Q195.85000000000005 -7.38 195.85500000000005 -7.535Q195.86000000000004 -7.69 195.98000000000005 -7.92Q196.33000000000004 -8.57 196.99500000000006 -8.965Q197.66000000000005 -9.36 198.47000000000006 -9.36Q199.05000000000004 -9.36 199.37000000000006 -9.08Q199.69000000000005 -8.8 199.72000000000006 -8.245000000000001Q199.75000000000006 -7.69 199.45000000000005 -6.88ZM199.21000000000004 -11.27Q198.56000000000003 -11.27 198.22000000000003 -11.625Q197.88000000000005 -11.98 197.94000000000005 -12.48Q197.98000000000005 -12.88 198.23000000000005 -13.21Q198.48000000000005 -13.540000000000001 198.89000000000004 -13.74Q199.30000000000004 -13.94 199.82000000000005 -13.94Q200.50000000000006 -13.94 200.81500000000005 -13.585Q201.13000000000005 -13.23 201.06000000000003 -12.72Q201.03000000000003 -12.32 200.77500000000003 -11.99Q200.52000000000004 -11.66 200.12000000000006 -11.465Q199.72000000000006 -11.27 199.21000000000004 -11.27Z M202.14000000000004 -7.32Q202.02000000000004 -7.38 202.02000000000004 -7.535Q202.02000000000004 -7.69 202.14000000000004 -7.92Q202.38000000000005 -8.36 202.77000000000004 -8.684999999999999Q203.16000000000005 -9.01 203.64000000000004 -9.184999999999999Q204.12000000000003 -9.36 204.65000000000003 -9.36Q205.16000000000005 -9.36 205.44500000000005 -9.115Q205.73000000000005 -8.870000000000001 205.73000000000005 -8.38Q205.73000000000005 -7.96 205.55000000000004 -7.4Q205.37000000000003 -6.84 205.13500000000005 -6.245Q204.90000000000003 -5.65 204.71000000000004 -5.105Q204.52000000000004 -4.5600000000000005 204.50000000000006 -4.18L204.34000000000003 -4.19Q204.66000000000005 -5.38 205.15000000000003 -6.335Q205.64000000000004 -7.29 206.23000000000005 -7.965Q206.82000000000005 -8.64 207.45500000000004 -9.0Q208.09000000000003 -9.36 208.70000000000005 -9.36Q209.46000000000004 -9.36 209.84500000000003 -8.934999999999999Q210.23000000000005 -8.51 210.22000000000006 -7.8100000000000005Q210.20000000000005 -7.28 210.01000000000005 -6.9Q209.82000000000005 -6.5200000000000005 209.52000000000004 -6.32Q209.22000000000006 -6.12 208.87000000000003 -6.12Q208.49000000000004 -6.12 208.31000000000006 -6.300000000000001Q208.13000000000005 -6.48 208.13000000000005 -6.72Q208.13000000000005 -6.93 208.19500000000005 -7.13Q208.26000000000005 -7.33 208.26000000000005 -7.55Q208.26000000000005 -7.8 208.14500000000004 -7.949999999999999Q208.03000000000006 -8.1 207.77000000000004 -8.1Q207.33000000000004 -8.1 206.76500000000004 -7.574999999999999Q206.20000000000005 -7.05 205.62500000000006 -6.029999999999999Q205.05000000000004 -5.01 204.57000000000005 -3.5Q204.34000000000003 -2.8000000000000003 204.23000000000002 -2.3850000000000002Q204.12000000000003 -1.97 204.12000000000003 -1.6400000000000001Q204.12000000000003 -1.3900000000000001 204.22000000000003 -1.2550000000000001Q204.32000000000005 -1.12 204.42000000000004 -1.0Q204.52000000000004 -0.88 204.52000000000004 -0.65Q204.52000000000004 -0.41000000000000003 204.30500000000004 -0.21000000000000002Q204.09000000000003 -0.01 203.67500000000004 0.105Q203.26000000000005 0.22 202.66000000000005 0.22Q202.19000000000005 0.22 201.97000000000006 0.009999999999999995Q201.75000000000006 -0.2 201.76000000000005 -0.63Q201.77000000000004 -1.06 201.99000000000004 -1.71L203.59000000000003 -6.55Q203.85000000000005 -7.33 203.77500000000003 -7.65Q203.70000000000005 -7.97 203.43000000000004 -7.97Q203.27000000000004 -7.97 203.08000000000004 -7.865Q202.89000000000004 -7.76 202.63000000000005 -7.5Q202.46000000000004 -7.36 202.35000000000002 -7.315Q202.24000000000004 -7.2700000000000005 202.14000000000004 -7.32Z M213.66000000000003 -0.55Q214.33000000000004 -0.55 214.74000000000004 -0.895Q215.15000000000003 -1.24 215.15000000000003 -1.78Q215.15000000000003 -2.08 215.02500000000003 -2.3600000000000003Q214.90000000000003 -2.64 214.55000000000004 -2.99Q214.20000000000005 -3.34 213.53000000000003 -3.83Q212.80000000000004 -4.37 212.38500000000005 -4.785Q211.97000000000003 -5.2 211.79500000000002 -5.615Q211.62000000000003 -6.03 211.62000000000003 -6.55Q211.62000000000003 -7.32 212.08500000000004 -7.96Q212.55000000000004 -8.6 213.41500000000002 -8.985Q214.28000000000003 -9.370000000000001 215.50000000000003 -9.370000000000001Q216.44000000000003 -9.370000000000001 217.09000000000003 -9.11Q217.74000000000004 -8.85 218.07500000000005 -8.42Q218.41000000000003 -7.99 218.41000000000003 -7.49Q218.42000000000004 -7.09 218.24000000000004 -6.87Q218.06000000000003 -6.65 217.74000000000004 -6.65Q217.45000000000005 -6.65 217.23000000000005 -6.835000000000001Q217.01000000000005 -7.0200000000000005 216.79000000000002 -7.5Q216.52000000000004 -8.06 216.14500000000004 -8.36Q215.77000000000004 -8.66 215.23000000000005 -8.66Q214.48000000000005 -8.66 214.03500000000003 -8.265Q213.59000000000003 -7.87 213.59000000000003 -7.2700000000000005Q213.59000000000003 -6.96 213.72000000000003 -6.66Q213.85000000000002 -6.36 214.19500000000002 -6.0Q214.54000000000002 -5.64 215.20000000000005 -5.12Q215.98000000000005 -4.53 216.40000000000003 -4.09Q216.82000000000002 -3.65 216.98000000000002 -3.255Q217.14000000000004 -2.86 217.14000000000004 -2.38Q217.14000000000004 -1.6300000000000001 216.68000000000004 -1.0450000000000002Q216.22000000000003 -0.46 215.38000000000002 -0.125Q214.54000000000002 0.21 213.38000000000002 0.21Q212.36000000000004 0.21 211.65500000000003 -0.085Q210.95000000000005 -0.38 210.58500000000004 -0.855Q210.22000000000003 -1.33 210.22000000000003 -1.85Q210.23000000000005 -2.22 210.40500000000003 -2.4400000000000004Q210.58000000000004 -2.66 210.88000000000002 -2.66Q211.20000000000005 -2.66 211.44000000000005 -2.455Q211.68000000000004 -2.25 211.90000000000003 -1.79Q212.25000000000003 -1.11 212.69000000000003 -0.8300000000000001Q213.13000000000002 -0.55 213.66000000000003 -0.55Z M220.92000000000004 -8.07 220.15000000000003 -8.23Q219.98000000000005 -8.28 219.89500000000004 -8.385Q219.81000000000003 -8.49 219.81000000000003 -8.63Q219.81000000000003 -8.81 219.96000000000004 -8.915Q220.11000000000004 -9.02 220.38000000000005 -9.02H221.25000000000003Q221.49000000000004 -9.02 221.67500000000004 -9.120000000000001Q221.86000000000004 -9.22 222.02000000000004 -9.4L223.07000000000005 -10.86Q223.21000000000004 -11.02 223.35000000000002 -11.08Q223.49000000000004 -11.14 223.65000000000003 -11.14Q223.84000000000003 -11.14 223.93500000000003 -11.045000000000002Q224.03000000000003 -10.950000000000001 224.03000000000003 -10.77Q224.03000000000003 -10.66 224.00000000000003 -10.475000000000001Q223.97000000000003 -10.290000000000001 223.89000000000004 -10.05L221.71000000000004 -2.91Q221.40000000000003 -1.8900000000000001 221.56000000000003 -1.55Q221.72000000000003 -1.21 222.27000000000004 -1.21Q222.73000000000005 -1.21 223.14000000000004 -1.4100000000000001Q223.55000000000004 -1.61 223.98000000000005 -2.1Q224.11000000000004 -2.23 224.19500000000005 -2.275Q224.28000000000003 -2.32 224.37000000000003 -2.32Q224.49000000000004 -2.32 224.56000000000006 -2.24Q224.63000000000005 -2.16 224.61000000000004 -2.02Q224.59000000000003 -1.7 224.30000000000004 -1.31Q224.01000000000005 -0.92 223.52000000000004 -0.5750000000000001Q223.03000000000003 -0.23 222.39000000000004 -0.010000000000000009Q221.75000000000003 0.21 221.01000000000005 0.21Q220.24000000000004 0.21 219.84500000000003 -0.11Q219.45000000000005 -0.43 219.41500000000005 -1.0450000000000002Q219.38000000000005 -1.6600000000000001 219.65000000000003 -2.57L221.08000000000004 -7.1000000000000005Q221.24000000000004 -7.61 221.20000000000005 -7.8100000000000005Q221.16000000000005 -8.01 220.92000000000004 -8.07ZM222.62000000000003 -8.120000000000001 222.90000000000003 -9.0H225.62000000000003Q225.99000000000004 -9.0 225.99000000000004 -8.68Q225.99000000000004 -8.42 225.76000000000005 -8.27Q225.53000000000003 -8.120000000000001 225.14000000000004 -8.120000000000001Z M235.95000000000005 -8.56Q235.27000000000004 -8.56 234.62000000000006 -8.055Q233.97000000000006 -7.55 233.49000000000007 -6.665Q233.01000000000005 -5.78 232.85000000000005 -4.63Q232.60000000000005 -2.85 233.10000000000005 -1.9500000000000002Q233.60000000000005 -1.05 234.65000000000003 -1.06Q235.15000000000003 -1.07 235.64500000000004 -1.28Q236.14000000000004 -1.49 236.54500000000004 -1.9100000000000001Q236.95000000000005 -2.33 237.18000000000004 -2.93Q237.34000000000003 -3.16 237.45500000000004 -3.2750000000000004Q237.57000000000005 -3.39 237.73000000000005 -3.38Q237.89000000000004 -3.38 237.97000000000003 -3.23Q238.05000000000004 -3.08 237.98000000000005 -2.7800000000000002Q237.90000000000003 -2.3000000000000003 237.60000000000002 -1.7800000000000002Q237.30000000000004 -1.26 236.77500000000003 -0.805Q236.25000000000006 -0.35000000000000003 235.50500000000005 -0.07000000000000002Q234.76000000000005 0.21 233.80000000000004 0.21Q231.94000000000005 0.21 231.11500000000007 -1.0150000000000001Q230.29000000000005 -2.24 230.65000000000003 -4.32Q230.83000000000004 -5.38 231.31500000000005 -6.295Q231.80000000000004 -7.21 232.54000000000002 -7.9Q233.28000000000003 -8.59 234.22500000000002 -8.98Q235.17000000000004 -9.370000000000001 236.26000000000005 -9.370000000000001Q237.13000000000005 -9.370000000000001 237.71000000000004 -9.06Q238.29000000000005 -8.75 238.57000000000005 -8.254999999999999Q238.85000000000005 -7.76 238.83000000000004 -7.17Q238.81000000000003 -6.5200000000000005 238.44000000000005 -6.175000000000001Q238.07000000000005 -5.83 237.62000000000003 -5.83Q237.21000000000004 -5.83 236.99000000000004 -6.03Q236.77000000000004 -6.23 236.78000000000003 -6.54Q236.78000000000003 -6.8100000000000005 236.86000000000004 -7.07Q236.94000000000005 -7.33 236.95000000000005 -7.62Q236.95000000000005 -8.040000000000001 236.68500000000006 -8.3Q236.42000000000004 -8.56 235.95000000000005 -8.56Z M247.40000000000003 -2.6Q247.19000000000003 -1.79 247.26000000000005 -1.48Q247.33000000000004 -1.17 247.57000000000005 -1.17Q247.75000000000003 -1.17 247.925 -1.275Q248.10000000000002 -1.3800000000000001 248.36000000000004 -1.6300000000000001Q248.53000000000003 -1.79 248.64000000000004 -1.83Q248.75000000000003 -1.87 248.85000000000002 -1.82Q248.97000000000003 -1.76 248.97000000000003 -1.605Q248.97000000000003 -1.45 248.85000000000002 -1.22Q248.49000000000004 -0.5700000000000001 247.82500000000005 -0.18000000000000005Q247.16000000000003 0.21 246.45000000000005 0.21Q245.87000000000003 0.21 245.58500000000004 -0.08Q245.30000000000004 -0.37 245.30000000000004 -0.93Q245.30000000000004 -1.16 245.34000000000003 -1.44Q245.38000000000002 -1.72 245.48000000000002 -2.13Q245.58000000000004 -2.54 245.76000000000005 -3.16Q245.94000000000003 -3.7800000000000002 246.22000000000003 -4.68L246.41000000000003 -4.34Q245.86000000000004 -2.89 245.08000000000004 -1.87Q244.30000000000004 -0.85 243.39000000000004 -0.32Q242.48000000000005 0.21 241.54000000000005 0.21Q240.48000000000005 0.21 239.90000000000003 -0.495Q239.32000000000002 -1.2 239.47000000000003 -2.73Q239.56000000000003 -3.74 239.97500000000002 -4.705Q240.39000000000004 -5.67 241.06500000000005 -6.515000000000001Q241.74000000000004 -7.36 242.62500000000006 -8.0Q243.51000000000005 -8.64 244.55500000000004 -9.0Q245.60000000000002 -9.36 246.73000000000005 -9.36Q247.59000000000003 -9.36 248.15000000000003 -9.24Q248.71000000000004 -9.120000000000001 248.98500000000004 -8.905000000000001Q249.26000000000005 -8.69 249.24000000000004 -8.43Q249.22000000000003 -8.21 249.09500000000003 -8.085Q248.97000000000003 -7.96 248.83500000000004 -7.835Q248.70000000000005 -7.71 248.64000000000004 -7.49ZM241.59000000000003 -2.83Q241.49000000000004 -1.8 241.75500000000005 -1.38Q242.02000000000004 -0.96 242.51000000000005 -0.96Q242.97000000000003 -0.96 243.485 -1.3199999999999998Q244.00000000000003 -1.68 244.52000000000004 -2.32Q245.04000000000005 -2.96 245.49500000000006 -3.79Q245.95000000000005 -4.62 246.28000000000003 -5.58Q246.61000000000004 -6.54 246.76000000000005 -7.54Q246.85000000000002 -8.06 246.69000000000003 -8.29Q246.53000000000003 -8.52 246.18000000000004 -8.52Q245.55000000000004 -8.52 244.92500000000004 -8.2Q244.30000000000004 -7.88 243.73500000000004 -7.32Q243.17000000000004 -6.76 242.71000000000004 -6.035Q242.25000000000003 -5.3100000000000005 241.96000000000004 -4.485Q241.67000000000004 -3.66 241.59000000000003 -2.83Z M255.93000000000004 -11.94 253.10000000000005 -2.81Q252.81000000000003 -1.86 252.90000000000003 -1.54Q252.99000000000004 -1.22 253.34000000000003 -1.22Q253.64000000000004 -1.22 253.97500000000002 -1.395Q254.31000000000003 -1.57 254.59000000000003 -1.9100000000000001Q254.72000000000003 -2.04 254.81000000000003 -2.075Q254.90000000000003 -2.11 255.00000000000003 -2.07Q255.12000000000003 -2.0300000000000002 255.15000000000003 -1.8850000000000002Q255.18000000000004 -1.74 255.07000000000005 -1.51Q254.89000000000004 -1.04 254.43000000000004 -0.65Q253.97000000000003 -0.26 253.35000000000002 -0.02500000000000001Q252.73000000000005 0.21 252.04000000000005 0.21Q251.37000000000003 0.21 251.04500000000002 -0.06500000000000002Q250.72000000000003 -0.34 250.70500000000004 -0.905Q250.69000000000005 -1.47 250.96000000000004 -2.34L253.82000000000005 -11.540000000000001Q254.07000000000005 -12.34 253.99000000000007 -12.655000000000001Q253.91000000000005 -12.97 253.64000000000004 -12.97Q253.48000000000005 -12.97 253.29000000000005 -12.865Q253.10000000000005 -12.76 252.84000000000003 -12.5Q252.67000000000004 -12.36 252.56000000000006 -12.315Q252.45000000000005 -12.27 252.35000000000005 -12.32Q252.23000000000005 -12.38 252.23500000000004 -12.535Q252.24000000000004 -12.69 252.35000000000005 -12.92Q252.60000000000005 -13.36 252.98000000000005 -13.684999999999999Q253.36000000000004 -14.01 253.84500000000003 -14.184999999999999Q254.33000000000004 -14.36 254.87000000000003 -14.36Q255.49000000000004 -14.36 255.80500000000006 -14.08Q256.12000000000006 -13.8 256.14500000000004 -13.260000000000002Q256.17 -12.72 255.93000000000004 -11.94Z M262.2300000000001 -11.94 259.40000000000003 -2.81Q259.11000000000007 -1.86 259.20000000000005 -1.54Q259.2900000000001 -1.22 259.64000000000004 -1.22Q259.94000000000005 -1.22 260.2750000000001 -1.395Q260.61000000000007 -1.57 260.89000000000004 -1.9100000000000001Q261.02000000000004 -2.04 261.11 -2.075Q261.20000000000005 -2.11 261.30000000000007 -2.07Q261.4200000000001 -2.0300000000000002 261.45000000000005 -1.8850000000000002Q261.4800000000001 -1.74 261.37000000000006 -1.51Q261.19000000000005 -1.04 260.73 -0.65Q260.27000000000004 -0.26 259.65000000000003 -0.02500000000000001Q259.03000000000003 0.21 258.34000000000003 0.21Q257.6700000000001 0.21 257.345 -0.06500000000000002Q257.02000000000004 -0.34 257.00500000000005 -0.905Q256.99000000000007 -1.47 257.26000000000005 -2.34L260.12000000000006 -11.540000000000001Q260.37000000000006 -12.34 260.2900000000001 -12.655000000000001Q260.21000000000004 -12.97 259.94000000000005 -12.97Q259.78000000000003 -12.97 259.59000000000003 -12.865Q259.40000000000003 -12.76 259.14000000000004 -12.5Q258.97 -12.36 258.86 -12.315Q258.75000000000006 -12.27 258.65000000000003 -12.32Q258.53000000000003 -12.38 258.5350000000001 -12.535Q258.5400000000001 -12.69 258.65000000000003 -12.92Q258.90000000000003 -13.36 259.28000000000003 -13.684999999999999Q259.66 -14.01 260.14500000000004 -14.184999999999999Q260.63000000000005 -14.36 261.1700000000001 -14.36Q261.7900000000001 -14.36 262.1050000000001 -14.08Q262.4200000000001 -13.8 262.44500000000005 -13.260000000000002Q262.47 -12.72 262.2300000000001 -11.94Z M263.9700000000001 0.16Q263.37000000000006 0.16 263.0450000000001 -0.175Q262.7200000000001 -0.51 262.7800000000001 -1.0Q262.82000000000005 -1.3800000000000001 263.06500000000005 -1.705Q263.31000000000006 -2.0300000000000002 263.71500000000003 -2.225Q264.12000000000006 -2.42 264.63000000000005 -2.42Q265.26000000000005 -2.42 265.55000000000007 -2.08Q265.8400000000001 -1.74 265.7800000000001 -1.23Q265.75000000000006 -0.86 265.51000000000005 -0.54Q265.27000000000004 -0.22 264.87500000000006 -0.03Q264.4800000000001 0.16 263.9700000000001 0.16Z"/>
</svg>
