<svg xmlns="http://www.w3.org/2000/svg" viewBox="0 0 240 240" role="img" aria-label="Concept 4 — Night &amp; Morning token: starry night above the horizon, sunrise and coffee below">
<circle cx="120" cy="120" r="96" fill="#faf5eb" stroke="#241a10" stroke-width="4"/><path d="M26 120 A94 94 0 0 1 214 120 Z" fill="#101a30"/><path d="M84 72 l2.6 7 7 2.6 -7 2.6 -2.6 7 -2.6 -7 -7 -2.6 7 -2.6 Z" fill="#faf5eb"/><circle cx="152" cy="60" r="2.6" fill="#faf5eb"/><circle cx="126" cy="46" r="1.8" fill="#faf5eb"/><path d="M96 120 A24 24 0 0 1 144 120 Z" fill="#ff8200"/><line x1="147.0" y1="101.1" x2="155.2" y2="95.3" stroke="#ff8200" stroke-width="6.5" stroke-linecap="round"/><line x1="120.0" y1="87.0" x2="120.0" y2="77.0" stroke="#ff8200" stroke-width="6.5" stroke-linecap="round"/><line x1="93.0" y1="101.1" x2="84.8" y2="95.3" stroke="#ff8200" stroke-width="6.5" stroke-linecap="round"/><line x1="28" y1="120" x2="212" y2="120" stroke="#241a10" stroke-width="4"/><path d="M96 152 L96 158 A24 24 0 0 0 144 158 L144 152" fill="none" stroke="#241a10" stroke-width="7" stroke-linecap="round"/><line x1="90" y1="152" x2="150" y2="152" stroke="#241a10" stroke-width="7" stroke-linecap="round"/><path d="M146 158 C160 158 160 172 144 173" fill="none" stroke="#241a10" stroke-width="6" stroke-linecap="round"/>
</svg>
