<svg xmlns="http://www.w3.org/2000/svg" viewBox="0 0 790 240" role="img" aria-label="Concept 1 lockup — First Light mark with wordmark">
<path d="M94 106 A26 26 0 0 1 146 106 Z" fill="#ff8200"/><line x1="152.9" y1="87.0" x2="163.3" y2="81.0" stroke="#ff8200" stroke-width="8" stroke-linecap="round"/><line x1="136.1" y1="71.6" x2="141.1" y2="60.7" stroke="#ff8200" stroke-width="8" stroke-linecap="round"/><line x1="120.0" y1="68.0" x2="120.0" y2="56.0" stroke="#ff8200" stroke-width="8" stroke-linecap="round"/><line x1="103.9" y1="71.6" x2="98.9" y2="60.7" stroke="#ff8200" stroke-width="8" stroke-linecap="round"/><line x1="87.1" y1="87.0" x2="76.7" y2="81.0" stroke="#ff8200" stroke-width="8" stroke-linecap="round"/><path d="M62 106 L62 124 A58 58 0 0 0 178 124 L178 106" fill="none" stroke="#241a10" stroke-width="11" stroke-linecap="round" stroke-linejoin="round"/><line x1="50" y1="106" x2="190" y2="106" stroke="#241a10" stroke-width="11" stroke-linecap="round"/><path d="M182 122 C206 122 206 152 178 154" fill="none" stroke="#241a10" stroke-width="10" stroke-linecap="round"/><line x1="86" y1="196" x2="154" y2="196" stroke="#241a10" stroke-width="11" stroke-linecap="round"/><path transform="translate(264.00,118.00)" fill="#241a10" d="M15.708 -16.072 29.848 -29.344Q31.36 -30.772000000000002 31.864 -31.85Q32.368 -32.928 32.046 -33.698Q31.724 -34.468 30.716 -34.916000000000004L29.904 -35.28Q29.176000000000002 -35.616 28.826 -36.092Q28.476 -36.568 28.476 -37.296Q28.476 -38.192 29.064 -38.696Q29.652 -39.2 30.884 -39.2H43.232Q44.464 -39.2 45.052 -38.696Q45.64 -38.192 45.64 -37.296Q45.64 -36.54 45.206 -36.120000000000005Q44.772 -35.7 43.54 -35.168Q43.148 -35.0 42.714 -34.734Q42.28 -34.468 41.524 -33.866Q40.768 -33.264 39.452 -32.102000000000004Q38.136 -30.94 35.952 -28.98L17.444 -12.32ZM21.224 -19.544 31.220000000000002 -27.832 44.1 -6.328Q44.772 -5.208 45.29 -4.774Q45.808 -4.34 46.34 -4.144Q47.096000000000004 -3.7520000000000002 47.418000000000006 -3.178Q47.74 -2.604 47.74 -1.9040000000000001Q47.74 -1.036 47.152 -0.518Q46.564 0.0 45.332 0.0H29.512Q28.28 0.0 27.692 -0.518Q27.104 -1.036 27.104 -1.932Q27.104 -2.66 27.439999999999998 -3.164Q27.776 -3.668 28.308 -3.864L29.036 -4.144Q29.54 -4.34 29.526 -4.872Q29.512 -5.404 28.84 -6.5520000000000005ZM19.432000000000002 -6.216Q19.432000000000002 -5.516 19.698 -5.096Q19.964000000000002 -4.676 20.580000000000002 -4.368L21.364 -3.976Q22.232 -3.556 22.526 -3.0940000000000003Q22.82 -2.632 22.82 -1.9040000000000001Q22.82 -1.036 22.232 -0.518Q21.644000000000002 0.0 20.412 0.0H4.9Q3.668 0.0 3.08 -0.518Q2.492 -1.036 2.492 -1.9040000000000001Q2.492 -3.416 3.948 -3.976L5.0120000000000005 -4.368Q5.74 -4.648 6.09 -5.082Q6.44 -5.516 6.44 -6.216V-32.984Q6.44 -33.684 6.09 -34.117999999999995Q5.74 -34.552 5.0120000000000005 -34.832L3.948 -35.224000000000004Q2.492 -35.784 2.492 -37.296Q2.492 -38.192 3.08 -38.696Q3.668 -39.2 4.9 -39.2H20.972Q22.204 -39.2 22.792 -38.696Q23.38 -38.192 23.38 -37.296Q23.38 -35.784 21.924 -35.224000000000004L20.86 -34.832Q20.16 -34.552 19.796 -34.117999999999995Q19.432000000000002 -33.684 19.432000000000002 -32.984Z M64.54 -25.312V-5.88Q64.54 -4.76 64.708 -4.311999999999999Q64.876 -3.864 65.296 -3.64L65.85600000000001 -3.332Q66.78 -2.8000000000000003 66.78 -1.792Q66.78 0.0 64.624 0.0H52.220000000000006Q51.1 0.0 50.596000000000004 -0.448Q50.092000000000006 -0.896 50.092000000000006 -1.68Q50.092000000000006 -2.24 50.372 -2.66Q50.652 -3.08 51.29600000000001 -3.36L51.912000000000006 -3.64Q52.332 -3.8360000000000003 52.5 -4.298Q52.668000000000006 -4.76 52.668000000000006 -5.88V-19.04Q52.668000000000006 -19.936 52.43000000000001 -20.314Q52.19200000000001 -20.692 51.716 -20.832L51.1 -21.028Q50.512 -21.224 50.246 -21.588Q49.980000000000004 -21.952 49.980000000000004 -22.512Q49.980000000000004 -23.184 50.34400000000001 -23.576Q50.708000000000006 -23.968 51.716 -24.36L57.932 -26.768Q59.36 -27.328 60.242000000000004 -27.58Q61.124 -27.832 61.964000000000006 -27.832Q63.224000000000004 -27.832 63.882000000000005 -27.118000000000002Q64.54 -26.404 64.54 -25.312ZM63.532000000000004 -18.48 61.852000000000004 -20.272000000000002 62.69200000000001 -21.056Q66.64 -24.836000000000002 69.55199999999999 -26.334000000000003Q72.464 -27.832 74.9 -27.832Q78.652 -27.832 80.94800000000001 -25.354Q83.244 -22.876 83.244 -18.872V-5.88Q83.244 -4.76 83.412 -4.298Q83.58000000000001 -3.8360000000000003 84.0 -3.64L84.61600000000001 -3.36Q85.26 -3.08 85.54 -2.66Q85.82000000000001 -2.24 85.82000000000001 -1.68Q85.82000000000001 -0.896 85.316 -0.448Q84.81200000000001 0.0 83.69200000000001 0.0H71.28800000000001Q69.132 0.0 69.132 -1.792Q69.132 -2.8000000000000003 70.05600000000001 -3.332L70.616 -3.64Q71.036 -3.864 71.20400000000001 -4.311999999999999Q71.372 -4.76 71.372 -5.88V-17.192Q71.372 -18.984 70.54599999999999 -19.880000000000003Q69.72 -20.776 68.236 -20.776Q67.31200000000001 -20.776 66.304 -20.412Q65.296 -20.048000000000002 64.512 -19.348Z M104.55200000000002 -27.832Q109.31200000000001 -27.832 112.86800000000001 -26.026Q116.424 -24.22 118.39800000000001 -20.972Q120.37200000000001 -17.724 120.37200000000001 -13.412Q120.37200000000001 -9.436 118.30000000000001 -6.216Q116.22800000000001 -2.996 112.57400000000001 -1.1059999999999999Q108.92000000000002 0.784 104.10400000000001 0.784Q99.34400000000002 0.784 95.78800000000001 -1.0499999999999998Q92.23200000000001 -2.884 90.25800000000001 -6.132000000000001Q88.28400000000002 -9.38 88.28400000000002 -13.636000000000001Q88.28400000000002 -17.696 90.35600000000002 -20.902Q92.42800000000001 -24.108 96.08200000000002 -25.97Q99.73600000000002 -27.832 104.55200000000002 -27.832ZM106.59600000000002 -3.2760000000000002Q107.66000000000001 -3.528 108.22000000000001 -4.76Q108.78000000000002 -5.992 108.72400000000002 -8.344Q108.668 -10.696 107.88400000000001 -14.308Q107.15600000000002 -17.78 106.24600000000001 -19.964Q105.33600000000001 -22.148 104.27200000000002 -23.1Q103.20800000000001 -24.052 102.06000000000002 -23.772000000000002Q100.99600000000001 -23.52 100.436 -22.288Q99.87600000000002 -21.056 99.94600000000003 -18.718Q100.01600000000002 -16.38 100.77200000000002 -12.74Q101.50000000000001 -9.296 102.424 -7.098Q103.34800000000001 -4.9 104.39800000000001 -3.962Q105.44800000000001 -3.024 106.59600000000002 -3.2760000000000002Z M134.008 -14.952 137.116 -13.44 132.412 -7.196Q131.46 -5.908 131.614 -4.942Q131.768 -3.976 132.63600000000002 -3.556L133.168 -3.3040000000000003Q133.728 -3.024 134.008 -2.66Q134.288 -2.2960000000000003 134.288 -1.736Q134.288 -0.9520000000000001 133.728 -0.49000000000000005Q133.168 -0.028 132.216 -0.028H124.46000000000001Q123.50800000000001 -0.028 122.96200000000002 -0.49000000000000005Q122.41600000000001 -0.9520000000000001 122.41600000000001 -1.736Q122.41600000000001 -2.2960000000000003 122.72400000000002 -2.702Q123.03200000000001 -3.108 123.81600000000002 -3.556Q124.76800000000001 -4.0040000000000004 125.53800000000001 -4.634Q126.308 -5.264 127.17600000000002 -6.258Q128.044 -7.252 129.24800000000002 -8.764ZM139.916 -21.56 144.34 -15.316 144.816 -14.756 151.424 -5.936Q152.292 -4.816 152.81 -4.27Q153.328 -3.724 153.83200000000002 -3.416Q154.42000000000002 -3.052 154.70000000000002 -2.66Q154.98000000000002 -2.2680000000000002 154.98000000000002 -1.708Q154.98000000000002 -0.924 154.42000000000002 -0.462Q153.86 0.0 152.88000000000002 0.0H138.18Q137.17200000000003 0.0 136.61200000000002 -0.462Q136.05200000000002 -0.924 136.05200000000002 -1.736Q136.05200000000002 -2.2960000000000003 136.29000000000002 -2.646Q136.52800000000002 -2.996 137.00400000000002 -3.192L137.56400000000002 -3.416Q138.15200000000002 -3.64 138.15200000000002 -4.102Q138.15200000000002 -4.564 137.56400000000002 -5.376L133.14000000000001 -11.704L132.63600000000002 -12.32L126.44800000000001 -21.28Q125.80400000000002 -22.232 125.174 -22.694Q124.54400000000001 -23.156 123.9 -23.436Q123.17200000000001 -23.744 122.906 -24.164Q122.64000000000001 -24.584 122.64000000000001 -25.256Q122.64000000000001 -26.068 123.20000000000002 -26.53Q123.76 -26.992 124.74000000000001 -26.992H139.07600000000002Q140.02800000000002 -26.992 140.58800000000002 -26.544Q141.14800000000002 -26.096 141.14800000000002 -25.284Q141.14800000000002 -24.752 140.952 -24.387999999999998Q140.756 -24.024 140.364 -23.744L139.83200000000002 -23.38Q139.38400000000001 -23.072 139.39800000000002 -22.68Q139.412 -22.288 139.916 -21.56ZM143.05200000000002 -12.068 139.94400000000002 -13.58 144.64800000000002 -19.824Q145.62800000000001 -21.112000000000002 145.47400000000002 -22.078000000000003Q145.32000000000002 -23.044 144.424 -23.464000000000002L143.892 -23.716Q143.33200000000002 -23.996000000000002 143.05200000000002 -24.374000000000002Q142.77200000000002 -24.752 142.77200000000002 -25.284Q142.77200000000002 -26.096 143.332 -26.544Q143.892 -26.992 144.84400000000002 -26.992H152.60000000000002Q153.58 -26.992 154.11200000000002 -26.544Q154.644 -26.096 154.644 -25.284Q154.644 -24.724 154.336 -24.317999999999998Q154.02800000000002 -23.912 153.244 -23.464000000000002Q151.84400000000002 -22.82 150.738 -21.672Q149.632 -20.524 147.812 -18.256Z M208.34799999999998 -24.5Q208.34799999999998 -20.804000000000002 206.38799999999998 -18.102Q204.428 -15.4 200.74599999999998 -13.916Q197.064 -12.432 191.94 -12.432Q188.60799999999998 -12.432 186.01799999999997 -13.16Q183.428 -13.888 181.356 -15.176L181.77599999999998 -18.648Q182.83999999999997 -17.892 183.82 -17.416Q184.79999999999998 -16.94 185.878 -16.716Q186.956 -16.492 188.272 -16.492Q190.344 -16.492 192.052 -17.402Q193.76 -18.312 194.78199999999998 -20.174Q195.80399999999997 -22.036 195.80399999999997 -24.836000000000002Q195.80399999999997 -28.056 194.65599999999998 -30.380000000000003Q193.50799999999998 -32.704 191.534 -33.964Q189.56 -35.224000000000004 187.012 -35.224000000000004H186.33999999999997V-6.216Q186.33999999999997 -5.516 186.66199999999998 -5.026Q186.98399999999998 -4.5360000000000005 187.76799999999997 -4.368L189.44799999999998 -4.0040000000000004Q190.344 -3.8080000000000003 190.736 -3.318Q191.128 -2.828 191.128 -1.9040000000000001Q191.128 -1.036 190.54 -0.518Q189.952 0.0 188.72 0.0H171.808Q170.576 0.0 169.988 -0.518Q169.39999999999998 -1.036 169.39999999999998 -1.9040000000000001Q169.39999999999998 -3.416 170.856 -3.976L171.92 -4.368Q172.648 -4.648 172.998 -5.082Q173.34799999999998 -5.516 173.34799999999998 -6.216V-32.984Q173.34799999999998 -33.684 172.998 -34.117999999999995Q172.648 -34.552 171.92 -34.832L170.856 -35.224000000000004Q169.39999999999998 -35.784 169.39999999999998 -37.296Q169.39999999999998 -38.192 169.988 -38.696Q170.576 -39.2 171.808 -39.2H187.404Q194.124 -39.2 198.8 -37.31Q203.476 -35.42 205.91199999999998 -32.102000000000004Q208.34799999999998 -28.784 208.34799999999998 -24.5Z M225.932 -25.312V-5.88Q225.932 -4.76 226.09999999999997 -4.298Q226.26799999999997 -3.8360000000000003 226.688 -3.64L227.30399999999997 -3.36Q227.94799999999998 -3.08 228.22799999999998 -2.66Q228.50799999999998 -2.24 228.50799999999998 -1.68Q228.50799999999998 -0.896 228.004 -0.448Q227.5 0.0 226.38 0.0H213.612Q212.492 0.0 211.988 -0.448Q211.48399999999998 -0.896 211.48399999999998 -1.68Q211.48399999999998 -2.24 211.76399999999998 -2.66Q212.04399999999998 -3.08 212.688 -3.36L213.30399999999997 -3.64Q213.724 -3.8360000000000003 213.892 -4.298Q214.05999999999997 -4.76 214.05999999999997 -5.88V-19.04Q214.05999999999997 -19.936 213.82199999999997 -20.314Q213.58399999999997 -20.692 213.10799999999998 -20.832L212.492 -21.028Q211.904 -21.224 211.63799999999998 -21.588Q211.37199999999999 -21.952 211.37199999999999 -22.512Q211.37199999999999 -23.184 211.736 -23.576Q212.1 -23.968 213.10799999999998 -24.36L219.32399999999998 -26.768Q220.83599999999998 -27.356 221.70399999999998 -27.594Q222.57199999999997 -27.832 223.24399999999997 -27.832Q224.588 -27.832 225.26 -27.118000000000002Q225.932 -26.404 225.932 -25.312ZM219.38 -30.296Q216.24399999999997 -30.296 214.42399999999998 -31.752Q212.60399999999998 -33.208 212.60399999999998 -35.728Q212.60399999999998 -38.22 214.42399999999998 -39.647999999999996Q216.24399999999997 -41.076 219.38 -41.076Q222.516 -41.076 224.33599999999998 -39.647999999999996Q226.15599999999998 -38.22 226.15599999999998 -35.728Q226.15599999999998 -33.208 224.33599999999998 -31.752Q222.516 -30.296 219.38 -30.296Z M259.056 -19.18Q259.056 -17.052 257.44599999999997 -15.568Q255.83599999999998 -14.084 253.14799999999997 -14.084Q250.54399999999998 -14.084 249.24199999999996 -15.47Q247.93999999999997 -16.856 247.93999999999997 -19.012V-19.908Q247.93999999999997 -21.728 247.18399999999997 -22.778Q246.42799999999997 -23.828 245.19599999999997 -23.828Q244.21599999999998 -23.828 243.36199999999997 -23.1Q242.50799999999998 -22.372 241.97599999999997 -20.874000000000002Q241.44399999999996 -19.376 241.44399999999996 -17.080000000000002Q241.44399999999996 -13.832 242.54999999999995 -11.648Q243.65599999999998 -9.464 245.58799999999997 -8.358Q247.51999999999998 -7.252 249.98399999999998 -7.252Q251.77599999999998 -7.252 253.21799999999996 -7.686Q254.65999999999997 -8.120000000000001 256.08799999999997 -9.38Q256.9 -10.108 257.31999999999994 -10.36Q257.73999999999995 -10.612 258.13199999999995 -10.612Q258.69199999999995 -10.612 258.95799999999997 -10.052Q259.224 -9.492 259.224 -8.68Q259.224 -6.188 257.558 -4.018Q255.89199999999997 -1.848 252.92399999999998 -0.532Q249.95599999999996 0.784 246.03599999999997 0.784Q241.75199999999998 0.784 238.34999999999997 -0.91Q234.94799999999998 -2.604 232.95999999999998 -5.6419999999999995Q230.97199999999998 -8.68 230.97199999999998 -12.74Q230.97199999999998 -17.080000000000002 232.89 -20.496000000000002Q234.80799999999996 -23.912 238.32199999999997 -25.872Q241.83599999999998 -27.832 246.62399999999997 -27.832Q250.45999999999998 -27.832 253.24599999999998 -26.67Q256.032 -25.508 257.544 -23.548000000000002Q259.056 -21.588 259.056 -19.18Z M264.544 0.0Q263.424 0.0 262.91999999999996 -0.448Q262.416 -0.896 262.416 -1.68Q262.416 -2.24 262.696 -2.66Q262.976 -3.08 263.61999999999995 -3.36L264.236 -3.64Q264.65599999999995 -3.8360000000000003 264.82399999999996 -4.298Q264.99199999999996 -4.76 264.99199999999996 -5.88V-33.488Q264.99199999999996 -34.384 264.75399999999996 -34.762Q264.51599999999996 -35.14 264.03999999999996 -35.28L263.424 -35.476Q262.83599999999996 -35.672000000000004 262.56999999999994 -36.036Q262.304 -36.4 262.304 -36.96Q262.304 -37.632 262.668 -38.024Q263.032 -38.416000000000004 264.03999999999996 -38.808L270.256 -41.216Q271.68399999999997 -41.776 272.566 -42.028000000000006Q273.448 -42.28 274.28799999999995 -42.28Q275.548 -42.28 276.206 -41.566Q276.864 -40.852000000000004 276.864 -39.76V-5.88Q276.864 -4.76 277.032 -4.311999999999999Q277.2 -3.864 277.61999999999995 -3.64L278.17999999999995 -3.332Q279.104 -2.8000000000000003 279.104 -1.792Q279.104 0.0 276.948 0.0ZM273.41999999999996 -12.208 283.948 -20.664Q284.9 -21.42 284.816 -22.232Q284.73199999999997 -23.044 283.69599999999997 -23.492L282.996 -23.8Q282.436 -24.052 282.226 -24.402Q282.01599999999996 -24.752 282.01599999999996 -25.312Q282.01599999999996 -26.096 282.56199999999995 -26.544Q283.10799999999995 -26.992 284.032 -26.992H294.952Q295.904 -26.992 296.45 -26.558Q296.996 -26.124 296.996 -25.396Q296.996 -24.668 296.562 -24.177999999999997Q296.128 -23.688 294.67199999999997 -23.296Q293.188 -22.876 291.87199999999996 -22.148000000000003Q290.556 -21.42 288.67999999999995 -19.936L274.876 -9.184000000000001ZM285.096 -20.412 295.23199999999997 -5.264Q295.67999999999995 -4.62 296.058 -4.256Q296.436 -3.892 296.94 -3.528Q297.58399999999995 -3.08 297.962 -2.59Q298.34 -2.1 298.34 -1.54Q298.34 -0.84 297.794 -0.42Q297.248 0.0 296.32399999999996 0.0H283.164Q282.352 0.0 281.86199999999997 -0.448Q281.37199999999996 -0.896 281.37199999999996 -1.6520000000000001Q281.37199999999996 -2.128 281.568 -2.45Q281.76399999999995 -2.7720000000000002 282.212 -3.052L282.74399999999997 -3.36Q283.19199999999995 -3.612 283.2339999999999 -4.074Q283.27599999999995 -4.5360000000000005 282.63199999999995 -5.488L277.424 -13.412Z M317.01599999999996 -19.236Q319.76 -19.236 318.69599999999997 -16.324L317.828 -13.916Q317.352 -12.544 316.69399999999996 -12.054Q316.036 -11.564 314.972 -11.564H301.224Q298.47999999999996 -11.564 299.544 -14.476L300.412 -16.884Q300.888 -18.256 301.54599999999994 -18.746000000000002Q302.20399999999995 -19.236 303.268 -19.236Z M350.308 -13.384 346.21999999999997 -12.796000000000001 354.592 -35.42Q355.404 -37.576 356.45399999999995 -38.388000000000005Q357.50399999999996 -39.2 359.38 -39.2H370.24399999999997Q371.476 -39.2 372.06399999999996 -38.696Q372.652 -38.192 372.652 -37.296Q372.652 -36.512 372.274 -35.994Q371.89599999999996 -35.476 371.224 -35.224000000000004L370.15999999999997 -34.832Q369.292 -34.524 368.99799999999993 -34.048Q368.70399999999995 -33.572 368.76 -32.592L370.524 -6.496Q370.58 -5.46 370.874 -5.04Q371.168 -4.62 371.868 -4.368L372.93199999999996 -3.976Q373.57599999999996 -3.7520000000000002 373.912 -3.248Q374.248 -2.744 374.248 -2.016Q374.248 -1.1480000000000001 373.65999999999997 -0.5740000000000001Q373.072 0.0 371.84 0.0H356.216Q354.95599999999996 0.0 354.36799999999994 -0.518Q353.78 -1.036 353.78 -1.9040000000000001Q353.78 -2.632 354.102 -3.164Q354.424 -3.696 355.236 -3.976L356.328 -4.368Q357.168 -4.676 357.462 -5.138Q357.756 -5.6000000000000005 357.7 -6.524L355.628 -34.216L359.296 -34.524L348.03999999999996 -4.116Q347.256 -1.988 346.42999999999995 -1.4Q345.604 -0.812 344.45599999999996 -0.812Q343.616 -0.812 342.92999999999995 -1.008Q342.24399999999997 -1.204 341.64199999999994 -1.9460000000000002Q341.03999999999996 -2.688 340.39599999999996 -4.312L328.888 -33.432L332.416 -34.048L330.28799999999995 -7.5040000000000004Q330.176 -6.16 330.86199999999997 -5.46Q331.548 -4.76 332.584 -4.172L333.368 -3.724Q333.844 -3.472 334.11 -3.052Q334.376 -2.632 334.376 -1.988Q334.376 -1.092 333.80199999999996 -0.546Q333.22799999999995 0.0 331.996 0.0H323.736Q322.50399999999996 0.0 321.92999999999995 -0.518Q321.356 -1.036 321.356 -1.9040000000000001Q321.356 -2.7720000000000002 321.804 -3.234Q322.25199999999995 -3.696 322.97999999999996 -4.0600000000000005L323.568 -4.34Q324.436 -4.76 325.066 -5.4879999999999995Q325.69599999999997 -6.216 325.808 -7.532L327.712 -31.332Q327.852 -32.984 327.544 -33.74Q327.236 -34.496 326.34 -34.832L325.27599999999995 -35.224000000000004Q324.548 -35.504 324.18399999999997 -36.007999999999996Q323.82 -36.512 323.82 -37.296Q323.82 -39.2 326.22799999999995 -39.2H336.97999999999996Q338.71599999999995 -39.2 339.76599999999996 -38.472Q340.816 -37.744 341.68399999999997 -35.504Z M405.608 -17.024Q405.608 -15.064 404.544 -13.986Q403.48 -12.908 401.492 -12.908H384.88800000000003V-15.82H392.36400000000003Q393.904 -15.82 393.904 -17.276Q393.904 -20.804000000000002 393.092 -22.316000000000003Q392.28000000000003 -23.828 390.936 -23.828Q389.956 -23.828 389.172 -23.1Q388.38800000000003 -22.372 387.92600000000004 -20.874000000000002Q387.464 -19.376 387.464 -17.080000000000002Q387.464 -11.984 389.76 -9.618Q392.056 -7.252 396.032 -7.252Q397.88 -7.252 399.392 -7.672000000000001Q400.904 -8.092 402.36 -9.38Q403.172 -10.108 403.592 -10.36Q404.012 -10.612 404.404 -10.612Q404.964 -10.612 405.23 -10.052Q405.496 -9.492 405.496 -8.68Q405.496 -6.188 403.802 -4.018Q402.108 -1.848 399.098 -0.532Q396.088 0.784 392.084 0.784Q387.8 0.784 384.384 -0.91Q380.968 -2.604 378.98 -5.6419999999999995Q376.992 -8.68 376.992 -12.74Q376.992 -17.304000000000002 378.812 -20.692Q380.632 -24.080000000000002 384.118 -25.956000000000003Q387.604 -27.832 392.532 -27.832Q396.872 -27.832 399.784 -26.432000000000002Q402.696 -25.032 404.15200000000004 -22.596Q405.608 -20.16 405.608 -17.024Z M426.132 -19.236Q428.87600000000003 -19.236 427.812 -16.324L426.944 -13.916Q426.468 -12.544 425.81000000000006 -12.054Q425.15200000000004 -11.564 424.088 -11.564H410.34000000000003Q407.596 -11.564 408.66 -14.476L409.528 -16.884Q410.004 -18.256 410.66200000000003 -18.746000000000002Q411.32 -19.236 412.384 -19.236Z M463.17600000000004 -17.36 462.14000000000004 -31.276Q462.028 -32.844 461.482 -33.698Q460.93600000000004 -34.552 459.788 -34.86L458.976 -35.084Q457.884 -35.392 457.422 -35.896Q456.96000000000004 -36.4 456.96000000000004 -37.268Q456.96000000000004 -38.136 457.548 -38.668000000000006Q458.136 -39.2 459.20000000000005 -39.2H469.588Q470.68 -39.2 471.26800000000003 -38.668000000000006Q471.856 -38.136 471.856 -37.268Q471.856 -36.4 471.352 -35.924Q470.848 -35.448 469.812 -35.112L469.028 -34.86Q467.432 -34.356 466.942 -33.432Q466.452 -32.508 466.564 -30.968L467.684 -17.5Q467.824 -16.016000000000002 467.894 -14.588000000000001Q467.964 -13.16 467.964 -11.620000000000001Q467.964 -8.008000000000001 466.214 -5.1240000000000006Q464.464 -2.24 460.852 -0.56Q457.24 1.12 451.584 1.12Q445.928 1.12 442.17600000000004 -0.43399999999999994Q438.42400000000004 -1.988 436.548 -4.844Q434.672 -7.7 434.672 -11.592Q434.672 -12.068 434.70000000000005 -12.782Q434.728 -13.496 434.798 -14.756Q434.868 -16.016000000000002 435.00800000000004 -18.06L435.988 -32.956Q436.04400000000004 -33.768 435.72200000000004 -34.188Q435.40000000000003 -34.608000000000004 434.392 -34.832L433.3 -35.084Q431.25600000000003 -35.56 431.25600000000003 -37.268Q431.25600000000003 -38.136 431.84400000000005 -38.668000000000006Q432.432 -39.2 433.524 -39.2H451.332Q452.42400000000004 -39.2 453.01200000000006 -38.668000000000006Q453.6 -38.136 453.6 -37.268Q453.6 -36.4 453.11 -35.882Q452.62 -35.364 451.55600000000004 -35.112L450.408 -34.832Q449.708 -34.664 449.386 -34.230000000000004Q449.064 -33.796 449.00800000000004 -32.984L448.05600000000004 -17.892Q447.944 -16.184 447.91600000000005 -14.742Q447.88800000000003 -13.3 447.88800000000003 -12.32Q447.88800000000003 -7.588 449.75 -5.516Q451.612 -3.444 454.88800000000003 -3.444Q457.52000000000004 -3.444 459.42400000000004 -4.452Q461.32800000000003 -5.46 462.36400000000003 -7.322000000000001Q463.40000000000003 -9.184000000000001 463.40000000000003 -11.76Q463.40000000000003 -13.748000000000001 463.33000000000004 -14.994000000000002Q463.26 -16.240000000000002 463.17600000000004 -17.36Z M488.012 -25.312V-22.792L488.572 -21.728V7.168Q488.572 8.288 488.74 8.75Q488.908 9.212 489.328 9.408L489.944 9.688Q490.588 9.968 490.86800000000005 10.388Q491.148 10.808 491.148 11.368Q491.148 12.152000000000001 490.644 12.600000000000001Q490.14 13.048 489.02 13.048H476.252Q475.132 13.048 474.62800000000004 12.600000000000001Q474.124 12.152000000000001 474.124 11.368Q474.124 10.808 474.404 10.388Q474.684 9.968 475.328 9.688L475.944 9.408Q476.364 9.212 476.532 8.75Q476.7 8.288 476.7 7.168V-19.04Q476.7 -19.936 476.462 -20.314Q476.224 -20.692 475.748 -20.832L475.132 -21.028Q474.544 -21.224 474.278 -21.588Q474.012 -21.952 474.012 -22.512Q474.012 -23.184 474.376 -23.534Q474.74 -23.884 475.748 -24.332L481.404 -26.768Q482.776 -27.356 483.672 -27.594Q484.568 -27.832 485.296 -27.832Q486.668 -27.832 487.34000000000003 -27.118000000000002Q488.012 -26.404 488.012 -25.312ZM486.472 -17.528 484.484 -19.432000000000002Q486.892 -23.352 489.88800000000003 -25.592Q492.884 -27.832 496.748 -27.832Q500.08 -27.832 502.712 -26.124000000000002Q505.344 -24.416 506.87 -21.406Q508.396 -18.396 508.396 -14.448Q508.396 -9.884 506.52 -6.454000000000001Q504.644 -3.024 501.396 -1.12Q498.148 0.784 494.06 0.784Q490.672 0.784 488.13800000000003 -0.658Q485.604 -2.1 483.756 -5.04L486.808 -7.112Q488.096 -5.264 489.244 -4.494Q490.392 -3.724 491.736 -3.724Q493.052 -3.724 494.04600000000005 -4.676Q495.04 -5.628 495.586 -7.728Q496.132 -9.828 496.132 -13.244Q496.132 -16.38 495.558 -18.298000000000002Q494.984 -20.216 494.004 -21.098Q493.024 -21.98 491.736 -21.98Q490.196 -21.98 488.908 -20.93Q487.62 -19.88 486.472 -17.528Z"/><path transform="translate(266.00,152.00)" fill="#b04e00" d="M8.77 -3.64 7.99 -3.18 14.22 -13.26Q14.48 -13.68 14.795 -13.84Q15.11 -14.0 15.42 -14.0H17.46Q17.740000000000002 -14.0 17.840000000000003 -13.905000000000001Q17.94 -13.81 17.93 -13.64Q17.92 -13.450000000000001 17.79 -13.345Q17.66 -13.24 17.47 -13.200000000000001L16.89 -13.07Q16.66 -13.02 16.505000000000003 -12.85Q16.35 -12.68 16.29 -12.370000000000001Q16.21 -11.89 16.075 -11.175Q15.94 -10.46 15.775 -9.595Q15.610000000000001 -8.73 15.43 -7.795Q15.25 -6.86 15.08 -5.945Q14.91 -5.03 14.754999999999999 -4.2Q14.6 -3.37 14.49 -2.7199999999999998Q14.38 -2.07 14.32 -1.67Q14.27 -1.37 14.35 -1.1800000000000002Q14.43 -0.99 14.68 -0.93L15.32 -0.77Q15.49 -0.72 15.58 -0.635Q15.67 -0.55 15.65 -0.4Q15.64 -0.21 15.495000000000001 -0.105Q15.35 0.0 15.08 0.0H10.9Q10.620000000000001 0.0 10.515 -0.105Q10.41 -0.21 10.41 -0.38Q10.43 -0.56 10.555 -0.655Q10.68 -0.75 10.84 -0.79L11.49 -0.93Q11.76 -1.0 11.940000000000001 -1.175Q12.120000000000001 -1.35 12.19 -1.71Q12.290000000000001 -2.29 12.435 -3.05Q12.58 -3.81 12.75 -4.6850000000000005Q12.92 -5.5600000000000005 13.100000000000001 -6.5Q13.280000000000001 -7.44 13.46 -8.385Q13.64 -9.33 13.795000000000002 -10.225000000000001Q13.950000000000001 -11.120000000000001 14.07 -11.91L14.370000000000001 -11.98L8.43 -2.18Q8.16 -1.81 7.970000000000001 -1.665Q7.78 -1.52 7.5 -1.52Q7.2700000000000005 -1.52 7.115 -1.705Q6.96 -1.8900000000000001 6.890000000000001 -2.19Q6.7700000000000005 -2.93 6.6450000000000005 -3.7250000000000005Q6.5200000000000005 -4.5200000000000005 6.390000000000001 -5.355Q6.26 -6.19 6.13 -7.040000000000001Q6.0 -7.890000000000001 5.865 -8.73Q5.73 -9.57 5.595000000000001 -10.379999999999999Q5.46 -11.19 5.32 -11.94L5.75 -12.02L2.84 -2.17Q2.7 -1.62 2.8 -1.33Q2.9 -1.04 3.24 -0.9400000000000001L3.83 -0.79Q4.17 -0.66 4.15 -0.42Q4.12 -0.23 3.955 -0.115Q3.79 0.0 3.5 0.0H0.4Q0.1 0.0 -0.015 -0.11Q-0.13 -0.22 -0.12 -0.39Q-0.11 -0.5700000000000001 0.019999999999999997 -0.675Q0.15 -0.78 0.37 -0.84L0.86 -0.9500000000000001Q1.1300000000000001 -1.02 1.33 -1.175Q1.53 -1.33 1.695 -1.6700000000000002Q1.86 -2.0100000000000002 2.02 -2.62L4.8100000000000005 -12.18Q4.93 -12.56 4.85 -12.775Q4.7700000000000005 -12.99 4.5200000000000005 -13.06L3.83 -13.22Q3.66 -13.290000000000001 3.58 -13.375Q3.5 -13.46 3.52 -13.61Q3.5300000000000002 -13.8 3.68 -13.9Q3.83 -14.0 4.08 -14.0H6.19Q6.59 -14.0 6.84 -13.775Q7.09 -13.55 7.19 -13.02Q7.3100000000000005 -12.34 7.43 -11.594999999999999Q7.55 -10.85 7.675 -10.07Q7.8 -9.290000000000001 7.93 -8.48Q8.06 -7.67 8.195 -6.859999999999999Q8.33 -6.05 8.475000000000001 -5.24Q8.620000000000001 -4.43 8.77 -3.64Z M25.450000000000003 -2.6Q25.240000000000002 -1.79 25.310000000000002 -1.48Q25.380000000000003 -1.17 25.62 -1.17Q25.8 -1.17 25.975 -1.275Q26.15 -1.3800000000000001 26.41 -1.6300000000000001Q26.58 -1.79 26.689999999999998 -1.83Q26.8 -1.87 26.9 -1.82Q27.020000000000003 -1.76 27.020000000000003 -1.605Q27.020000000000003 -1.45 26.9 -1.22Q26.54 -0.5700000000000001 25.875 -0.18000000000000005Q25.21 0.21 24.5 0.21Q23.92 0.21 23.635 -0.08Q23.35 -0.37 23.35 -0.93Q23.35 -1.16 23.39 -1.44Q23.43 -1.72 23.53 -2.13Q23.630000000000003 -2.54 23.810000000000002 -3.16Q23.990000000000002 -3.7800000000000002 24.27 -4.68L24.46 -4.34Q23.91 -2.89 23.130000000000003 -1.87Q22.35 -0.85 21.44 -0.32Q20.53 0.21 19.59 0.21Q18.53 0.21 17.950000000000003 -0.495Q17.37 -1.2 17.52 -2.73Q17.61 -3.74 18.025 -4.705Q18.44 -5.67 19.115000000000002 -6.515000000000001Q19.79 -7.36 20.675 -8.0Q21.560000000000002 -8.64 22.605 -9.0Q23.65 -9.36 24.78 -9.36Q25.64 -9.36 26.2 -9.24Q26.759999999999998 -9.120000000000001 27.035 -8.905000000000001Q27.310000000000002 -8.69 27.29 -8.43Q27.270000000000003 -8.21 27.145000000000003 -8.085Q27.020000000000003 -7.96 26.885 -7.835Q26.75 -7.71 26.69 -7.49ZM19.64 -2.83Q19.54 -1.8 19.805 -1.38Q20.07 -0.96 20.560000000000002 -0.96Q21.02 -0.96 21.535 -1.3199999999999998Q22.05 -1.68 22.57 -2.32Q23.09 -2.96 23.545 -3.79Q24.0 -4.62 24.33 -5.58Q24.66 -6.54 24.810000000000002 -7.54Q24.9 -8.06 24.740000000000002 -8.29Q24.580000000000002 -8.52 24.23 -8.52Q23.6 -8.52 22.975 -8.2Q22.35 -7.88 21.785 -7.32Q21.22 -6.76 20.759999999999998 -6.035Q20.3 -5.3100000000000005 20.009999999999998 -4.485Q19.72 -3.66 19.64 -2.83Z M31.610000000000003 -11.540000000000001 28.720000000000002 -1.3900000000000001Q28.580000000000002 -0.9 28.585 -0.545Q28.590000000000003 -0.19 28.775000000000002 0.0Q28.96 0.19 29.35 0.19Q29.87 0.19 30.255000000000003 0.075Q30.640000000000004 -0.04 30.85 -0.245Q31.060000000000002 -0.45 31.060000000000002 -0.72Q31.060000000000002 -0.98 31.0 -1.165Q30.94 -1.35 30.94 -1.61Q30.94 -1.76 30.970000000000002 -1.9700000000000002Q31.000000000000004 -2.18 31.110000000000003 -2.63Q31.220000000000002 -3.08 31.44 -3.94Q31.700000000000003 -4.9 32.19 -5.720000000000001Q32.68 -6.54 33.295 -7.140000000000001Q33.910000000000004 -7.74 34.550000000000004 -8.055Q35.190000000000005 -8.370000000000001 35.75 -8.32Q36.260000000000005 -8.28 36.485 -7.9799999999999995Q36.71 -7.68 36.620000000000005 -7.17Q36.510000000000005 -6.49 35.92 -5.895Q35.330000000000005 -5.3 34.11500000000001 -4.8Q32.900000000000006 -4.3 30.910000000000004 -3.91L30.900000000000002 -3.25Q33.45 -3.71 35.125 -4.345000000000001Q36.800000000000004 -4.98 37.67 -5.765000000000001Q38.540000000000006 -6.55 38.650000000000006 -7.43Q38.760000000000005 -8.32 38.245000000000005 -8.82Q37.730000000000004 -9.32 36.72 -9.36Q35.870000000000005 -9.4 35.075 -9.11Q34.28 -8.82 33.59 -8.27Q32.900000000000006 -7.72 32.365 -6.96Q31.830000000000002 -6.2 31.51 -5.3100000000000005L31.900000000000002 -5.5L33.690000000000005 -11.94Q33.85 -12.530000000000001 33.875 -12.98Q33.900000000000006 -13.43 33.78 -13.74Q33.660000000000004 -14.05 33.38 -14.205Q33.1 -14.36 32.64 -14.36Q32.11 -14.36 31.630000000000003 -14.184999999999999Q31.150000000000002 -14.01 30.770000000000003 -13.684999999999999Q30.390000000000004 -13.36 30.150000000000002 -12.92Q30.03 -12.69 30.025000000000002 -12.535Q30.020000000000003 -12.38 30.140000000000004 -12.32Q30.240000000000002 -12.27 30.35 -12.315Q30.46 -12.36 30.630000000000003 -12.5Q30.900000000000002 -12.76 31.085 -12.865Q31.270000000000003 -12.97 31.430000000000003 -12.97Q31.700000000000003 -12.97 31.770000000000003 -12.655000000000001Q31.840000000000003 -12.34 31.610000000000003 -11.540000000000001ZM33.18 -4.01 34.040000000000006 -1.36Q34.28 -0.56 34.635000000000005 -0.18500000000000003Q34.99 0.19 35.63 0.21Q36.190000000000005 0.22 36.635000000000005 0.015Q37.080000000000005 -0.19 37.39 -0.5700000000000001Q37.7 -0.9500000000000001 37.82 -1.47Q37.870000000000005 -1.68 37.82000000000001 -1.79Q37.77 -1.9000000000000001 37.660000000000004 -1.93Q37.57 -1.95 37.47 -1.905Q37.370000000000005 -1.86 37.22 -1.67Q37.09 -1.5 36.92 -1.355Q36.75 -1.21 36.53 -1.24Q36.27 -1.26 36.07000000000001 -1.48Q35.870000000000005 -1.7 35.68 -2.27L34.93 -4.46Z M40.68000000000001 -4.13Q40.68000000000001 -4.13 41.050000000000004 -4.27Q41.42 -4.41 42.025000000000006 -4.635Q42.63 -4.86 43.325 -5.12Q44.02 -5.38 44.685 -5.635Q45.35000000000001 -5.89 45.85000000000001 -6.08L45.620000000000005 -5.76Q45.7 -6.01 45.74 -6.32Q45.78 -6.63 45.790000000000006 -7.05Q45.790000000000006 -7.72 45.50000000000001 -8.155Q45.21000000000001 -8.59 44.730000000000004 -8.59Q44.260000000000005 -8.59 43.75500000000001 -8.235Q43.25000000000001 -7.88 42.81 -7.25Q42.370000000000005 -6.62 42.07000000000001 -5.78Q41.77 -4.94 41.7 -3.97Q41.6 -2.5 42.160000000000004 -1.7650000000000001Q42.720000000000006 -1.03 43.75000000000001 -1.03Q44.370000000000005 -1.03 44.95 -1.2650000000000001Q45.53 -1.5 45.995000000000005 -1.95Q46.46000000000001 -2.4 46.71000000000001 -3.04Q46.86000000000001 -3.2600000000000002 46.97500000000001 -3.34Q47.09 -3.42 47.220000000000006 -3.42Q47.39 -3.41 47.485 -3.2750000000000004Q47.580000000000005 -3.14 47.50000000000001 -2.83Q47.36000000000001 -2.06 46.78 -1.365Q46.2 -0.67 45.215 -0.23000000000000004Q44.230000000000004 0.21 42.870000000000005 0.21Q41.71000000000001 0.21 40.95 -0.22500000000000003Q40.190000000000005 -0.66 39.85000000000001 -1.465Q39.510000000000005 -2.27 39.580000000000005 -3.39Q39.660000000000004 -4.59 40.135000000000005 -5.67Q40.61000000000001 -6.75 41.385000000000005 -7.58Q42.160000000000004 -8.41 43.135000000000005 -8.89Q44.11000000000001 -9.370000000000001 45.18000000000001 -9.370000000000001Q45.970000000000006 -9.370000000000001 46.50500000000001 -9.06Q47.040000000000006 -8.75 47.32000000000001 -8.23Q47.60000000000001 -7.71 47.650000000000006 -7.07Q47.660000000000004 -6.92 47.735 -6.82Q47.81 -6.72 47.93000000000001 -6.72Q48.080000000000005 -6.73 48.150000000000006 -6.665000000000001Q48.220000000000006 -6.6000000000000005 48.220000000000006 -6.47Q48.220000000000006 -6.32 48.08500000000001 -6.1850000000000005Q47.95 -6.05 47.57000000000001 -5.91Q47.160000000000004 -5.7700000000000005 46.50500000000001 -5.535Q45.85000000000001 -5.3 45.08500000000001 -5.02Q44.32000000000001 -4.74 43.55500000000001 -4.465Q42.790000000000006 -4.19 42.160000000000004 -3.9650000000000003Q41.53 -3.74 41.145 -3.6Q40.760000000000005 -3.46 40.760000000000005 -3.46Z M56.190000000000005 -2.61Q55.900000000000006 -1.83 55.980000000000004 -1.51Q56.06 -1.19 56.32 -1.19Q56.49 -1.19 56.675 -1.295Q56.86 -1.4000000000000001 57.120000000000005 -1.6600000000000001Q57.290000000000006 -1.81 57.400000000000006 -1.85Q57.510000000000005 -1.8900000000000001 57.61 -1.84Q57.730000000000004 -1.78 57.72500000000001 -1.625Q57.720000000000006 -1.47 57.61 -1.24Q57.25 -0.58 56.575 -0.18999999999999997Q55.900000000000006 0.2 55.09 0.2Q54.470000000000006 0.2 54.150000000000006 -0.08499999999999999Q53.830000000000005 -0.37 53.82000000000001 -0.9099999999999999Q53.81 -1.45 54.09 -2.22L55.71 -6.55Q56.0 -7.33 55.92 -7.65Q55.84 -7.97 55.57 -7.97Q55.410000000000004 -7.97 55.22500000000001 -7.865Q55.040000000000006 -7.76 54.77 -7.5Q54.6 -7.36 54.49 -7.315Q54.38 -7.2700000000000005 54.28 -7.32Q54.160000000000004 -7.38 54.165000000000006 -7.535Q54.17 -7.69 54.290000000000006 -7.92Q54.64 -8.57 55.30500000000001 -8.965Q55.970000000000006 -9.36 56.78 -9.36Q57.36 -9.36 57.68 -9.08Q58.0 -8.8 58.03 -8.245000000000001Q58.06 -7.69 57.760000000000005 -6.88ZM57.52 -11.27Q56.870000000000005 -11.27 56.53 -11.625Q56.190000000000005 -11.98 56.25 -12.48Q56.290000000000006 -12.88 56.540000000000006 -13.21Q56.790000000000006 -13.540000000000001 57.2 -13.74Q57.61 -13.94 58.13 -13.94Q58.81 -13.94 59.125 -13.585Q59.440000000000005 -13.23 59.370000000000005 -12.72Q59.34 -12.32 59.08500000000001 -11.99Q58.830000000000005 -11.66 58.43000000000001 -11.465Q58.03 -11.27 57.52 -11.27Z M61.550000000000004 -8.07 60.78000000000001 -8.23Q60.61000000000001 -8.28 60.525000000000006 -8.385Q60.440000000000005 -8.49 60.440000000000005 -8.63Q60.440000000000005 -8.81 60.59 -8.915Q60.74000000000001 -9.02 61.010000000000005 -9.02H61.88000000000001Q62.120000000000005 -9.02 62.30500000000001 -9.120000000000001Q62.49000000000001 -9.22 62.650000000000006 -9.4L63.70000000000001 -10.86Q63.84 -11.02 63.980000000000004 -11.08Q64.12 -11.14 64.28 -11.14Q64.47000000000001 -11.14 64.56500000000001 -11.045000000000002Q64.66000000000001 -10.950000000000001 64.66000000000001 -10.77Q64.66000000000001 -10.66 64.63000000000001 -10.475000000000001Q64.60000000000001 -10.290000000000001 64.52000000000001 -10.05L62.34 -2.91Q62.03000000000001 -1.8900000000000001 62.19000000000001 -1.55Q62.35000000000001 -1.21 62.900000000000006 -1.21Q63.36000000000001 -1.21 63.77000000000001 -1.4100000000000001Q64.18 -1.61 64.61000000000001 -2.1Q64.74000000000001 -2.23 64.82500000000002 -2.275Q64.91000000000001 -2.32 65.0 -2.32Q65.12 -2.32 65.19 -2.24Q65.26 -2.16 65.24000000000001 -2.02Q65.22000000000001 -1.7 64.93 -1.31Q64.64 -0.92 64.15 -0.5750000000000001Q63.66000000000001 -0.23 63.02000000000001 -0.010000000000000009Q62.38000000000001 0.21 61.64000000000001 0.21Q60.870000000000005 0.21 60.47500000000001 -0.11Q60.080000000000005 -0.43 60.045 -1.0450000000000002Q60.010000000000005 -1.6600000000000001 60.28000000000001 -2.57L61.71000000000001 -7.1000000000000005Q61.870000000000005 -7.61 61.830000000000005 -7.8100000000000005Q61.790000000000006 -8.01 61.550000000000004 -8.07ZM63.25000000000001 -8.120000000000001 63.53000000000001 -9.0H66.25Q66.62 -9.0 66.62 -8.68Q66.62 -8.42 66.39000000000001 -8.27Q66.16000000000001 -8.120000000000001 65.77000000000001 -8.120000000000001Z M74.31000000000002 -4.9 76.33000000000001 -11.94Q76.67000000000002 -13.11 76.44000000000001 -13.735Q76.21000000000001 -14.36 75.31000000000002 -14.36Q74.78000000000002 -14.36 74.30000000000001 -14.184999999999999Q73.82000000000001 -14.01 73.44000000000001 -13.684999999999999Q73.06000000000002 -13.36 72.81000000000002 -12.92Q72.70000000000002 -12.69 72.69500000000002 -12.535Q72.69000000000001 -12.38 72.81000000000002 -12.32Q72.91000000000001 -12.27 73.02000000000001 -12.315Q73.13000000000001 -12.36 73.30000000000001 -12.5Q73.56000000000002 -12.76 73.75000000000001 -12.865Q73.94000000000001 -12.97 74.10000000000001 -12.97Q74.37 -12.97 74.44 -12.655000000000001Q74.51 -12.34 74.28000000000002 -11.540000000000001L71.4 -1.36Q71.26 -0.88 71.26500000000001 -0.525Q71.27000000000001 -0.17 71.45500000000001 0.01999999999999999Q71.64000000000001 0.21 72.03000000000002 0.21Q72.81000000000002 0.21 73.275 -0.039999999999999994Q73.74000000000001 -0.29 73.74000000000001 -0.7000000000000001Q73.74000000000001 -0.96 73.67500000000001 -1.145Q73.61000000000001 -1.33 73.61000000000001 -1.59Q73.61000000000001 -1.78 73.66500000000002 -2.065Q73.72000000000001 -2.35 73.83500000000001 -2.7350000000000003Q73.95000000000002 -3.12 74.11000000000001 -3.58Q74.50000000000001 -4.67 75.01500000000001 -5.484999999999999Q75.53000000000002 -6.3 76.09500000000001 -6.84Q76.66000000000001 -7.38 77.19500000000001 -7.65Q77.73 -7.92 78.14000000000001 -7.92Q78.69000000000001 -7.92 78.79500000000002 -7.52Q78.9 -7.12 78.55000000000001 -6.12L77.18 -2.21Q76.92000000000002 -1.44 76.93 -0.8999999999999999Q76.94000000000001 -0.36 77.26000000000002 -0.075Q77.58000000000001 0.21 78.20000000000002 0.21Q79.01 0.21 79.68 -0.185Q80.35000000000001 -0.58 80.71000000000001 -1.24Q80.83000000000001 -1.46 80.83500000000001 -1.62Q80.84 -1.78 80.72000000000001 -1.83Q80.62 -1.8800000000000001 80.51 -1.84Q80.4 -1.8 80.23000000000002 -1.6500000000000001Q79.96000000000001 -1.3900000000000001 79.775 -1.29Q79.59 -1.19 79.43 -1.19Q79.16000000000001 -1.19 79.08500000000001 -1.505Q79.01 -1.82 79.29 -2.61L80.63000000000001 -6.41Q80.96000000000001 -7.32 80.995 -7.985Q81.03000000000002 -8.65 80.68 -9.004999999999999Q80.33000000000001 -9.36 79.48000000000002 -9.36Q78.74000000000001 -9.36 77.78 -8.95Q76.82000000000001 -8.540000000000001 75.86500000000001 -7.58Q74.91000000000001 -6.62 74.15 -4.96Z M88.45 -9.370000000000001Q89.69 -9.34 90.565 -8.77Q91.44 -8.2 91.815 -7.16Q92.19 -6.12 91.93 -4.66Q91.73 -3.5700000000000003 91.215 -2.66Q90.7 -1.75 89.94 -1.095Q89.18 -0.44 88.25 -0.095Q87.32000000000001 0.25 86.28 0.21Q85.07000000000001 0.17 84.21000000000001 -0.39499999999999996Q83.35000000000001 -0.96 82.98500000000001 -2.01Q82.62 -3.06 82.87 -4.5Q83.08 -5.6000000000000005 83.58500000000001 -6.51Q84.09 -7.42 84.83500000000001 -8.07Q85.58 -8.72 86.5 -9.065000000000001Q87.42 -9.41 88.45 -9.370000000000001ZM86.32000000000001 -0.64Q86.75 -0.59 87.17 -0.74Q87.59 -0.89 87.975 -1.215Q88.36 -1.54 88.685 -2.035Q89.01 -2.5300000000000002 89.26500000000001 -3.1900000000000004Q89.52000000000001 -3.85 89.69 -4.66Q89.95 -5.91 89.86000000000001 -6.75Q89.77000000000001 -7.59 89.39500000000001 -8.030000000000001Q89.02000000000001 -8.47 88.41 -8.52Q87.98 -8.57 87.575 -8.42Q87.17 -8.27 86.795 -7.945Q86.42 -7.62 86.1 -7.125Q85.78 -6.63 85.53 -5.970000000000001Q85.28 -5.3100000000000005 85.11 -4.51Q84.85000000000001 -3.25 84.935 -2.415Q85.02000000000001 -1.58 85.38000000000001 -1.1400000000000001Q85.74000000000001 -0.7000000000000001 86.32000000000001 -0.64Z M99.09 -1.74 100.63 -6.12Q100.97 -7.1000000000000005 100.865 -7.51Q100.75999999999999 -7.92 100.28999999999999 -7.92Q99.75 -7.92 99.02 -7.4399999999999995Q98.28999999999999 -6.96 97.57 -5.995Q96.85 -5.03 96.33 -3.58Q96.11 -2.96 95.985 -2.585Q95.86 -2.21 95.81 -1.99Q95.75999999999999 -1.77 95.75999999999999 -1.62Q95.75999999999999 -1.35 95.84 -1.17Q95.92 -0.99 95.92 -0.73Q95.92 -0.3 95.465 -0.045Q95.00999999999999 0.21 94.23 0.21Q93.6 0.21 93.47 -0.265Q93.34 -0.74 93.7 -1.74L95.42 -6.55Q95.7 -7.33 95.625 -7.65Q95.55 -7.97 95.28 -7.97Q95.12 -7.97 94.935 -7.865Q94.75 -7.76 94.48 -7.5Q94.31 -7.36 94.2 -7.315Q94.09 -7.2700000000000005 93.99 -7.32Q93.87 -7.38 93.875 -7.535Q93.88 -7.69 94.0 -7.92Q94.36 -8.58 95.035 -8.969999999999999Q95.71 -9.36 96.53999999999999 -9.36Q97.09 -9.36 97.41 -9.115Q97.73 -8.870000000000001 97.73 -8.39Q97.73 -8.1 97.61500000000001 -7.73Q97.5 -7.36 97.285 -6.835000000000001Q97.07 -6.3100000000000005 96.76499999999999 -5.57Q96.46 -4.83 96.08 -3.8000000000000003L96.03999999999999 -4.23Q96.81 -6.16 97.815 -7.28Q98.82 -8.4 99.83 -8.879999999999999Q100.84 -9.36 101.63 -9.36Q102.36 -9.36 102.72 -9.059999999999999Q103.08 -8.76 103.05 -8.14Q103.05 -7.86 102.945 -7.525Q102.84 -7.19 102.64500000000001 -6.710000000000001Q102.45 -6.23 102.17 -5.525Q101.89 -4.82 101.52 -3.8000000000000003L101.42 -4.23Q102.0 -5.67 102.71000000000001 -6.655Q103.42 -7.640000000000001 104.18 -8.24Q104.94 -8.84 105.66 -9.1Q106.38 -9.36 106.97 -9.36Q107.75 -9.36 108.08500000000001 -9.0Q108.42 -8.64 108.39500000000001 -7.98Q108.37 -7.32 108.05 -6.41L106.71 -2.61Q106.42999999999999 -1.82 106.50999999999999 -1.505Q106.59 -1.19 106.86 -1.19Q107.03 -1.19 107.21000000000001 -1.29Q107.39 -1.3900000000000001 107.66 -1.6500000000000001Q107.83 -1.8 107.94 -1.84Q108.05 -1.8800000000000001 108.15 -1.83Q108.27 -1.78 108.26499999999999 -1.62Q108.25999999999999 -1.46 108.14 -1.24Q107.78999999999999 -0.58 107.12 -0.185Q106.45 0.21 105.62 0.21Q105.00999999999999 0.21 104.695 -0.075Q104.38 -0.36 104.36 -0.8999999999999999Q104.34 -1.44 104.61 -2.21L105.98 -6.12Q106.34 -7.1000000000000005 106.22 -7.51Q106.1 -7.92 105.64 -7.92Q105.11 -7.92 104.38499999999999 -7.4350000000000005Q103.66 -6.95 102.945 -5.99Q102.23 -5.03 101.71 -3.58Q101.5 -2.96 101.375 -2.585Q101.25 -2.21 101.2 -1.99Q101.15 -1.77 101.15 -1.62Q101.15 -1.35 101.23 -1.17Q101.31 -0.99 101.31 -0.73Q101.31 -0.3 100.85499999999999 -0.045Q100.39999999999999 0.21 99.62 0.21Q99.2 0.21 99.005 0.0Q98.81 -0.21 98.83500000000001 -0.64Q98.86 -1.07 99.09 -1.74Z M111.28999999999999 -4.13Q111.28999999999999 -4.13 111.66 -4.27Q112.02999999999999 -4.41 112.63499999999999 -4.635Q113.24 -4.86 113.935 -5.12Q114.63 -5.38 115.29499999999999 -5.635Q115.96 -5.89 116.46 -6.08L116.22999999999999 -5.76Q116.30999999999999 -6.01 116.35 -6.32Q116.38999999999999 -6.63 116.39999999999999 -7.05Q116.39999999999999 -7.72 116.10999999999999 -8.155Q115.82 -8.59 115.33999999999999 -8.59Q114.86999999999999 -8.59 114.36499999999998 -8.235Q113.85999999999999 -7.88 113.41999999999999 -7.25Q112.97999999999999 -6.62 112.67999999999999 -5.78Q112.38 -4.94 112.30999999999999 -3.97Q112.21 -2.5 112.76999999999998 -1.7650000000000001Q113.32999999999998 -1.03 114.35999999999999 -1.03Q114.97999999999999 -1.03 115.55999999999999 -1.2650000000000001Q116.13999999999999 -1.5 116.60499999999999 -1.95Q117.07 -2.4 117.32 -3.04Q117.46999999999998 -3.2600000000000002 117.58499999999998 -3.34Q117.69999999999999 -3.42 117.82999999999998 -3.42Q117.99999999999999 -3.41 118.095 -3.2750000000000004Q118.19 -3.14 118.10999999999999 -2.83Q117.96999999999998 -2.06 117.38999999999999 -1.365Q116.80999999999999 -0.67 115.82499999999999 -0.23000000000000004Q114.83999999999999 0.21 113.47999999999999 0.21Q112.32 0.21 111.55999999999999 -0.22500000000000003Q110.79999999999998 -0.66 110.45999999999998 -1.465Q110.11999999999999 -2.27 110.18999999999998 -3.39Q110.27 -4.59 110.74499999999999 -5.67Q111.21999999999998 -6.75 111.99499999999999 -7.58Q112.77 -8.41 113.74499999999999 -8.89Q114.71999999999998 -9.370000000000001 115.78999999999999 -9.370000000000001Q116.57999999999998 -9.370000000000001 117.11499999999998 -9.06Q117.64999999999999 -8.75 117.92999999999999 -8.23Q118.21 -7.71 118.25999999999999 -7.07Q118.27 -6.92 118.345 -6.82Q118.41999999999999 -6.72 118.53999999999999 -6.72Q118.69 -6.73 118.75999999999999 -6.665000000000001Q118.82999999999998 -6.6000000000000005 118.82999999999998 -6.47Q118.82999999999998 -6.32 118.695 -6.1850000000000005Q118.55999999999999 -6.05 118.17999999999999 -5.91Q117.77 -5.7700000000000005 117.115 -5.535Q116.46 -5.3 115.695 -5.02Q114.92999999999999 -4.74 114.16499999999999 -4.465Q113.39999999999999 -4.19 112.76999999999998 -3.9650000000000003Q112.13999999999999 -3.74 111.755 -3.6Q111.36999999999999 -3.46 111.36999999999999 -3.46Z M127.1 -0.55Q127.76999999999998 -0.55 128.17999999999998 -0.895Q128.58999999999997 -1.24 128.58999999999997 -1.78Q128.58999999999997 -2.08 128.46499999999997 -2.3600000000000003Q128.33999999999997 -2.64 127.98999999999998 -2.99Q127.63999999999999 -3.34 126.96999999999998 -3.83Q126.24 -4.37 125.82499999999999 -4.785Q125.40999999999998 -5.2 125.23499999999999 -5.615Q125.05999999999999 -6.03 125.05999999999999 -6.55Q125.05999999999999 -7.32 125.52499999999999 -7.96Q125.99 -8.6 126.85499999999999 -8.985Q127.71999999999998 -9.370000000000001 128.94 -9.370000000000001Q129.88 -9.370000000000001 130.52999999999997 -9.11Q131.17999999999998 -8.85 131.515 -8.42Q131.85 -7.99 131.85 -7.49Q131.85999999999999 -7.09 131.68 -6.87Q131.5 -6.65 131.17999999999998 -6.65Q130.89 -6.65 130.67 -6.835000000000001Q130.45 -7.0200000000000005 130.23 -7.5Q129.95999999999998 -8.06 129.58499999999998 -8.36Q129.20999999999998 -8.66 128.67 -8.66Q127.91999999999999 -8.66 127.475 -8.265Q127.02999999999999 -7.87 127.02999999999999 -7.2700000000000005Q127.02999999999999 -6.96 127.16 -6.66Q127.28999999999999 -6.36 127.63499999999999 -6.0Q127.97999999999999 -5.64 128.64 -5.12Q129.42 -4.53 129.83999999999997 -4.09Q130.26 -3.65 130.42 -3.255Q130.57999999999998 -2.86 130.57999999999998 -2.38Q130.57999999999998 -1.6300000000000001 130.12 -1.0450000000000002Q129.66 -0.46 128.82 -0.125Q127.97999999999999 0.21 126.82 0.21Q125.79999999999998 0.21 125.09499999999998 -0.085Q124.38999999999999 -0.38 124.02499999999998 -0.855Q123.65999999999998 -1.33 123.65999999999998 -1.85Q123.66999999999999 -2.22 123.84499999999998 -2.4400000000000004Q124.01999999999998 -2.66 124.32 -2.66Q124.63999999999999 -2.66 124.88 -2.455Q125.11999999999999 -2.25 125.33999999999999 -1.79Q125.68999999999998 -1.11 126.13 -0.8300000000000001Q126.57 -0.55 127.1 -0.55Z M140.41 -2.6Q140.2 -1.79 140.26999999999998 -1.48Q140.34 -1.17 140.57999999999998 -1.17Q140.76 -1.17 140.935 -1.275Q141.10999999999999 -1.3800000000000001 141.37 -1.6300000000000001Q141.54 -1.79 141.64999999999998 -1.83Q141.76 -1.87 141.85999999999999 -1.82Q141.98 -1.76 141.98 -1.605Q141.98 -1.45 141.85999999999999 -1.22Q141.5 -0.5700000000000001 140.83499999999998 -0.18000000000000005Q140.17 0.21 139.46 0.21Q138.88 0.21 138.595 -0.08Q138.31 -0.37 138.31 -0.93Q138.31 -1.16 138.35 -1.44Q138.39 -1.72 138.49 -2.13Q138.59 -2.54 138.76999999999998 -3.16Q138.95 -3.7800000000000002 139.23 -4.68L139.42 -4.34Q138.87 -2.89 138.09 -1.87Q137.31 -0.85 136.4 -0.32Q135.49 0.21 134.55 0.21Q133.49 0.21 132.91 -0.495Q132.32999999999998 -1.2 132.48 -2.73Q132.57 -3.74 132.985 -4.705Q133.4 -5.67 134.075 -6.515000000000001Q134.75 -7.36 135.635 -8.0Q136.52 -8.64 137.565 -9.0Q138.60999999999999 -9.36 139.74 -9.36Q140.6 -9.36 141.16 -9.24Q141.72 -9.120000000000001 141.995 -8.905000000000001Q142.27 -8.69 142.25 -8.43Q142.23 -8.21 142.105 -8.085Q141.98 -7.96 141.845 -7.835Q141.71 -7.71 141.65 -7.49ZM134.6 -2.83Q134.5 -1.8 134.765 -1.38Q135.03 -0.96 135.52 -0.96Q135.98 -0.96 136.495 -1.3199999999999998Q137.01 -1.68 137.53 -2.32Q138.05 -2.96 138.505 -3.79Q138.96 -4.62 139.29000000000002 -5.58Q139.62 -6.54 139.77 -7.54Q139.85999999999999 -8.06 139.7 -8.29Q139.54 -8.52 139.19 -8.52Q138.56 -8.52 137.935 -8.2Q137.31 -7.88 136.745 -7.32Q136.18 -6.76 135.72 -6.035Q135.26 -5.3100000000000005 134.97 -4.485Q134.68 -3.66 134.6 -2.83Z M146.81 -7.7700000000000005 147.16 -8.76H149.63Q149.9 -8.76 150.04500000000002 -8.68Q150.19 -8.6 150.19 -8.39Q150.19 -8.22 150.06 -8.075000000000001Q149.93 -7.930000000000001 149.70499999999998 -7.8500000000000005Q149.48 -7.7700000000000005 149.19 -7.7700000000000005ZM144.16 -8.370000000000001Q144.16 -8.55 144.3 -8.66Q144.44 -8.77 144.73 -8.77H145.94L146.41 -10.71Q146.81 -12.43 147.745 -13.344999999999999Q148.68 -14.26 150.24 -14.26Q151.14 -14.26 151.57 -13.915Q152.0 -13.57 152.0 -13.11Q152.0 -12.64 151.72 -12.345Q151.44 -12.05 150.98 -12.05Q150.68 -12.05 150.42000000000002 -12.185Q150.16 -12.32 149.92000000000002 -12.485Q149.68 -12.65 149.435 -12.785Q149.19 -12.92 148.91 -12.92Q148.43 -12.92 148.10500000000002 -12.59Q147.78 -12.26 147.66 -11.72Q147.59 -11.4 147.64499999999998 -11.015Q147.7 -10.63 147.8 -10.22Q147.9 -9.81 147.94 -9.4Q147.98 -8.99 147.88 -8.61L145.39 0.59Q145.31 0.88 145.26999999999998 1.115Q145.23 1.35 145.23 1.55Q145.23 1.8 145.355 1.96Q145.48 2.12 145.6 2.265Q145.72 2.41 145.72 2.63Q145.72 2.92 145.43 3.17Q145.14 3.42 144.685 3.5700000000000003Q144.23 3.72 143.72 3.72Q143.12 3.72 142.94 3.2800000000000002Q142.76 2.84 143.01 1.94L145.46 -6.72Q145.63 -7.29 145.48000000000002 -7.550000000000001Q145.33 -7.8100000000000005 144.67 -7.890000000000001Q144.36 -8.01 144.26 -8.125Q144.16 -8.24 144.16 -8.370000000000001Z M151.11 -4.13Q151.11 -4.13 151.48000000000002 -4.27Q151.85000000000002 -4.41 152.455 -4.635Q153.06 -4.86 153.755 -5.12Q154.45000000000002 -5.38 155.115 -5.635Q155.78 -5.89 156.28 -6.08L156.05 -5.76Q156.13000000000002 -6.01 156.17000000000002 -6.32Q156.21 -6.63 156.22 -7.05Q156.22 -7.72 155.93 -8.155Q155.64000000000001 -8.59 155.16000000000003 -8.59Q154.69 -8.59 154.185 -8.235Q153.68 -7.88 153.24 -7.25Q152.8 -6.62 152.5 -5.78Q152.20000000000002 -4.94 152.13000000000002 -3.97Q152.03 -2.5 152.59 -1.7650000000000001Q153.15 -1.03 154.18 -1.03Q154.8 -1.03 155.38 -1.2650000000000001Q155.96 -1.5 156.425 -1.95Q156.89000000000001 -2.4 157.14000000000001 -3.04Q157.29000000000002 -3.2600000000000002 157.40500000000003 -3.34Q157.52 -3.42 157.65 -3.42Q157.82000000000002 -3.41 157.91500000000002 -3.2750000000000004Q158.01000000000002 -3.14 157.93 -2.83Q157.79000000000002 -2.06 157.21000000000004 -1.365Q156.63000000000002 -0.67 155.64500000000004 -0.23000000000000004Q154.66000000000003 0.21 153.3 0.21Q152.14000000000001 0.21 151.38 -0.22500000000000003Q150.62 -0.66 150.28 -1.465Q149.94 -2.27 150.01000000000002 -3.39Q150.09 -4.59 150.565 -5.67Q151.04000000000002 -6.75 151.815 -7.58Q152.59 -8.41 153.565 -8.89Q154.54000000000002 -9.370000000000001 155.61 -9.370000000000001Q156.4 -9.370000000000001 156.935 -9.06Q157.47 -8.75 157.75 -8.23Q158.03 -7.71 158.08 -7.07Q158.09 -6.92 158.16500000000002 -6.82Q158.24 -6.72 158.36 -6.72Q158.51000000000002 -6.73 158.58 -6.665000000000001Q158.65 -6.6000000000000005 158.65 -6.47Q158.65 -6.32 158.51500000000001 -6.1850000000000005Q158.38000000000002 -6.05 158.0 -5.91Q157.59 -5.7700000000000005 156.935 -5.535Q156.28 -5.3 155.515 -5.02Q154.75 -4.74 153.985 -4.465Q153.22 -4.19 152.59 -3.9650000000000003Q151.96 -3.74 151.575 -3.6Q151.19 -3.46 151.19 -3.46Z M160.59 0.16Q159.99 0.16 159.66500000000002 -0.175Q159.34 -0.51 159.4 -1.0Q159.44 -1.3800000000000001 159.685 -1.705Q159.93 -2.0300000000000002 160.335 -2.225Q160.74 -2.42 161.25 -2.42Q161.88000000000002 -2.42 162.17000000000002 -2.08Q162.46 -1.74 162.4 -1.23Q162.37 -0.86 162.13 -0.54Q161.89000000000001 -0.22 161.495 -0.03Q161.10000000000002 0.16 160.59 0.16Z M173.18000000000004 -14.24Q173.73000000000002 -14.24 174.41000000000003 -14.14Q175.09000000000003 -14.040000000000001 175.81000000000003 -13.89Q176.53000000000003 -13.74 177.20000000000005 -13.59Q177.87000000000003 -13.44 178.41000000000003 -13.335Q178.95000000000005 -13.23 179.27000000000004 -13.23Q179.64000000000004 -13.23 179.84500000000003 -13.355Q180.05000000000004 -13.48 180.13000000000002 -13.71Q180.19000000000003 -13.89 180.19500000000005 -14.07Q180.20000000000005 -14.25 180.22000000000003 -14.44Q180.28000000000003 -14.790000000000001 180.50500000000002 -15.015Q180.73000000000002 -15.24 181.17000000000002 -15.24Q181.54000000000002 -15.24 181.78000000000003 -14.98Q182.02000000000004 -14.72 182.02000000000004 -14.19Q182.01000000000002 -13.34 181.42000000000002 -12.825Q180.83000000000004 -12.31 179.83000000000004 -12.31Q179.39000000000004 -12.31 178.74500000000003 -12.43Q178.10000000000002 -12.55 177.35500000000002 -12.725000000000001Q176.61000000000004 -12.9 175.85500000000002 -13.075Q175.10000000000002 -13.25 174.44000000000003 -13.370000000000001Q173.78000000000003 -13.49 173.32000000000002 -13.49Q172.46000000000004 -13.49 172.10000000000002 -13.21Q171.74000000000004 -12.93 171.72000000000003 -12.46Q171.71000000000004 -12.23 171.77500000000003 -12.045Q171.84000000000003 -11.86 171.91000000000003 -11.68Q171.98000000000002 -11.5 171.97000000000003 -11.28Q171.97000000000003 -10.94 171.71500000000003 -10.69Q171.46000000000004 -10.44 171.04000000000002 -10.450000000000001Q170.56000000000003 -10.450000000000001 170.27000000000004 -10.825000000000001Q169.98000000000002 -11.200000000000001 170.01000000000002 -11.84Q170.03000000000003 -12.530000000000001 170.39500000000004 -13.075000000000001Q170.76000000000002 -13.620000000000001 171.46000000000004 -13.93Q172.16000000000003 -14.24 173.18000000000004 -14.24ZM174.20000000000005 -1.49Q174.12000000000003 -1.22 174.21000000000004 -1.0899999999999999Q174.30000000000004 -0.96 174.51000000000002 -0.91L175.25000000000003 -0.76Q175.62000000000003 -0.64 175.58000000000004 -0.39Q175.55000000000004 -0.19 175.38500000000005 -0.095Q175.22000000000003 0.0 174.95000000000005 0.0H170.65000000000003Q170.39000000000004 0.0 170.27000000000004 -0.1Q170.15000000000003 -0.2 170.16000000000003 -0.36Q170.17000000000004 -0.53 170.30000000000004 -0.635Q170.43000000000004 -0.74 170.65000000000003 -0.8L171.34000000000003 -0.93Q171.59000000000003 -0.98 171.75000000000003 -1.145Q171.91000000000003 -1.31 172.02000000000004 -1.6500000000000001Q172.15000000000003 -2.08 172.36 -2.8200000000000003Q172.57000000000002 -3.56 172.83000000000004 -4.51Q173.09000000000003 -5.46 173.38500000000005 -6.515000000000001Q173.68000000000004 -7.57 173.96500000000003 -8.635000000000002Q174.25000000000003 -9.700000000000001 174.51500000000004 -10.665000000000001Q174.78000000000003 -11.63 174.99500000000003 -12.405000000000001Q175.21000000000004 -13.18 175.34000000000003 -13.65L177.41000000000003 -13.25Q177.27000000000004 -12.77 177.05000000000004 -11.995000000000001Q176.83000000000004 -11.22 176.57000000000005 -10.255Q176.31000000000003 -9.290000000000001 176.02000000000004 -8.235Q175.73000000000002 -7.18 175.45000000000005 -6.145Q175.17000000000004 -5.11 174.92500000000004 -4.19Q174.68000000000004 -3.27 174.49000000000004 -2.565Q174.30000000000004 -1.86 174.20000000000005 -1.49Z M185.01000000000005 -9.370000000000001Q186.25000000000003 -9.34 187.12500000000003 -8.77Q188.00000000000003 -8.2 188.37500000000003 -7.16Q188.75000000000003 -6.12 188.49000000000004 -4.66Q188.29000000000002 -3.5700000000000003 187.77500000000003 -2.66Q187.26000000000005 -1.75 186.50000000000006 -1.095Q185.74000000000004 -0.44 184.81000000000003 -0.095Q183.88000000000002 0.25 182.84000000000003 0.21Q181.63000000000002 0.17 180.77000000000004 -0.39499999999999996Q179.91000000000003 -0.96 179.54500000000002 -2.01Q179.18000000000004 -3.06 179.43000000000004 -4.5Q179.64000000000004 -5.6000000000000005 180.14500000000004 -6.51Q180.65000000000003 -7.42 181.39500000000004 -8.07Q182.14000000000004 -8.72 183.06000000000006 -9.065000000000001Q183.98000000000005 -9.41 185.01000000000005 -9.370000000000001ZM182.88000000000002 -0.64Q183.31000000000003 -0.59 183.73000000000002 -0.74Q184.15000000000003 -0.89 184.53500000000003 -1.215Q184.92000000000004 -1.54 185.24500000000003 -2.035Q185.57000000000002 -2.5300000000000002 185.82500000000005 -3.1900000000000004Q186.08000000000004 -3.85 186.25000000000003 -4.66Q186.51000000000005 -5.91 186.42000000000004 -6.75Q186.33000000000004 -7.59 185.95500000000004 -8.030000000000001Q185.58000000000004 -8.47 184.97000000000003 -8.52Q184.54000000000002 -8.57 184.13500000000005 -8.42Q183.73000000000005 -8.27 183.35500000000005 -7.945Q182.98000000000005 -7.62 182.66000000000003 -7.125Q182.34000000000003 -6.63 182.09000000000003 -5.970000000000001Q181.84000000000003 -5.3100000000000005 181.67000000000004 -4.51Q181.41000000000003 -3.25 181.49500000000003 -2.415Q181.58000000000004 -1.58 181.94000000000005 -1.1400000000000001Q182.30000000000004 -0.7000000000000001 182.88000000000002 -0.64Z M195.65000000000003 -1.74 197.19000000000003 -6.12Q197.53000000000003 -7.1000000000000005 197.425 -7.51Q197.32000000000002 -7.92 196.85000000000002 -7.92Q196.31000000000003 -7.92 195.58000000000004 -7.4399999999999995Q194.85000000000002 -6.96 194.13000000000002 -5.995Q193.41000000000003 -5.03 192.89000000000001 -3.58Q192.67000000000002 -2.96 192.54500000000002 -2.585Q192.42000000000002 -2.21 192.37 -1.99Q192.32000000000002 -1.77 192.32000000000002 -1.62Q192.32000000000002 -1.35 192.40000000000003 -1.17Q192.48000000000002 -0.99 192.48000000000002 -0.73Q192.48000000000002 -0.3 192.02500000000003 -0.045Q191.57000000000002 0.21 190.79000000000002 0.21Q190.16000000000003 0.21 190.03000000000003 -0.265Q189.90000000000003 -0.74 190.26000000000002 -1.74L191.98000000000002 -6.55Q192.26000000000002 -7.33 192.18500000000003 -7.65Q192.11000000000004 -7.97 191.84000000000003 -7.97Q191.68000000000004 -7.97 191.49500000000003 -7.865Q191.31000000000003 -7.76 191.04000000000002 -7.5Q190.87000000000003 -7.36 190.76000000000005 -7.315Q190.65000000000003 -7.2700000000000005 190.55000000000004 -7.32Q190.43000000000004 -7.38 190.43500000000003 -7.535Q190.44000000000003 -7.69 190.56000000000003 -7.92Q190.92000000000002 -8.58 191.59500000000003 -8.969999999999999Q192.27000000000004 -9.36 193.10000000000002 -9.36Q193.65000000000003 -9.36 193.97000000000003 -9.115Q194.29000000000002 -8.870000000000001 194.29000000000002 -8.39Q194.29000000000002 -8.1 194.175 -7.73Q194.06000000000003 -7.36 193.84500000000003 -6.835000000000001Q193.63000000000002 -6.3100000000000005 193.32500000000005 -5.57Q193.02000000000004 -4.83 192.64000000000001 -3.8000000000000003L192.60000000000002 -4.23Q193.37000000000003 -6.16 194.37500000000003 -7.28Q195.38000000000002 -8.4 196.39000000000004 -8.879999999999999Q197.40000000000003 -9.36 198.19000000000003 -9.36Q198.92000000000002 -9.36 199.28000000000003 -9.059999999999999Q199.64000000000004 -8.76 199.61 -8.14Q199.61 -7.86 199.50500000000002 -7.525Q199.40000000000003 -7.19 199.20500000000004 -6.710000000000001Q199.01000000000002 -6.23 198.73000000000002 -5.525Q198.45000000000002 -4.82 198.08000000000004 -3.8000000000000003L197.98000000000002 -4.23Q198.56000000000003 -5.67 199.27000000000004 -6.655Q199.98000000000002 -7.640000000000001 200.74 -8.24Q201.50000000000003 -8.84 202.22000000000003 -9.1Q202.94000000000003 -9.36 203.53000000000003 -9.36Q204.31000000000003 -9.36 204.64500000000004 -9.0Q204.98000000000002 -8.64 204.95500000000004 -7.98Q204.93000000000004 -7.32 204.61000000000004 -6.41L203.27000000000004 -2.61Q202.99000000000004 -1.82 203.07000000000005 -1.505Q203.15000000000003 -1.19 203.42000000000002 -1.19Q203.59000000000003 -1.19 203.77000000000004 -1.29Q203.95000000000002 -1.3900000000000001 204.22000000000003 -1.6500000000000001Q204.39000000000004 -1.8 204.50000000000006 -1.84Q204.61000000000004 -1.8800000000000001 204.71000000000004 -1.83Q204.83000000000004 -1.78 204.82500000000005 -1.62Q204.82000000000002 -1.46 204.70000000000002 -1.24Q204.35000000000002 -0.58 203.68 -0.185Q203.01000000000002 0.21 202.18000000000004 0.21Q201.57000000000002 0.21 201.25500000000002 -0.075Q200.94000000000003 -0.36 200.92000000000002 -0.8999999999999999Q200.90000000000003 -1.44 201.17000000000002 -2.21L202.54000000000002 -6.12Q202.90000000000003 -7.1000000000000005 202.78000000000003 -7.51Q202.66000000000003 -7.92 202.20000000000002 -7.92Q201.67000000000002 -7.92 200.94500000000002 -7.4350000000000005Q200.22000000000003 -6.95 199.50500000000002 -5.99Q198.79000000000002 -5.03 198.27000000000004 -3.58Q198.06000000000003 -2.96 197.93500000000003 -2.585Q197.81000000000003 -2.21 197.76000000000005 -1.99Q197.71000000000004 -1.77 197.71000000000004 -1.62Q197.71000000000004 -1.35 197.79000000000002 -1.17Q197.87000000000003 -0.99 197.87000000000003 -0.73Q197.87000000000003 -0.3 197.41500000000002 -0.045Q196.96000000000004 0.21 196.18000000000004 0.21Q195.76000000000002 0.21 195.56500000000003 0.0Q195.37000000000003 -0.21 195.39500000000004 -0.64Q195.42000000000002 -1.07 195.65000000000003 -1.74Z M212.40000000000003 -9.370000000000001Q213.64000000000001 -9.34 214.51500000000001 -8.77Q215.39000000000001 -8.2 215.76500000000001 -7.16Q216.14000000000001 -6.12 215.88000000000002 -4.66Q215.68 -3.5700000000000003 215.16500000000002 -2.66Q214.65000000000003 -1.75 213.89000000000004 -1.095Q213.13000000000002 -0.44 212.20000000000002 -0.095Q211.27 0.25 210.23000000000002 0.21Q209.02 0.17 208.16000000000003 -0.39499999999999996Q207.3 -0.96 206.935 -2.01Q206.57000000000002 -3.06 206.82000000000002 -4.5Q207.03000000000003 -5.6000000000000005 207.53500000000003 -6.51Q208.04000000000002 -7.42 208.78500000000003 -8.07Q209.53000000000003 -8.72 210.45000000000005 -9.065000000000001Q211.37000000000003 -9.41 212.40000000000003 -9.370000000000001ZM210.27 -0.64Q210.70000000000002 -0.59 211.12 -0.74Q211.54000000000002 -0.89 211.925 -1.215Q212.31000000000003 -1.54 212.63500000000002 -2.035Q212.96 -2.5300000000000002 213.21500000000003 -3.1900000000000004Q213.47000000000003 -3.85 213.64000000000001 -4.66Q213.90000000000003 -5.91 213.81000000000003 -6.75Q213.72000000000003 -7.59 213.34500000000003 -8.030000000000001Q212.97000000000003 -8.47 212.36 -8.52Q211.93 -8.57 211.52500000000003 -8.42Q211.12000000000003 -8.27 210.74500000000003 -7.945Q210.37000000000003 -7.62 210.05 -7.125Q209.73000000000002 -6.63 209.48000000000002 -5.970000000000001Q209.23000000000002 -5.3100000000000005 209.06000000000003 -4.51Q208.8 -3.25 208.88500000000002 -2.415Q208.97000000000003 -1.58 209.33000000000004 -1.1400000000000001Q209.69000000000003 -0.7000000000000001 210.27 -0.64Z M217.86 -7.32Q217.74 -7.38 217.74 -7.535Q217.74 -7.69 217.86 -7.92Q218.10000000000002 -8.36 218.49 -8.684999999999999Q218.88000000000002 -9.01 219.36 -9.184999999999999Q219.84 -9.36 220.37 -9.36Q220.88000000000002 -9.36 221.16500000000002 -9.115Q221.45000000000002 -8.870000000000001 221.45000000000002 -8.38Q221.45000000000002 -7.96 221.27 -7.4Q221.09 -6.84 220.85500000000002 -6.245Q220.62 -5.65 220.43 -5.105Q220.24 -4.5600000000000005 220.22000000000003 -4.18L220.06 -4.19Q220.38000000000002 -5.38 220.87 -6.335Q221.36 -7.29 221.95000000000002 -7.965Q222.54000000000002 -8.64 223.175 -9.0Q223.81 -9.36 224.42000000000002 -9.36Q225.18 -9.36 225.565 -8.934999999999999Q225.95000000000002 -8.51 225.94000000000003 -7.8100000000000005Q225.92000000000002 -7.28 225.73000000000002 -6.9Q225.54000000000002 -6.5200000000000005 225.24 -6.32Q224.94000000000003 -6.12 224.59 -6.12Q224.21 -6.12 224.03000000000003 -6.300000000000001Q223.85000000000002 -6.48 223.85000000000002 -6.72Q223.85000000000002 -6.93 223.91500000000002 -7.13Q223.98000000000002 -7.33 223.98000000000002 -7.55Q223.98000000000002 -7.8 223.865 -7.949999999999999Q223.75000000000003 -8.1 223.49 -8.1Q223.05 -8.1 222.485 -7.574999999999999Q221.92000000000002 -7.05 221.34500000000003 -6.029999999999999Q220.77 -5.01 220.29000000000002 -3.5Q220.06 -2.8000000000000003 219.95 -2.3850000000000002Q219.84 -1.97 219.84 -1.6400000000000001Q219.84 -1.3900000000000001 219.94 -1.2550000000000001Q220.04000000000002 -1.12 220.14000000000001 -1.0Q220.24 -0.88 220.24 -0.65Q220.24 -0.41000000000000003 220.025 -0.21000000000000002Q219.81 -0.01 219.395 0.105Q218.98000000000002 0.22 218.38000000000002 0.22Q217.91000000000003 0.22 217.69000000000003 0.009999999999999995Q217.47000000000003 -0.2 217.48000000000002 -0.63Q217.49 -1.06 217.71 -1.71L219.31 -6.55Q219.57000000000002 -7.33 219.495 -7.65Q219.42000000000002 -7.97 219.15 -7.97Q218.99 -7.97 218.8 -7.865Q218.61 -7.76 218.35000000000002 -7.5Q218.18 -7.36 218.07 -7.315Q217.96 -7.2700000000000005 217.86 -7.32Z M227.36 -7.32Q227.24 -7.38 227.24 -7.535Q227.24 -7.69 227.36 -7.92Q227.60000000000002 -8.36 227.99 -8.684999999999999Q228.38000000000002 -9.01 228.86 -9.184999999999999Q229.34 -9.36 229.87 -9.36Q230.38000000000002 -9.36 230.66500000000002 -9.115Q230.95000000000002 -8.870000000000001 230.95000000000002 -8.38Q230.95000000000002 -7.96 230.77 -7.4Q230.59 -6.84 230.35500000000002 -6.245Q230.12 -5.65 229.93 -5.105Q229.74 -4.5600000000000005 229.72000000000003 -4.18L229.56 -4.19Q229.88000000000002 -5.38 230.37 -6.335Q230.86 -7.29 231.45000000000002 -7.965Q232.04000000000002 -8.64 232.675 -9.0Q233.31 -9.36 233.92000000000002 -9.36Q234.68 -9.36 235.065 -8.934999999999999Q235.45000000000002 -8.51 235.44000000000003 -7.8100000000000005Q235.42000000000002 -7.28 235.23000000000002 -6.9Q235.04000000000002 -6.5200000000000005 234.74 -6.32Q234.44000000000003 -6.12 234.09 -6.12Q233.71 -6.12 233.53000000000003 -6.300000000000001Q233.35000000000002 -6.48 233.35000000000002 -6.72Q233.35000000000002 -6.93 233.41500000000002 -7.13Q233.48000000000002 -7.33 233.48000000000002 -7.55Q233.48000000000002 -7.8 233.365 -7.949999999999999Q233.25000000000003 -8.1 232.99 -8.1Q232.55 -8.1 231.985 -7.574999999999999Q231.42000000000002 -7.05 230.84500000000003 -6.029999999999999Q230.27 -5.01 229.79000000000002 -3.5Q229.56 -2.8000000000000003 229.45 -2.3850000000000002Q229.34 -1.97 229.34 -1.6400000000000001Q229.34 -1.3900000000000001 229.44 -1.2550000000000001Q229.54000000000002 -1.12 229.64000000000001 -1.0Q229.74 -0.88 229.74 -0.65Q229.74 -0.41000000000000003 229.525 -0.21000000000000002Q229.31 -0.01 228.895 0.105Q228.48000000000002 0.22 227.88000000000002 0.22Q227.41000000000003 0.22 227.19000000000003 0.009999999999999995Q226.97000000000003 -0.2 226.98000000000002 -0.63Q226.99 -1.06 227.21 -1.71L228.81 -6.55Q229.07000000000002 -7.33 228.995 -7.65Q228.92000000000002 -7.97 228.65 -7.97Q228.49 -7.97 228.3 -7.865Q228.11 -7.76 227.85000000000002 -7.5Q227.68 -7.36 227.57 -7.315Q227.46 -7.2700000000000005 227.36 -7.32Z M241.39000000000004 -9.370000000000001Q242.63000000000002 -9.34 243.50500000000002 -8.77Q244.38000000000002 -8.2 244.75500000000002 -7.16Q245.13000000000002 -6.12 244.87000000000003 -4.66Q244.67000000000002 -3.5700000000000003 244.15500000000003 -2.66Q243.64000000000004 -1.75 242.88000000000005 -1.095Q242.12000000000003 -0.44 241.19000000000003 -0.095Q240.26000000000002 0.25 239.22000000000003 0.21Q238.01000000000002 0.17 237.15000000000003 -0.39499999999999996Q236.29000000000002 -0.96 235.925 -2.01Q235.56000000000003 -3.06 235.81000000000003 -4.5Q236.02000000000004 -5.6000000000000005 236.52500000000003 -6.51Q237.03000000000003 -7.42 237.77500000000003 -8.07Q238.52000000000004 -8.72 239.44000000000005 -9.065000000000001Q240.36000000000004 -9.41 241.39000000000004 -9.370000000000001ZM239.26000000000002 -0.64Q239.69000000000003 -0.59 240.11 -0.74Q240.53000000000003 -0.89 240.91500000000002 -1.215Q241.30000000000004 -1.54 241.62500000000003 -2.035Q241.95000000000002 -2.5300000000000002 242.20500000000004 -3.1900000000000004Q242.46000000000004 -3.85 242.63000000000002 -4.66Q242.89000000000004 -5.91 242.80000000000004 -6.75Q242.71000000000004 -7.59 242.33500000000004 -8.030000000000001Q241.96000000000004 -8.47 241.35000000000002 -8.52Q240.92000000000002 -8.57 240.51500000000004 -8.42Q240.11000000000004 -8.27 239.73500000000004 -7.945Q239.36000000000004 -7.62 239.04000000000002 -7.125Q238.72000000000003 -6.63 238.47000000000003 -5.970000000000001Q238.22000000000003 -5.3100000000000005 238.05000000000004 -4.51Q237.79000000000002 -3.25 237.87500000000003 -2.415Q237.96000000000004 -1.58 238.32000000000005 -1.1400000000000001Q238.68000000000004 -0.7000000000000001 239.26000000000002 -0.64Z M247.59000000000003 -1.1500000000000001Q247.59000000000003 -1.44 247.62500000000003 -1.955Q247.66000000000003 -2.47 247.72000000000003 -3.1100000000000003Q247.78000000000003 -3.75 247.83500000000004 -4.43Q247.89000000000001 -5.11 247.93 -5.74Q247.97000000000003 -6.37 247.97000000000003 -6.8500000000000005Q247.97000000000003 -7.33 247.85000000000002 -7.57Q247.73000000000002 -7.8100000000000005 247.48000000000002 -7.8100000000000005Q247.29000000000002 -7.8100000000000005 247.14000000000004 -7.6850000000000005Q246.99000000000004 -7.5600000000000005 246.88000000000002 -7.25Q246.77 -7.0200000000000005 246.675 -6.9350000000000005Q246.58 -6.8500000000000005 246.46000000000004 -6.8500000000000005Q246.31000000000003 -6.8500000000000005 246.23000000000002 -6.960000000000001Q246.15000000000003 -7.07 246.19000000000003 -7.29Q246.25000000000003 -7.65 246.45000000000005 -8.0Q246.65000000000003 -8.35 246.97500000000002 -8.65Q247.3 -8.950000000000001 247.73000000000002 -9.125Q248.16000000000003 -9.3 248.68000000000004 -9.3Q249.44000000000003 -9.3 249.73000000000002 -8.81Q250.02 -8.32 250.02 -7.3Q250.02 -6.84 249.985 -6.234999999999999Q249.95000000000002 -5.63 249.90500000000003 -4.98Q249.86 -4.33 249.81 -3.725Q249.76000000000002 -3.12 249.72500000000002 -2.635Q249.69000000000003 -2.15 249.70000000000002 -1.9000000000000001Q249.70000000000002 -1.49 249.81 -1.32Q249.92000000000002 -1.1500000000000001 250.14000000000001 -1.1500000000000001Q250.40000000000003 -1.1500000000000001 250.79000000000002 -1.435Q251.18000000000004 -1.72 251.60500000000002 -2.21Q252.03000000000003 -2.7 252.40500000000003 -3.31Q252.78000000000003 -3.92 253.01500000000004 -4.585Q253.25000000000003 -5.25 253.25000000000003 -5.88Q253.25000000000003 -6.29 253.22500000000002 -6.555Q253.20000000000002 -6.82 253.125 -7.025Q253.05 -7.23 252.93000000000004 -7.46Q252.79000000000002 -7.72 252.735 -7.9Q252.68000000000004 -8.08 252.69000000000003 -8.3Q252.71000000000004 -8.59 252.90000000000003 -8.815000000000001Q253.09000000000003 -9.040000000000001 253.40000000000003 -9.18Q253.71000000000004 -9.32 254.09000000000003 -9.32Q254.64000000000001 -9.32 254.92000000000002 -8.97Q255.20000000000002 -8.620000000000001 255.21000000000004 -7.8500000000000005Q255.21000000000004 -7.51 255.18500000000003 -6.9399999999999995Q255.16000000000003 -6.37 255.12 -5.675000000000001Q255.08 -4.98 255.04500000000002 -4.26Q255.01000000000002 -3.54 255.0 -2.895Q254.99 -2.25 255.01000000000002 -1.79Q255.02000000000004 -1.41 255.14000000000004 -1.23Q255.26000000000002 -1.05 255.50000000000003 -1.05Q255.75000000000003 -1.05 256.125 -1.365Q256.5 -1.68 256.91 -2.225Q257.32000000000005 -2.77 257.68000000000006 -3.4699999999999998Q258.04 -4.17 258.27500000000003 -4.9399999999999995Q258.51000000000005 -5.71 258.53000000000003 -6.48Q258.55 -6.79 258.475 -6.96Q258.40000000000003 -7.13 258.15000000000003 -7.34Q257.93 -7.54 257.81500000000005 -7.785Q257.70000000000005 -8.03 257.73 -8.36Q257.77000000000004 -8.78 258.09000000000003 -9.07Q258.41 -9.36 258.91 -9.36Q259.47 -9.36 259.785 -8.96Q260.1 -8.56 260.04 -7.62Q260.0 -6.48 259.615 -5.355Q259.23 -4.23 258.615 -3.2250000000000005Q258.0 -2.22 257.255 -1.445Q256.51000000000005 -0.67 255.73000000000002 -0.22500000000000003Q254.95000000000002 0.22 254.25000000000003 0.22Q253.65000000000003 0.22 253.35500000000002 -0.06000000000000001Q253.06000000000003 -0.34 253.01000000000002 -0.9400000000000001Q252.99000000000004 -1.23 252.99500000000003 -1.695Q253.00000000000003 -2.16 253.03500000000003 -2.7350000000000003Q253.07000000000002 -3.31 253.13000000000002 -3.91L253.40000000000003 -3.81Q252.95000000000002 -2.86 252.39500000000004 -2.115Q251.84000000000003 -1.37 251.22000000000003 -0.8500000000000001Q250.60000000000002 -0.33 249.985 -0.05500000000000001Q249.37000000000003 0.22 248.82000000000002 0.22Q248.20000000000002 0.22 247.90000000000003 -0.16000000000000003Q247.60000000000002 -0.54 247.59000000000003 -1.1500000000000001Z M264.44 -12.61Q263.8 -12.61 263.545 -12.93Q263.29 -13.25 263.43 -13.77Q263.53000000000003 -14.16 263.80000000000007 -14.455Q264.07000000000005 -14.75 264.43500000000006 -14.915Q264.8 -15.08 265.19 -15.08Q265.89000000000004 -15.08 266.19000000000005 -14.555Q266.49 -14.030000000000001 266.21000000000004 -13.02Q265.99 -12.16 265.51 -11.455Q265.03000000000003 -10.75 264.38 -10.265Q263.73 -9.78 262.96000000000004 -9.57Q262.67 -9.5 262.535 -9.545Q262.40000000000003 -9.59 262.39000000000004 -9.74Q262.38 -9.870000000000001 262.495 -10.0Q262.61 -10.13 262.87 -10.21Q263.43 -10.41 263.865 -10.74Q264.3 -11.07 264.58500000000004 -11.465Q264.87 -11.86 264.96000000000004 -12.23Q265.01000000000005 -12.41 264.95500000000004 -12.51Q264.90000000000003 -12.61 264.71000000000004 -12.61Z M268.21000000000004 -0.55Q268.88 -0.55 269.28999999999996 -0.895Q269.7 -1.24 269.7 -1.78Q269.7 -2.08 269.575 -2.3600000000000003Q269.45 -2.64 269.1 -2.99Q268.75 -3.34 268.08000000000004 -3.83Q267.35 -4.37 266.93500000000006 -4.785Q266.52000000000004 -5.2 266.345 -5.615Q266.17 -6.03 266.17 -6.55Q266.17 -7.32 266.635 -7.96Q267.1 -8.6 267.96500000000003 -8.985Q268.83000000000004 -9.370000000000001 270.05 -9.370000000000001Q270.99 -9.370000000000001 271.64 -9.11Q272.29 -8.85 272.625 -8.42Q272.96000000000004 -7.99 272.96000000000004 -7.49Q272.97 -7.09 272.79 -6.87Q272.61 -6.65 272.29 -6.65Q272.0 -6.65 271.78 -6.835000000000001Q271.56 -7.0200000000000005 271.34000000000003 -7.5Q271.07 -8.06 270.695 -8.36Q270.32 -8.66 269.78000000000003 -8.66Q269.03000000000003 -8.66 268.58500000000004 -8.265Q268.14000000000004 -7.87 268.14000000000004 -7.2700000000000005Q268.14000000000004 -6.96 268.27000000000004 -6.66Q268.40000000000003 -6.36 268.745 -6.0Q269.09000000000003 -5.64 269.75 -5.12Q270.53000000000003 -4.53 270.95000000000005 -4.09Q271.37 -3.65 271.53 -3.255Q271.69 -2.86 271.69 -2.38Q271.69 -1.6300000000000001 271.23 -1.0450000000000002Q270.77000000000004 -0.46 269.93000000000006 -0.125Q269.09000000000003 0.21 267.93 0.21Q266.91 0.21 266.20500000000004 -0.085Q265.5 -0.38 265.135 -0.855Q264.77000000000004 -1.33 264.77000000000004 -1.85Q264.78000000000003 -2.22 264.95500000000004 -2.4400000000000004Q265.13 -2.66 265.43 -2.66Q265.75 -2.66 265.99 -2.455Q266.23 -2.25 266.45 -1.79Q266.8 -1.11 267.24 -0.8300000000000001Q267.68 -0.55 268.21000000000004 -0.55Z M283.27 -8.56Q282.59 -8.56 281.93999999999994 -8.055Q281.28999999999996 -7.55 280.80999999999995 -6.665Q280.33 -5.78 280.16999999999996 -4.63Q279.91999999999996 -2.85 280.41999999999996 -1.9500000000000002Q280.91999999999996 -1.05 281.96999999999997 -1.06Q282.46999999999997 -1.07 282.965 -1.28Q283.46 -1.49 283.865 -1.9100000000000001Q284.27 -2.33 284.5 -2.93Q284.65999999999997 -3.16 284.775 -3.2750000000000004Q284.89 -3.39 285.04999999999995 -3.38Q285.21 -3.38 285.28999999999996 -3.23Q285.37 -3.08 285.29999999999995 -2.7800000000000002Q285.21999999999997 -2.3000000000000003 284.91999999999996 -1.7800000000000002Q284.62 -1.26 284.095 -0.805Q283.57 -0.35000000000000003 282.825 -0.07000000000000002Q282.08 0.21 281.12 0.21Q279.26 0.21 278.43499999999995 -1.0150000000000001Q277.60999999999996 -2.24 277.96999999999997 -4.32Q278.15 -5.38 278.635 -6.295Q279.12 -7.21 279.86 -7.9Q280.59999999999997 -8.59 281.54499999999996 -8.98Q282.48999999999995 -9.370000000000001 283.58 -9.370000000000001Q284.45 -9.370000000000001 285.03 -9.06Q285.60999999999996 -8.75 285.89 -8.254999999999999Q286.16999999999996 -7.76 286.15 -7.17Q286.13 -6.5200000000000005 285.76 -6.175000000000001Q285.39 -5.83 284.94 -5.83Q284.53 -5.83 284.30999999999995 -6.03Q284.09 -6.23 284.09999999999997 -6.54Q284.09999999999997 -6.8100000000000005 284.17999999999995 -7.07Q284.26 -7.33 284.27 -7.62Q284.27 -8.040000000000001 284.005 -8.3Q283.73999999999995 -8.56 283.27 -8.56Z M292.63 -9.370000000000001Q293.87 -9.34 294.745 -8.77Q295.62 -8.2 295.995 -7.16Q296.37 -6.12 296.10999999999996 -4.66Q295.90999999999997 -3.5700000000000003 295.395 -2.66Q294.88 -1.75 294.12 -1.095Q293.35999999999996 -0.44 292.42999999999995 -0.095Q291.5 0.25 290.46 0.21Q289.25 0.17 288.39 -0.39499999999999996Q287.53 -0.96 287.16499999999996 -2.01Q286.79999999999995 -3.06 287.04999999999995 -4.5Q287.26 -5.6000000000000005 287.765 -6.51Q288.27 -7.42 289.015 -8.07Q289.76 -8.72 290.67999999999995 -9.065000000000001Q291.59999999999997 -9.41 292.63 -9.370000000000001ZM290.5 -0.64Q290.93 -0.59 291.35 -0.74Q291.77 -0.89 292.155 -1.215Q292.53999999999996 -1.54 292.865 -2.035Q293.19 -2.5300000000000002 293.445 -3.1900000000000004Q293.7 -3.85 293.87 -4.66Q294.13 -5.91 294.03999999999996 -6.75Q293.95 -7.59 293.575 -8.030000000000001Q293.2 -8.47 292.59 -8.52Q292.15999999999997 -8.57 291.755 -8.42Q291.34999999999997 -8.27 290.97499999999997 -7.945Q290.59999999999997 -7.62 290.28 -7.125Q289.96 -6.63 289.71 -5.970000000000001Q289.46 -5.3100000000000005 289.28999999999996 -4.51Q289.03 -3.25 289.115 -2.415Q289.2 -1.58 289.55999999999995 -1.1400000000000001Q289.91999999999996 -0.7000000000000001 290.5 -0.64Z M300.66999999999996 -7.7700000000000005 301.02 -8.76H303.48999999999995Q303.75999999999993 -8.76 303.905 -8.68Q304.04999999999995 -8.6 304.04999999999995 -8.39Q304.04999999999995 -8.22 303.91999999999996 -8.075000000000001Q303.78999999999996 -7.930000000000001 303.56499999999994 -7.8500000000000005Q303.34 -7.7700000000000005 303.04999999999995 -7.7700000000000005ZM298.02 -8.370000000000001Q298.02 -8.55 298.15999999999997 -8.66Q298.29999999999995 -8.77 298.59 -8.77H299.79999999999995L300.27 -10.71Q300.66999999999996 -12.43 301.60499999999996 -13.344999999999999Q302.53999999999996 -14.26 304.09999999999997 -14.26Q304.99999999999994 -14.26 305.42999999999995 -13.915Q305.85999999999996 -13.57 305.85999999999996 -13.11Q305.85999999999996 -12.64 305.5799999999999 -12.345Q305.29999999999995 -12.05 304.84 -12.05Q304.53999999999996 -12.05 304.28 -12.185Q304.02 -12.32 303.78 -12.485Q303.53999999999996 -12.65 303.29499999999996 -12.785Q303.04999999999995 -12.92 302.77 -12.92Q302.28999999999996 -12.92 301.9649999999999 -12.59Q301.63999999999993 -12.26 301.52 -11.72Q301.44999999999993 -11.4 301.50499999999994 -11.015Q301.55999999999995 -10.63 301.65999999999997 -10.22Q301.75999999999993 -9.81 301.79999999999995 -9.4Q301.84 -8.99 301.73999999999995 -8.61L299.24999999999994 0.59Q299.16999999999996 0.88 299.13 1.115Q299.09 1.35 299.09 1.55Q299.09 1.8 299.215 1.96Q299.34 2.12 299.46 2.265Q299.58 2.41 299.58 2.63Q299.58 2.92 299.28999999999996 3.17Q298.99999999999994 3.42 298.54499999999996 3.5700000000000003Q298.09 3.72 297.58 3.72Q296.97999999999996 3.72 296.79999999999995 3.2800000000000002Q296.61999999999995 2.84 296.86999999999995 1.94L299.31999999999994 -6.72Q299.48999999999995 -7.29 299.3399999999999 -7.550000000000001Q299.18999999999994 -7.8100000000000005 298.53 -7.890000000000001Q298.21999999999997 -8.01 298.12 -8.125Q298.02 -8.24 298.02 -8.370000000000001ZM307.09 -7.7700000000000005 307.44 -8.76H309.90999999999997Q310.17999999999995 -8.76 310.32499999999993 -8.68Q310.46999999999997 -8.6 310.46999999999997 -8.39Q310.46999999999997 -8.22 310.34 -8.075000000000001Q310.21 -7.930000000000001 309.985 -7.8500000000000005Q309.76 -7.7700000000000005 309.46999999999997 -7.7700000000000005ZM304.44 -8.370000000000001Q304.44 -8.55 304.58 -8.66Q304.71999999999997 -8.77 305.01 -8.77H306.21999999999997L306.69 -10.71Q307.09 -12.43 308.025 -13.344999999999999Q308.96 -14.26 310.52 -14.26Q311.41999999999996 -14.26 311.84999999999997 -13.915Q312.28 -13.57 312.28 -13.11Q312.28 -12.64 312.0 -12.345Q311.71999999999997 -12.05 311.26 -12.05Q310.96 -12.05 310.7 -12.185Q310.44 -12.32 310.2 -12.485Q309.96 -12.65 309.715 -12.785Q309.46999999999997 -12.92 309.19 -12.92Q308.71 -12.92 308.385 -12.59Q308.05999999999995 -12.26 307.94 -11.72Q307.86999999999995 -11.4 307.92499999999995 -11.015Q307.97999999999996 -10.63 308.0799999999999 -10.22Q308.17999999999995 -9.81 308.21999999999997 -9.4Q308.26 -8.99 308.15999999999997 -8.61L305.66999999999996 0.59Q305.59 0.88 305.54999999999995 1.115Q305.51 1.35 305.51 1.55Q305.51 1.8 305.635 1.96Q305.76 2.12 305.88 2.265Q306.0 2.41 306.0 2.63Q306.0 2.92 305.71 3.17Q305.41999999999996 3.42 304.965 3.5700000000000003Q304.51 3.72 304.0 3.72Q303.4 3.72 303.21999999999997 3.2800000000000002Q303.03999999999996 2.84 303.28999999999996 1.94L305.73999999999995 -6.72Q305.90999999999997 -7.29 305.76 -7.550000000000001Q305.60999999999996 -7.8100000000000005 304.95 -7.890000000000001Q304.64 -8.01 304.53999999999996 -8.125Q304.44 -8.24 304.44 -8.370000000000001Z M311.4 -4.13Q311.4 -4.13 311.77 -4.27Q312.14 -4.41 312.745 -4.635Q313.34999999999997 -4.86 314.04499999999996 -5.12Q314.73999999999995 -5.38 315.405 -5.635Q316.07 -5.89 316.57 -6.08L316.34 -5.76Q316.41999999999996 -6.01 316.46 -6.32Q316.5 -6.63 316.51 -7.05Q316.51 -7.72 316.21999999999997 -8.155Q315.92999999999995 -8.59 315.45 -8.59Q314.97999999999996 -8.59 314.47499999999997 -8.235Q313.96999999999997 -7.88 313.53 -7.25Q313.09 -6.62 312.78999999999996 -5.78Q312.48999999999995 -4.94 312.41999999999996 -3.97Q312.32 -2.5 312.88 -1.7650000000000001Q313.44 -1.03 314.46999999999997 -1.03Q315.09 -1.03 315.66999999999996 -1.2650000000000001Q316.25 -1.5 316.715 -1.95Q317.17999999999995 -2.4 317.42999999999995 -3.04Q317.58 -3.2600000000000002 317.695 -3.34Q317.81 -3.42 317.94 -3.42Q318.10999999999996 -3.41 318.2049999999999 -3.2750000000000004Q318.29999999999995 -3.14 318.21999999999997 -2.83Q318.08 -2.06 317.5 -1.365Q316.91999999999996 -0.67 315.93499999999995 -0.23000000000000004Q314.95 0.21 313.59 0.21Q312.42999999999995 0.21 311.66999999999996 -0.22500000000000003Q310.90999999999997 -0.66 310.56999999999994 -1.465Q310.22999999999996 -2.27 310.29999999999995 -3.39Q310.38 -4.59 310.855 -5.67Q311.33 -6.75 312.105 -7.58Q312.88 -8.41 313.855 -8.89Q314.83 -9.370000000000001 315.9 -9.370000000000001Q316.69 -9.370000000000001 317.225 -9.06Q317.76 -8.75 318.03999999999996 -8.23Q318.32 -7.71 318.36999999999995 -7.07Q318.38 -6.92 318.455 -6.82Q318.53 -6.72 318.65 -6.72Q318.79999999999995 -6.73 318.87 -6.665000000000001Q318.94 -6.6000000000000005 318.94 -6.47Q318.94 -6.32 318.80499999999995 -6.1850000000000005Q318.66999999999996 -6.05 318.28999999999996 -5.91Q317.88 -5.7700000000000005 317.225 -5.535Q316.57 -5.3 315.80499999999995 -5.02Q315.03999999999996 -4.74 314.275 -4.465Q313.51 -4.19 312.88 -3.9650000000000003Q312.25 -3.74 311.865 -3.6Q311.47999999999996 -3.46 311.47999999999996 -3.46Z M321.15 -4.13Q321.15 -4.13 321.52 -4.27Q321.89 -4.41 322.495 -4.635Q323.09999999999997 -4.86 323.79499999999996 -5.12Q324.48999999999995 -5.38 325.155 -5.635Q325.82 -5.89 326.32 -6.08L326.09 -5.76Q326.16999999999996 -6.01 326.21 -6.32Q326.25 -6.63 326.26 -7.05Q326.26 -7.72 325.96999999999997 -8.155Q325.67999999999995 -8.59 325.2 -8.59Q324.72999999999996 -8.59 324.22499999999997 -8.235Q323.71999999999997 -7.88 323.28 -7.25Q322.84 -6.62 322.53999999999996 -5.78Q322.23999999999995 -4.94 322.16999999999996 -3.97Q322.07 -2.5 322.63 -1.7650000000000001Q323.19 -1.03 324.21999999999997 -1.03Q324.84 -1.03 325.41999999999996 -1.2650000000000001Q326.0 -1.5 326.465 -1.95Q326.92999999999995 -2.4 327.17999999999995 -3.04Q327.33 -3.2600000000000002 327.445 -3.34Q327.56 -3.42 327.69 -3.42Q327.85999999999996 -3.41 327.9549999999999 -3.2750000000000004Q328.04999999999995 -3.14 327.96999999999997 -2.83Q327.83 -2.06 327.25 -1.365Q326.66999999999996 -0.67 325.68499999999995 -0.23000000000000004Q324.7 0.21 323.34 0.21Q322.17999999999995 0.21 321.41999999999996 -0.22500000000000003Q320.65999999999997 -0.66 320.31999999999994 -1.465Q319.97999999999996 -2.27 320.04999999999995 -3.39Q320.13 -4.59 320.605 -5.67Q321.08 -6.75 321.855 -7.58Q322.63 -8.41 323.605 -8.89Q324.58 -9.370000000000001 325.65 -9.370000000000001Q326.44 -9.370000000000001 326.975 -9.06Q327.51 -8.75 327.78999999999996 -8.23Q328.07 -7.71 328.11999999999995 -7.07Q328.13 -6.92 328.205 -6.82Q328.28 -6.72 328.4 -6.72Q328.54999999999995 -6.73 328.62 -6.665000000000001Q328.69 -6.6000000000000005 328.69 -6.47Q328.69 -6.32 328.55499999999995 -6.1850000000000005Q328.41999999999996 -6.05 328.03999999999996 -5.91Q327.63 -5.7700000000000005 326.975 -5.535Q326.32 -5.3 325.55499999999995 -5.02Q324.78999999999996 -4.74 324.025 -4.465Q323.26 -4.19 322.63 -3.9650000000000003Q322.0 -3.74 321.615 -3.6Q321.22999999999996 -3.46 321.22999999999996 -3.46Z M333.17999999999995 -12.61Q332.53999999999996 -12.61 332.28499999999997 -12.93Q332.03 -13.25 332.16999999999996 -13.77Q332.27 -14.16 332.53999999999996 -14.455Q332.81 -14.75 333.17499999999995 -14.915Q333.53999999999996 -15.08 333.92999999999995 -15.08Q334.63 -15.08 334.92999999999995 -14.555Q335.22999999999996 -14.030000000000001 334.95 -13.02Q334.72999999999996 -12.16 334.25 -11.455Q333.77 -10.75 333.12 -10.265Q332.46999999999997 -9.78 331.7 -9.57Q331.40999999999997 -9.5 331.275 -9.545Q331.14 -9.59 331.13 -9.74Q331.11999999999995 -9.870000000000001 331.23499999999996 -10.0Q331.34999999999997 -10.13 331.60999999999996 -10.21Q332.16999999999996 -10.41 332.60499999999996 -10.74Q333.03999999999996 -11.07 333.32499999999993 -11.465Q333.60999999999996 -11.86 333.7 -12.23Q333.75 -12.41 333.695 -12.51Q333.64 -12.61 333.45 -12.61Z M336.95 -0.55Q337.61999999999995 -0.55 338.03 -0.895Q338.43999999999994 -1.24 338.43999999999994 -1.78Q338.43999999999994 -2.08 338.31499999999994 -2.3600000000000003Q338.18999999999994 -2.64 337.8399999999999 -2.99Q337.48999999999995 -3.34 336.82 -3.83Q336.09 -4.37 335.67499999999995 -4.785Q335.26 -5.2 335.085 -5.615Q334.90999999999997 -6.03 334.90999999999997 -6.55Q334.90999999999997 -7.32 335.375 -7.96Q335.84 -8.6 336.705 -8.985Q337.57 -9.370000000000001 338.78999999999996 -9.370000000000001Q339.72999999999996 -9.370000000000001 340.38 -9.11Q341.03 -8.85 341.365 -8.42Q341.7 -7.99 341.7 -7.49Q341.71 -7.09 341.53 -6.87Q341.34999999999997 -6.65 341.03 -6.65Q340.73999999999995 -6.65 340.52 -6.835000000000001Q340.29999999999995 -7.0200000000000005 340.08 -7.5Q339.80999999999995 -8.06 339.43499999999995 -8.36Q339.05999999999995 -8.66 338.52 -8.66Q337.77 -8.66 337.325 -8.265Q336.88 -7.87 336.88 -7.2700000000000005Q336.88 -6.96 337.01 -6.66Q337.14 -6.36 337.485 -6.0Q337.83 -5.64 338.48999999999995 -5.12Q339.27 -4.53 339.68999999999994 -4.09Q340.10999999999996 -3.65 340.27 -3.255Q340.42999999999995 -2.86 340.42999999999995 -2.38Q340.42999999999995 -1.6300000000000001 339.96999999999997 -1.0450000000000002Q339.51 -0.46 338.66999999999996 -0.125Q337.83 0.21 336.66999999999996 0.21Q335.65 0.21 334.94499999999994 -0.085Q334.23999999999995 -0.38 333.875 -0.855Q333.51 -1.33 333.51 -1.85Q333.52 -2.22 333.69499999999994 -2.4400000000000004Q333.86999999999995 -2.66 334.16999999999996 -2.66Q334.48999999999995 -2.66 334.72999999999996 -2.455Q334.96999999999997 -2.25 335.18999999999994 -1.79Q335.53999999999996 -1.11 335.97999999999996 -0.8300000000000001Q336.41999999999996 -0.55 336.95 -0.55Z M352.30999999999995 -9.370000000000001Q353.54999999999995 -9.34 354.42499999999995 -8.77Q355.29999999999995 -8.2 355.67499999999995 -7.16Q356.04999999999995 -6.12 355.7899999999999 -4.66Q355.5899999999999 -3.5700000000000003 355.07499999999993 -2.66Q354.55999999999995 -1.75 353.79999999999995 -1.095Q353.0399999999999 -0.44 352.1099999999999 -0.095Q351.17999999999995 0.25 350.13999999999993 0.21Q348.92999999999995 0.17 348.06999999999994 -0.39499999999999996Q347.2099999999999 -0.96 346.8449999999999 -2.01Q346.4799999999999 -3.06 346.7299999999999 -4.5Q346.93999999999994 -5.6000000000000005 347.44499999999994 -6.51Q347.94999999999993 -7.42 348.69499999999994 -8.07Q349.43999999999994 -8.72 350.3599999999999 -9.065000000000001Q351.2799999999999 -9.41 352.30999999999995 -9.370000000000001ZM350.17999999999995 -0.64Q350.60999999999996 -0.59 351.03 -0.74Q351.44999999999993 -0.89 351.8349999999999 -1.215Q352.2199999999999 -1.54 352.54499999999996 -2.035Q352.86999999999995 -2.5300000000000002 353.12499999999994 -3.1900000000000004Q353.37999999999994 -3.85 353.54999999999995 -4.66Q353.80999999999995 -5.91 353.7199999999999 -6.75Q353.62999999999994 -7.59 353.25499999999994 -8.030000000000001Q352.87999999999994 -8.47 352.2699999999999 -8.52Q351.8399999999999 -8.57 351.43499999999995 -8.42Q351.0299999999999 -8.27 350.6549999999999 -7.945Q350.2799999999999 -7.62 349.9599999999999 -7.125Q349.63999999999993 -6.63 349.38999999999993 -5.970000000000001Q349.13999999999993 -5.3100000000000005 348.9699999999999 -4.51Q348.7099999999999 -3.25 348.79499999999996 -2.415Q348.87999999999994 -1.58 349.2399999999999 -1.1400000000000001Q349.5999999999999 -0.7000000000000001 350.17999999999995 -0.64Z M357.84999999999997 -7.32Q357.72999999999996 -7.38 357.73499999999996 -7.535Q357.73999999999995 -7.69 357.85999999999996 -7.92Q358.21999999999997 -8.58 358.895 -8.969999999999999Q359.56999999999994 -9.36 360.4 -9.36Q360.94999999999993 -9.36 361.27 -9.115Q361.59 -8.870000000000001 361.59 -8.39Q361.59 -8.1 361.47499999999997 -7.73Q361.35999999999996 -7.36 361.145 -6.835000000000001Q360.92999999999995 -6.3100000000000005 360.62499999999994 -5.57Q360.31999999999994 -4.83 359.93999999999994 -3.8000000000000003L359.9 -4.23Q360.47999999999996 -5.67 361.2049999999999 -6.66Q361.92999999999995 -7.65 362.7049999999999 -8.245000000000001Q363.47999999999996 -8.84 364.2149999999999 -9.1Q364.94999999999993 -9.36 365.55999999999995 -9.36Q366.4 -9.36 366.755 -9.004999999999999Q367.10999999999996 -8.65 367.06999999999994 -7.985Q367.03 -7.32 366.71 -6.41L365.36999999999995 -2.61Q365.09 -1.82 365.16499999999996 -1.505Q365.23999999999995 -1.19 365.50999999999993 -1.19Q365.66999999999996 -1.19 365.85499999999996 -1.29Q366.03999999999996 -1.3900000000000001 366.30999999999995 -1.6500000000000001Q366.47999999999996 -1.8 366.5899999999999 -1.84Q366.69999999999993 -1.8800000000000001 366.79999999999995 -1.83Q366.91999999999996 -1.78 366.91499999999996 -1.62Q366.90999999999997 -1.46 366.78999999999996 -1.24Q366.42999999999995 -0.58 365.76 -0.185Q365.09 0.21 364.27 0.21Q363.65 0.21 363.335 -0.075Q363.02 -0.36 363.01 -0.8999999999999999Q362.99999999999994 -1.44 363.25999999999993 -2.21L364.62999999999994 -6.12Q364.98999999999995 -7.12 364.88 -7.52Q364.77 -7.92 364.21999999999997 -7.92Q363.80999999999995 -7.92 363.275 -7.65Q362.73999999999995 -7.38 362.17499999999995 -6.84Q361.60999999999996 -6.3 361.0949999999999 -5.484999999999999Q360.5799999999999 -4.67 360.18999999999994 -3.58Q359.96999999999997 -2.96 359.84499999999997 -2.585Q359.71999999999997 -2.21 359.66999999999996 -1.99Q359.61999999999995 -1.77 359.61999999999995 -1.62Q359.61999999999995 -1.35 359.69999999999993 -1.17Q359.78 -0.99 359.78 -0.73Q359.78 -0.3 359.32499999999993 -0.045Q358.86999999999995 0.21 358.09 0.21Q357.46 0.21 357.3299999999999 -0.265Q357.19999999999993 -0.74 357.55999999999995 -1.74L359.28 -6.55Q359.55999999999995 -7.33 359.48499999999996 -7.65Q359.40999999999997 -7.97 359.13999999999993 -7.97Q358.97999999999996 -7.97 358.79499999999996 -7.865Q358.60999999999996 -7.76 358.34 -7.5Q358.16999999999996 -7.36 358.05999999999995 -7.315Q357.94999999999993 -7.2700000000000005 357.84999999999997 -7.32Z M382.59999999999997 -1.83Q382.71999999999997 -1.78 382.71999999999997 -1.62Q382.71999999999997 -1.46 382.59999999999997 -1.24Q382.23999999999995 -0.58 381.55999999999995 -0.185Q380.87999999999994 0.21 380.05999999999995 0.21Q379.49999999999994 0.21 379.18499999999995 -0.03500000000000002Q378.86999999999995 -0.28 378.86999999999995 -0.76Q378.86999999999995 -1.05 378.98499999999996 -1.42Q379.09999999999997 -1.79 379.30999999999995 -2.315Q379.5199999999999 -2.84 379.8299999999999 -3.58Q380.13999999999993 -4.32 380.5199999999999 -5.3500000000000005L380.55999999999995 -4.93Q379.97999999999996 -3.48 379.255 -2.495Q378.53 -1.51 377.755 -0.91Q376.97999999999996 -0.31 376.23999999999995 -0.05Q375.49999999999994 0.21 374.88999999999993 0.21Q374.04999999999995 0.21 373.69999999999993 -0.15000000000000002Q373.34999999999997 -0.51 373.385 -1.17Q373.41999999999996 -1.83 373.73999999999995 -2.74L375.0799999999999 -6.55Q375.35999999999996 -7.33 375.28999999999996 -7.65Q375.21999999999997 -7.97 374.94999999999993 -7.97Q374.78999999999996 -7.97 374.59999999999997 -7.865Q374.40999999999997 -7.76 374.15 -7.5Q373.97999999999996 -7.36 373.86999999999995 -7.315Q373.75999999999993 -7.2700000000000005 373.65999999999997 -7.32Q373.53999999999996 -7.38 373.53999999999996 -7.535Q373.53999999999996 -7.69 373.65999999999997 -7.92Q374.0199999999999 -8.58 374.68999999999994 -8.969999999999999Q375.35999999999996 -9.36 376.17999999999995 -9.36Q376.80999999999995 -9.36 377.11999999999995 -9.08Q377.42999999999995 -8.8 377.44999999999993 -8.26Q377.46999999999997 -7.72 377.18999999999994 -6.95L375.81999999999994 -3.0300000000000002Q375.46 -2.04 375.57499999999993 -1.6400000000000001Q375.68999999999994 -1.24 376.22999999999996 -1.24Q376.65 -1.24 377.18499999999995 -1.51Q377.71999999999997 -1.78 378.28499999999997 -2.32Q378.84999999999997 -2.86 379.36499999999995 -3.675Q379.87999999999994 -4.49 380.2699999999999 -5.57Q380.48999999999995 -6.19 380.61499999999995 -6.57Q380.73999999999995 -6.95 380.78499999999997 -7.17Q380.8299999999999 -7.390000000000001 380.8299999999999 -7.54Q380.8299999999999 -7.8100000000000005 380.74999999999994 -7.985Q380.66999999999996 -8.16 380.66999999999996 -8.42Q380.66999999999996 -8.85 381.13 -9.105Q381.59 -9.36 382.35999999999996 -9.36Q382.98999999999995 -9.36 383.11999999999995 -8.89Q383.24999999999994 -8.42 382.88999999999993 -7.41L381.17999999999995 -2.61Q380.9 -1.82 380.97499999999997 -1.505Q381.04999999999995 -1.19 381.30999999999995 -1.19Q381.47999999999996 -1.19 381.66499999999996 -1.29Q381.84999999999997 -1.3900000000000001 382.10999999999996 -1.6500000000000001Q382.28 -1.8 382.39 -1.84Q382.49999999999994 -1.8800000000000001 382.59999999999997 -1.83Z M387.61999999999995 -0.55Q388.2899999999999 -0.55 388.69999999999993 -0.895Q389.1099999999999 -1.24 389.1099999999999 -1.78Q389.1099999999999 -2.08 388.9849999999999 -2.3600000000000003Q388.8599999999999 -2.64 388.5099999999999 -2.99Q388.1599999999999 -3.34 387.48999999999995 -3.83Q386.75999999999993 -4.37 386.3449999999999 -4.785Q385.92999999999995 -5.2 385.75499999999994 -5.615Q385.5799999999999 -6.03 385.5799999999999 -6.55Q385.5799999999999 -7.32 386.04499999999996 -7.96Q386.50999999999993 -8.6 387.37499999999994 -8.985Q388.23999999999995 -9.370000000000001 389.4599999999999 -9.370000000000001Q390.3999999999999 -9.370000000000001 391.04999999999995 -9.11Q391.69999999999993 -8.85 392.03499999999997 -8.42Q392.36999999999995 -7.99 392.36999999999995 -7.49Q392.37999999999994 -7.09 392.19999999999993 -6.87Q392.0199999999999 -6.65 391.69999999999993 -6.65Q391.4099999999999 -6.65 391.18999999999994 -6.835000000000001Q390.9699999999999 -7.0200000000000005 390.74999999999994 -7.5Q390.4799999999999 -8.06 390.1049999999999 -8.36Q389.7299999999999 -8.66 389.18999999999994 -8.66Q388.43999999999994 -8.66 387.99499999999995 -8.265Q387.54999999999995 -7.87 387.54999999999995 -7.2700000000000005Q387.54999999999995 -6.96 387.67999999999995 -6.66Q387.80999999999995 -6.36 388.155 -6.0Q388.49999999999994 -5.64 389.1599999999999 -5.12Q389.93999999999994 -4.53 390.3599999999999 -4.09Q390.7799999999999 -3.65 390.93999999999994 -3.255Q391.0999999999999 -2.86 391.0999999999999 -2.38Q391.0999999999999 -1.6300000000000001 390.63999999999993 -1.0450000000000002Q390.17999999999995 -0.46 389.3399999999999 -0.125Q388.49999999999994 0.21 387.3399999999999 0.21Q386.31999999999994 0.21 385.6149999999999 -0.085Q384.9099999999999 -0.38 384.54499999999996 -0.855Q384.17999999999995 -1.33 384.17999999999995 -1.85Q384.18999999999994 -2.22 384.3649999999999 -2.4400000000000004Q384.5399999999999 -2.66 384.8399999999999 -2.66Q385.1599999999999 -2.66 385.3999999999999 -2.455Q385.63999999999993 -2.25 385.8599999999999 -1.79Q386.2099999999999 -1.11 386.6499999999999 -0.8300000000000001Q387.0899999999999 -0.55 387.61999999999995 -0.55Z M394.0799999999999 0.16Q393.4799999999999 0.16 393.1549999999999 -0.175Q392.8299999999999 -0.51 392.88999999999993 -1.0Q392.9299999999999 -1.3800000000000001 393.1749999999999 -1.705Q393.4199999999999 -2.0300000000000002 393.82499999999993 -2.225Q394.2299999999999 -2.42 394.7399999999999 -2.42Q395.3699999999999 -2.42 395.6599999999999 -2.08Q395.94999999999993 -1.74 395.88999999999993 -1.23Q395.8599999999999 -0.86 395.6199999999999 -0.54Q395.3799999999999 -0.22 394.9849999999999 -0.03Q394.5899999999999 0.16 394.0799999999999 0.16Z"/>
</svg>
