<svg xmlns="http://www.w3.org/2000/svg" viewBox="0 0 300 300" role="img" aria-label="Concept 2 — a bartender-stamp seal: a star at last call, a dashed route home, a sunrise cup">
<circle cx="150" cy="150" r="140" fill="#faf5eb"/><circle cx="150" cy="150" r="136" fill="none" stroke="#241a10" stroke-width="3"/><circle cx="150" cy="150" r="104" fill="none" stroke="#241a10" stroke-width="1.2"/><g transform="translate(68.77,64.41) rotate(-43.50)"><path transform="translate(-4.70,0)" fill="#241a10" d="M2.119140625 -2.912109375V-4.2998046875Q2.4677734375 -4.7783203125 2.81298828125 -5.2158203125Q3.158203125 -5.6533203125 3.5205078125 -6.0703125Q3.8828125 -6.4873046875 4.265625 -6.8974609375L7.3076171875 -10.185546875H9.009765625L4.662109375 -5.5234375L4.59375 -5.5302734375ZM1.23046875 0.0V-10.185546875H2.529296875V-6.69921875L2.5087890625 -4.5048828125L2.529296875 -3.869140625V0.0ZM7.478515625 0.0 3.7939453125 -5.181640625 4.6005859375 -6.193359375 9.0166015625 0.0Z"/></g><g transform="translate(79.62,55.29) rotate(-36.62)"><path transform="translate(-5.27,0)" fill="#241a10" d="M1.23046875 0.0V-10.185546875H2.76171875L6.904296875 -3.6708984375Q7.068359375 -3.41796875 7.30078125 -3.021484375Q7.533203125 -2.625 7.80322265625 -2.1259765625Q8.0732421875 -1.626953125 8.3330078125 -1.0595703125H8.1484375Q8.0869140625 -1.6474609375 8.0595703125 -2.18408203125Q8.0322265625 -2.720703125 8.025390625 -3.171875Q8.0185546875 -3.623046875 8.0185546875 -3.9375V-10.185546875H9.3173828125V0.0H7.7724609375L4.0810546875 -5.796875Q3.828125 -6.2001953125 3.57177734375 -6.62744140625Q3.3154296875 -7.0546875 2.9873046875 -7.63916015625Q2.6591796875 -8.2236328125 2.173828125 -9.0849609375H2.4130859375Q2.447265625 -8.326171875 2.474609375 -7.68359375Q2.501953125 -7.041015625 2.51904296875 -6.5625Q2.5361328125 -6.083984375 2.5361328125 -5.810546875V0.0Z"/></g><g transform="translate(92.04,47.21) rotate(-29.42)"><path transform="translate(-5.35,0)" fill="#241a10" d="M5.359375 0.13671875Q4.0537109375 0.13671875 3.03173828125 -0.49560546875Q2.009765625 -1.1279296875 1.421875 -2.30029296875Q0.833984375 -3.47265625 0.833984375 -5.0859375Q0.833984375 -6.7060546875 1.421875 -7.87841796875Q2.009765625 -9.05078125 3.03173828125 -9.6865234375Q4.0537109375 -10.322265625 5.359375 -10.322265625Q6.6650390625 -10.322265625 7.68359375 -9.6865234375Q8.7021484375 -9.05078125 9.28662109375 -7.87841796875Q9.87109375 -6.7060546875 9.87109375 -5.0859375Q9.87109375 -3.47265625 9.28662109375 -2.30029296875Q8.7021484375 -1.1279296875 7.68359375 -0.49560546875Q6.6650390625 0.13671875 5.359375 0.13671875ZM5.359375 -1.06640625Q6.2685546875 -1.06640625 7.00341796875 -1.52783203125Q7.73828125 -1.9892578125 8.17236328125 -2.88818359375Q8.6064453125 -3.787109375 8.6064453125 -5.0859375Q8.6064453125 -6.3984375 8.17236328125 -7.29736328125Q7.73828125 -8.1962890625 7.00341796875 -8.65771484375Q6.2685546875 -9.119140625 5.359375 -9.119140625Q4.443359375 -9.119140625 3.705078125 -8.654296875Q2.966796875 -8.189453125 2.53271484375 -7.29052734375Q2.0986328125 -6.3916015625 2.0986328125 -5.0859375Q2.0986328125 -3.787109375 2.53271484375 -2.8916015625Q2.966796875 -1.99609375 3.705078125 -1.53125Q4.443359375 -1.06640625 5.359375 -1.06640625Z"/></g><g transform="translate(104.92,40.95) rotate(-22.46)"><path transform="translate(-4.77,0)" fill="#241a10" d="M0.3896484375 0.0 4.375 -5.6943359375V-4.73046875L0.615234375 -10.185546875H2.119140625L3.5888671875 -8.025390625Q3.9169921875 -7.546875 4.12548828125 -7.21875Q4.333984375 -6.890625 4.50830078125 -6.576171875Q4.6826171875 -6.26171875 4.9013671875 -5.82421875H4.67578125Q4.89453125 -6.2548828125 5.06884765625 -6.5693359375Q5.2431640625 -6.8837890625 5.45849609375 -7.21533203125Q5.673828125 -7.546875 6.001953125 -8.025390625L7.4990234375 -10.185546875H8.96875L5.2158203125 -4.78515625V-5.7421875L9.16015625 0.0H7.6630859375L5.87890625 -2.583984375Q5.591796875 -3.0078125 5.3935546875 -3.31201171875Q5.1953125 -3.6162109375 5.0244140625 -3.92041015625Q4.853515625 -4.224609375 4.6416015625 -4.6484375H4.921875Q4.716796875 -4.2451171875 4.54248046875 -3.94091796875Q4.3681640625 -3.63671875 4.16650390625 -3.32568359375Q3.96484375 -3.0146484375 3.6640625 -2.583984375L1.8662109375 0.0Z"/></g><g transform="translate(125.51,34.57) rotate(-11.98)"><path transform="translate(-4.47,0)" fill="#241a10" d="M1.23046875 0.0V-10.185546875H4.716796875Q5.90625 -10.185546875 6.67529296875 -9.75146484375Q7.4443359375 -9.3173828125 7.81689453125 -8.5859375Q8.189453125 -7.8544921875 8.189453125 -6.9453125Q8.189453125 -6.0361328125 7.81689453125 -5.2978515625Q7.4443359375 -4.5595703125 6.6787109375 -4.1220703125Q5.9130859375 -3.6845703125 4.7236328125 -3.6845703125H2.255859375V-4.826171875H4.662109375Q5.46875 -4.826171875 5.9609375 -5.10302734375Q6.453125 -5.3798828125 6.67529296875 -5.86181640625Q6.8974609375 -6.34375 6.8974609375 -6.9453125Q6.8974609375 -7.546875 6.67529296875 -8.02197265625Q6.453125 -8.4970703125 5.95751953125 -8.7705078125Q5.4619140625 -9.0439453125 4.6484375 -9.0439453125H2.529296875V0.0Z"/></g><g transform="translate(135.91,32.84) rotate(-6.86)"><path transform="translate(-1.88,0)" fill="#241a10" d="M2.529296875 -10.185546875V0.0H1.23046875V-10.185546875Z"/></g><g transform="translate(147.07,32.04) rotate(-1.42)"><path transform="translate(-5.11,0)" fill="#241a10" d="M5.3525390625 0.13671875Q4.046875 0.13671875 3.02490234375 -0.49560546875Q2.0029296875 -1.1279296875 1.41845703125 -2.30029296875Q0.833984375 -3.47265625 0.833984375 -5.0859375Q0.833984375 -6.7060546875 1.41845703125 -7.87841796875Q2.0029296875 -9.05078125 3.02490234375 -9.6865234375Q4.046875 -10.322265625 5.3525390625 -10.322265625Q6.125 -10.322265625 6.81201171875 -10.0966796875Q7.4990234375 -9.87109375 8.0458984375 -9.43701171875Q8.5927734375 -9.0029296875 8.95849609375 -8.38427734375Q9.32421875 -7.765625 9.4609375 -6.9794921875H8.162109375Q8.052734375 -7.505859375 7.78955078125 -7.90234375Q7.5263671875 -8.298828125 7.14697265625 -8.572265625Q6.767578125 -8.845703125 6.3095703125 -8.982421875Q5.8515625 -9.119140625 5.3525390625 -9.119140625Q4.4365234375 -9.119140625 3.6982421875 -8.654296875Q2.9599609375 -8.189453125 2.529296875 -7.29052734375Q2.0986328125 -6.3916015625 2.0986328125 -5.0859375Q2.0986328125 -3.787109375 2.53271484375 -2.88818359375Q2.966796875 -1.9892578125 3.705078125 -1.52783203125Q4.443359375 -1.06640625 5.3525390625 -1.06640625Q5.8515625 -1.06640625 6.3095703125 -1.20654296875Q6.767578125 -1.3466796875 7.14697265625 -1.61669921875Q7.5263671875 -1.88671875 7.78955078125 -2.28662109375Q8.052734375 -2.6865234375 8.162109375 -3.2060546875H9.4609375Q9.3310546875 -2.4267578125 8.96533203125 -1.8115234375Q8.599609375 -1.1962890625 8.052734375 -0.7587890625Q7.505859375 -0.3212890625 6.81884765625 -0.09228515625Q6.1318359375 0.13671875 5.3525390625 0.13671875Z"/></g><g transform="translate(161.07,32.52) rotate(5.38)"><path transform="translate(-4.70,0)" fill="#241a10" d="M2.119140625 -2.912109375V-4.2998046875Q2.4677734375 -4.7783203125 2.81298828125 -5.2158203125Q3.158203125 -5.6533203125 3.5205078125 -6.0703125Q3.8828125 -6.4873046875 4.265625 -6.8974609375L7.3076171875 -10.185546875H9.009765625L4.662109375 -5.5234375L4.59375 -5.5302734375ZM1.23046875 0.0V-10.185546875H2.529296875V-6.69921875L2.5087890625 -4.5048828125L2.529296875 -3.869140625V0.0ZM7.478515625 0.0 3.7939453125 -5.181640625 4.6005859375 -6.193359375 9.0166015625 0.0Z"/></g><g transform="translate(173.06,34.28) rotate(11.27)"><path transform="translate(-3.22,0)" fill="#241a10" d="M5.455078125 -4.9150390625V-3.7802734375H0.984375V-4.9150390625Z"/></g><g transform="translate(186.35,37.74) rotate(17.94)"><path transform="translate(-6.32,0)" fill="#241a10" d="M1.23046875 0.0V-10.185546875H3.076171875L5.5849609375 -3.759765625Q5.673828125 -3.5341796875 5.78662109375 -3.19580078125Q5.8994140625 -2.857421875 6.02587890625 -2.4609375Q6.15234375 -2.064453125 6.2685546875 -1.67138671875Q6.384765625 -1.2783203125 6.4736328125 -0.943359375H6.1865234375Q6.2822265625 -1.2578125 6.3984375 -1.64404296875Q6.5146484375 -2.0302734375 6.64111328125 -2.43017578125Q6.767578125 -2.830078125 6.8837890625 -3.1787109375Q7.0 -3.52734375 7.0888671875 -3.759765625L9.5634765625 -10.185546875H11.416015625V0.0H10.1376953125V-5.8173828125Q10.1376953125 -6.1318359375 10.14111328125 -6.53515625Q10.14453125 -6.9384765625 10.15478515625 -7.3828125Q10.1650390625 -7.8271484375 10.17529296875 -8.28515625Q10.185546875 -8.7431640625 10.1923828125 -9.173828125H10.3017578125Q10.158203125 -8.7021484375 9.99755859375 -8.21337890625Q9.8369140625 -7.724609375 9.68310546875 -7.27001953125Q9.529296875 -6.8154296875 9.392578125 -6.439453125Q9.255859375 -6.0634765625 9.16015625 -5.8173828125L6.8837890625 0.0H5.755859375L3.4453125 -5.8173828125Q3.349609375 -6.056640625 3.2197265625 -6.42236328125Q3.08984375 -6.7880859375 2.93603515625 -7.23583984375Q2.7822265625 -7.68359375 2.6181640625 -8.17919921875Q2.4541015625 -8.6748046875 2.283203125 -9.173828125H2.40625Q2.419921875 -8.791015625 2.43017578125 -8.3466796875Q2.4404296875 -7.90234375 2.447265625 -7.44775390625Q2.4541015625 -6.9931640625 2.4609375 -6.57275390625Q2.4677734375 -6.15234375 2.4677734375 -5.8173828125V0.0Z"/></g><g transform="translate(200.05,43.14) rotate(25.10)"><path transform="translate(-4.21,0)" fill="#241a10" d="M1.23046875 0.0V-10.185546875H7.4375V-9.037109375H2.529296875V-5.71484375H7.1025390625V-4.56640625H2.529296875V-1.1484375H7.4990234375V0.0Z"/></g><g transform="translate(210.32,48.58) rotate(30.74)"><path transform="translate(-3.22,0)" fill="#241a10" d="M5.455078125 -4.9150390625V-3.7802734375H0.984375V-4.9150390625Z"/></g><g transform="translate(220.81,55.60) rotate(36.87)"><path transform="translate(-5.21,0)" fill="#241a10" d="M5.2158203125 0.1640625Q4.0126953125 0.1640625 3.11376953125 -0.3076171875Q2.21484375 -0.779296875 1.72265625 -1.599609375Q1.23046875 -2.419921875 1.23046875 -3.4658203125V-10.185546875H2.529296875V-3.568359375Q2.529296875 -2.8369140625 2.85400390625 -2.26611328125Q3.1787109375 -1.6953125 3.7802734375 -1.3671875Q4.3818359375 -1.0390625 5.2158203125 -1.0390625Q6.0498046875 -1.0390625 6.64794921875 -1.3671875Q7.24609375 -1.6953125 7.5673828125 -2.26611328125Q7.888671875 -2.8369140625 7.888671875 -3.568359375V-10.185546875H9.1875V-3.4658203125Q9.1875 -2.419921875 8.6953125 -1.599609375Q8.203125 -0.779296875 7.31103515625 -0.3076171875Q6.4189453125 0.1640625 5.2158203125 0.1640625Z"/></g><g transform="translate(231.39,64.57) rotate(43.61)"><path transform="translate(-4.47,0)" fill="#241a10" d="M1.23046875 0.0V-10.185546875H4.716796875Q5.90625 -10.185546875 6.67529296875 -9.75146484375Q7.4443359375 -9.3173828125 7.81689453125 -8.5859375Q8.189453125 -7.8544921875 8.189453125 -6.9453125Q8.189453125 -6.0361328125 7.81689453125 -5.2978515625Q7.4443359375 -4.5595703125 6.6787109375 -4.1220703125Q5.9130859375 -3.6845703125 4.7236328125 -3.6845703125H2.255859375V-4.826171875H4.662109375Q5.46875 -4.826171875 5.9609375 -5.10302734375Q6.453125 -5.3798828125 6.67529296875 -5.86181640625Q6.8974609375 -6.34375 6.8974609375 -6.9453125Q6.8974609375 -7.546875 6.67529296875 -8.02197265625Q6.453125 -8.4970703125 5.95751953125 -8.7705078125Q5.4619140625 -9.0439453125 4.6484375 -9.0439453125H2.529296875V0.0Z"/></g><g transform="translate(66.38,230.39) rotate(46.13)"><path transform="translate(-3.11,0)" fill="#b04e00" d="M0.966796875 0.0V-8.0029296875H1.9873046875V-0.90234375H5.693359375V0.0Z"/></g><g transform="translate(73.27,237.00) rotate(41.41)"><path transform="translate(-3.79,0)" fill="#b04e00" d="M0.279296875 0.0 3.18505859375 -8.0029296875H4.36669921875L7.31005859375 0.0H6.23583984375L4.53857421875 -4.748046875Q4.3828125 -5.1884765625 4.176025390625 -5.846435546875Q3.96923828125 -6.50439453125 3.673828125 -7.52490234375H3.8671875Q3.5771484375 -6.49365234375 3.364990234375 -5.824951171875Q3.15283203125 -5.15625 3.01318359375 -4.748046875L1.3642578125 0.0ZM1.740234375 -2.234375V-3.1259765625H5.84912109375V-2.234375Z"/></g><g transform="translate(81.01,243.26) rotate(36.49)"><path transform="translate(-3.53,0)" fill="#b04e00" d="M3.52880859375 0.1396484375Q2.6640625 0.1396484375 2.027587890625 -0.1396484375Q1.39111328125 -0.4189453125 1.03125 -0.921142578125Q0.67138671875 -1.42333984375 0.623046875 -2.0947265625H1.67041015625Q1.71337890625 -1.6435546875 1.9765625 -1.350830078125Q2.23974609375 -1.05810546875 2.650634765625 -0.915771484375Q3.0615234375 -0.7734375 3.52880859375 -0.7734375Q4.0712890625 -0.7734375 4.503662109375 -0.95068359375Q4.93603515625 -1.1279296875 5.1884765625 -1.4501953125Q5.44091796875 -1.7724609375 5.44091796875 -2.19677734375Q5.44091796875 -2.58349609375 5.223388671875 -2.8251953125Q5.005859375 -3.06689453125 4.64599609375 -3.22265625Q4.2861328125 -3.37841796875 3.8564453125 -3.49658203125L2.8896484375 -3.7705078125Q1.9228515625 -4.04443359375 1.3857421875 -4.5546875Q0.8486328125 -5.06494140625 0.8486328125 -5.85986328125Q0.8486328125 -6.53662109375 1.2138671875 -7.044189453125Q1.5791015625 -7.5517578125 2.2021484375 -7.8310546875Q2.8251953125 -8.1103515625 3.5986328125 -8.1103515625Q4.38818359375 -8.1103515625 4.9951171875 -7.8310546875Q5.60205078125 -7.5517578125 5.953857421875 -7.071044921875Q6.3056640625 -6.59033203125 6.3271484375 -5.9833984375H5.328125Q5.25830078125 -6.56884765625 4.76953125 -6.888427734375Q4.28076171875 -7.2080078125 3.56640625 -7.2080078125Q3.05078125 -7.2080078125 2.661376953125 -7.038818359375Q2.27197265625 -6.86962890625 2.05712890625 -6.576904296875Q1.84228515625 -6.2841796875 1.84228515625 -5.908203125Q1.84228515625 -5.4892578125 2.102783203125 -5.234130859375Q2.36328125 -4.97900390625 2.720458984375 -4.836669921875Q3.07763671875 -4.6943359375 3.36767578125 -4.61376953125L4.16796875 -4.3935546875Q4.490234375 -4.3076171875 4.879638671875 -4.1572265625Q5.26904296875 -4.0068359375 5.62353515625 -3.757080078125Q5.97802734375 -3.50732421875 6.206298828125 -3.123291015625Q6.4345703125 -2.7392578125 6.4345703125 -2.1806640625Q6.4345703125 -1.525390625 6.093505859375 -0.9990234375Q5.75244140625 -0.47265625 5.1025390625 -0.16650390625Q4.45263671875 0.1396484375 3.52880859375 0.1396484375Z"/></g><g transform="translate(89.06,248.70) rotate(31.69)"><path transform="translate(-3.55,0)" fill="#b04e00" d="M0.5263671875 -7.1005859375V-8.0029296875H6.57421875V-7.1005859375H4.06591796875V0.0H3.04541015625V-7.1005859375Z"/></g><g transform="translate(103.16,256.12) rotate(23.82)"><path transform="translate(-4.02,0)" fill="#b04e00" d="M4.20556640625 0.107421875Q3.1796875 0.107421875 2.376708984375 -0.389404296875Q1.57373046875 -0.88623046875 1.114501953125 -1.807373046875Q0.6552734375 -2.728515625 0.6552734375 -3.99609375Q0.6552734375 -5.26904296875 1.114501953125 -6.190185546875Q1.57373046875 -7.111328125 2.376708984375 -7.61083984375Q3.1796875 -8.1103515625 4.20556640625 -8.1103515625Q4.8125 -8.1103515625 5.352294921875 -7.93310546875Q5.89208984375 -7.755859375 6.32177734375 -7.414794921875Q6.75146484375 -7.07373046875 7.038818359375 -6.587646484375Q7.326171875 -6.1015625 7.43359375 -5.48388671875H6.4130859375Q6.3271484375 -5.8974609375 6.120361328125 -6.208984375Q5.91357421875 -6.5205078125 5.615478515625 -6.7353515625Q5.3173828125 -6.9501953125 4.95751953125 -7.0576171875Q4.59765625 -7.1650390625 4.20556640625 -7.1650390625Q3.48583984375 -7.1650390625 2.90576171875 -6.7998046875Q2.32568359375 -6.4345703125 1.9873046875 -5.728271484375Q1.64892578125 -5.02197265625 1.64892578125 -3.99609375Q1.64892578125 -2.9755859375 1.989990234375 -2.269287109375Q2.3310546875 -1.56298828125 2.9111328125 -1.200439453125Q3.4912109375 -0.837890625 4.20556640625 -0.837890625Q4.59765625 -0.837890625 4.95751953125 -0.947998046875Q5.3173828125 -1.05810546875 5.615478515625 -1.270263671875Q5.91357421875 -1.482421875 6.120361328125 -1.796630859375Q6.3271484375 -2.11083984375 6.4130859375 -2.51904296875H7.43359375Q7.33154296875 -1.90673828125 7.044189453125 -1.42333984375Q6.7568359375 -0.93994140625 6.3271484375 -0.59619140625Q5.8974609375 -0.25244140625 5.357666015625 -0.072509765625Q4.81787109375 0.107421875 4.20556640625 0.107421875Z"/></g><g transform="translate(112.90,259.91) rotate(18.65)"><path transform="translate(-3.79,0)" fill="#b04e00" d="M0.279296875 0.0 3.18505859375 -8.0029296875H4.36669921875L7.31005859375 0.0H6.23583984375L4.53857421875 -4.748046875Q4.3828125 -5.1884765625 4.176025390625 -5.846435546875Q3.96923828125 -6.50439453125 3.673828125 -7.52490234375H3.8671875Q3.5771484375 -6.49365234375 3.364990234375 -5.824951171875Q3.15283203125 -5.15625 3.01318359375 -4.748046875L1.3642578125 0.0ZM1.740234375 -2.234375V-3.1259765625H5.84912109375V-2.234375Z"/></g><g transform="translate(122.05,262.58) rotate(13.94)"><path transform="translate(-3.11,0)" fill="#b04e00" d="M0.966796875 0.0V-8.0029296875H1.9873046875V-0.90234375H5.693359375V0.0Z"/></g><g transform="translate(130.73,264.39) rotate(9.56)"><path transform="translate(-3.11,0)" fill="#b04e00" d="M0.966796875 0.0V-8.0029296875H1.9873046875V-0.90234375H5.693359375V0.0Z"/></g><g transform="translate(143.71,265.83) rotate(3.11)"><path transform="translate(-1.58,0)" fill="#b04e00" d="M1.58447265625 -3.07763671875Q1.28369140625 -3.07763671875 1.071533203125 -3.289794921875Q0.859375 -3.501953125 0.859375 -3.802734375Q0.859375 -4.103515625 1.071533203125 -4.315673828125Q1.28369140625 -4.52783203125 1.58447265625 -4.52783203125Q1.88525390625 -4.52783203125 2.097412109375 -4.315673828125Q2.3095703125 -4.103515625 2.3095703125 -3.802734375Q2.3095703125 -3.501953125 2.097412109375 -3.289794921875Q1.88525390625 -3.07763671875 1.58447265625 -3.07763671875Z"/></g><g transform="translate(156.91,265.79) rotate(-3.41)"><path transform="translate(-3.25,0)" fill="#b04e00" d="M0.966796875 0.0V-8.0029296875H5.80615234375V-7.1005859375H1.9873046875V-4.361328125H5.44091796875V-3.458984375H1.9873046875V0.0Z"/></g><g transform="translate(164.24,265.12) rotate(-7.05)"><path transform="translate(-1.48,0)" fill="#b04e00" d="M1.9873046875 -8.0029296875V0.0H0.966796875V-8.0029296875Z"/></g><g transform="translate(171.80,263.93) rotate(-10.83)"><path transform="translate(-3.54,0)" fill="#b04e00" d="M0.966796875 0.0V-8.0029296875H3.7060546875Q4.640625 -8.0029296875 5.244873046875 -7.683349609375Q5.84912109375 -7.36376953125 6.141845703125 -6.80517578125Q6.4345703125 -6.24658203125 6.4345703125 -5.5322265625Q6.4345703125 -4.81787109375 6.141845703125 -4.27001953125Q5.84912109375 -3.72216796875 5.24755859375 -3.413330078125Q4.64599609375 -3.1044921875 3.71142578125 -3.1044921875H1.5361328125V-4.01220703125H3.6630859375Q4.296875 -4.01220703125 4.680908203125 -4.197509765625Q5.06494140625 -4.3828125 5.2421875 -4.723876953125Q5.41943359375 -5.06494140625 5.41943359375 -5.5322265625Q5.41943359375 -6.01025390625 5.2421875 -6.362060546875Q5.06494140625 -6.7138671875 4.67822265625 -6.909912109375Q4.29150390625 -7.10595703125 3.65234375 -7.10595703125H1.9873046875V0.0ZM5.564453125 0.0 3.630859375 -3.60400390625H4.7802734375L6.74609375 0.0Z"/></g><g transform="translate(181.25,261.71) rotate(-15.63)"><path transform="translate(-3.53,0)" fill="#b04e00" d="M3.52880859375 0.1396484375Q2.6640625 0.1396484375 2.027587890625 -0.1396484375Q1.39111328125 -0.4189453125 1.03125 -0.921142578125Q0.67138671875 -1.42333984375 0.623046875 -2.0947265625H1.67041015625Q1.71337890625 -1.6435546875 1.9765625 -1.350830078125Q2.23974609375 -1.05810546875 2.650634765625 -0.915771484375Q3.0615234375 -0.7734375 3.52880859375 -0.7734375Q4.0712890625 -0.7734375 4.503662109375 -0.95068359375Q4.93603515625 -1.1279296875 5.1884765625 -1.4501953125Q5.44091796875 -1.7724609375 5.44091796875 -2.19677734375Q5.44091796875 -2.58349609375 5.223388671875 -2.8251953125Q5.005859375 -3.06689453125 4.64599609375 -3.22265625Q4.2861328125 -3.37841796875 3.8564453125 -3.49658203125L2.8896484375 -3.7705078125Q1.9228515625 -4.04443359375 1.3857421875 -4.5546875Q0.8486328125 -5.06494140625 0.8486328125 -5.85986328125Q0.8486328125 -6.53662109375 1.2138671875 -7.044189453125Q1.5791015625 -7.5517578125 2.2021484375 -7.8310546875Q2.8251953125 -8.1103515625 3.5986328125 -8.1103515625Q4.38818359375 -8.1103515625 4.9951171875 -7.8310546875Q5.60205078125 -7.5517578125 5.953857421875 -7.071044921875Q6.3056640625 -6.59033203125 6.3271484375 -5.9833984375H5.328125Q5.25830078125 -6.56884765625 4.76953125 -6.888427734375Q4.28076171875 -7.2080078125 3.56640625 -7.2080078125Q3.05078125 -7.2080078125 2.661376953125 -7.038818359375Q2.27197265625 -6.86962890625 2.05712890625 -6.576904296875Q1.84228515625 -6.2841796875 1.84228515625 -5.908203125Q1.84228515625 -5.4892578125 2.102783203125 -5.234130859375Q2.36328125 -4.97900390625 2.720458984375 -4.836669921875Q3.07763671875 -4.6943359375 3.36767578125 -4.61376953125L4.16796875 -4.3935546875Q4.490234375 -4.3076171875 4.879638671875 -4.1572265625Q5.26904296875 -4.0068359375 5.62353515625 -3.757080078125Q5.97802734375 -3.50732421875 6.206298828125 -3.123291015625Q6.4345703125 -2.7392578125 6.4345703125 -2.1806640625Q6.4345703125 -1.525390625 6.093505859375 -0.9990234375Q5.75244140625 -0.47265625 5.1025390625 -0.16650390625Q4.45263671875 0.1396484375 3.52880859375 0.1396484375Z"/></g><g transform="translate(190.49,258.71) rotate(-20.43)"><path transform="translate(-3.55,0)" fill="#b04e00" d="M0.5263671875 -7.1005859375V-8.0029296875H6.57421875V-7.1005859375H4.06591796875V0.0H3.04541015625V-7.1005859375Z"/></g><g transform="translate(204.20,252.56) rotate(-27.85)"><path transform="translate(-3.11,0)" fill="#b04e00" d="M0.966796875 0.0V-8.0029296875H1.9873046875V-0.90234375H5.693359375V0.0Z"/></g><g transform="translate(210.48,248.99) rotate(-31.42)"><path transform="translate(-1.48,0)" fill="#b04e00" d="M1.9873046875 -8.0029296875V0.0H0.966796875V-8.0029296875Z"/></g><g transform="translate(217.33,244.46) rotate(-35.48)"><path transform="translate(-4.10,0)" fill="#b04e00" d="M4.23779296875 0.107421875Q3.1689453125 0.107421875 2.36328125 -0.39208984375Q1.5576171875 -0.8916015625 1.1064453125 -1.812744140625Q0.6552734375 -2.73388671875 0.6552734375 -3.99609375Q0.6552734375 -5.26904296875 1.1064453125 -6.190185546875Q1.5576171875 -7.111328125 2.3525390625 -7.61083984375Q3.1474609375 -8.1103515625 4.17333984375 -8.1103515625Q4.80712890625 -8.1103515625 5.357666015625 -7.92236328125Q5.908203125 -7.734375 6.34326171875 -7.38525390625Q6.7783203125 -7.0361328125 7.065673828125 -6.555419921875Q7.35302734375 -6.07470703125 7.46044921875 -5.49462890625H6.40771484375Q6.2841796875 -5.88134765625 6.080078125 -6.1875Q5.8759765625 -6.49365234375 5.593994140625 -6.7138671875Q5.31201171875 -6.93408203125 4.95751953125 -7.049560546875Q4.60302734375 -7.1650390625 4.1787109375 -7.1650390625Q3.47509765625 -7.1650390625 2.900390625 -6.802490234375Q2.32568359375 -6.43994140625 1.9873046875 -5.733642578125Q1.64892578125 -5.02734375 1.64892578125 -3.99609375Q1.64892578125 -2.9755859375 1.989990234375 -2.27197265625Q2.3310546875 -1.568359375 2.91650390625 -1.203125Q3.501953125 -0.837890625 4.23779296875 -0.837890625Q4.91455078125 -0.837890625 5.43017578125 -1.125244140625Q5.94580078125 -1.41259765625 6.233154296875 -1.941650390625Q6.5205078125 -2.470703125 6.5205078125 -3.1904296875L6.82666015625 -3.13134765625H4.447265625V-4.02294921875H7.51953125V-3.1474609375Q7.51953125 -2.15380859375 7.09521484375 -1.42333984375Q6.6708984375 -0.69287109375 5.932373046875 -0.292724609375Q5.19384765625 0.107421875 4.23779296875 0.107421875Z"/></g><g transform="translate(225.85,237.77) rotate(-40.83)"><path transform="translate(-4.09,0)" fill="#b04e00" d="M0.966796875 0.0V-8.0029296875H1.9873046875V-4.5439453125H6.1875V-8.0029296875H7.2080078125V0.0H6.1875V-3.6416015625H1.9873046875V0.0Z"/></g><g transform="translate(233.32,230.71) rotate(-45.91)"><path transform="translate(-3.55,0)" fill="#b04e00" d="M0.5263671875 -7.1005859375V-8.0029296875H6.57421875V-7.1005859375H4.06591796875V0.0H3.04541015625V-7.1005859375Z"/></g><circle cx="268.0" cy="150.0" r="2.4" fill="#ff8200"/><circle cx="32.0" cy="150.0" r="2.4" fill="#ff8200"/><path d="M186 74 l3.4 9.4 9.4 3.4 -9.4 3.4 -3.4 9.4 -3.4 -9.4 -9.4 -3.4 9.4 -3.4 Z" fill="#241a10"/><path d="M182 108 C150 130 190 152 150 172" fill="none" stroke="#241a10" stroke-width="4.5" stroke-linecap="round" stroke-dasharray="0.1 11"/><path d="M118 182 L118 190 A26 26 0 0 0 170 190 L170 182" fill="none" stroke="#241a10" stroke-width="6" stroke-linecap="round"/><line x1="112" y1="182" x2="176" y2="182" stroke="#241a10" stroke-width="6" stroke-linecap="round"/><path d="M172 190 C186 190 186 204 170 205" fill="none" stroke="#241a10" stroke-width="5" stroke-linecap="round"/><path d="M132 180 A12 12 0 0 1 156 180 Z" fill="#ff8200"/>
</svg>
