<svg xmlns="http://www.w3.org/2000/svg" viewBox="0 0 400 400" role="img" aria-label="Knox Pick-Me-Up coaster">
  <defs>
    <linearGradient id="sky-k" x1="0" y1="0" x2="0" y2="1">
      <stop offset="0%" stop-color="#0c1224"/>
      <stop offset="50%" stop-color="#182142"/>
      <stop offset="82%" stop-color="#5c3312"/>
      <stop offset="100%" stop-color="#c85f00"/>
    </linearGradient>
    <linearGradient id="sun-k" x1="0" y1="0" x2="0" y2="1">
      <stop offset="0%" stop-color="#fff2cf"/>
      <stop offset="55%" stop-color="#ffb95e"/>
      <stop offset="100%" stop-color="#ff8200"/>
    </linearGradient>
    <clipPath id="disc-k"><circle cx="200" cy="200" r="196"/></clipPath>
    <clipPath id="horizon-k"><rect x="0" y="0" width="400" height="318"/></clipPath>
  </defs>

  <circle cx="200" cy="200" r="196" fill="url(#sky-k)"/>

  <g clip-path="url(#disc-k)">
    <!-- stars -->
    <g fill="#fff7ec">
      <circle cx="96" cy="70" r="2" opacity=".8"/>
      <circle cx="150" cy="52" r="1.6" opacity=".6"/>
      <circle cx="250" cy="52" r="1.6" opacity=".6"/>
      <circle cx="304" cy="72" r="2" opacity=".8"/>
      <circle cx="330" cy="120" r="1.6" opacity=".5"/>
      <circle cx="70" cy="120" r="1.6" opacity=".5"/>
    </g>

    <!-- rising sun motif -->
    <g clip-path="url(#horizon-k)">
      <g stroke="#ffb95e" stroke-width="4" stroke-linecap="round" opacity=".85">
        <line x1="200" y1="296" x2="200" y2="278"/>
        <line x1="226" y1="300" x2="234" y2="283"/>
        <line x1="174" y1="300" x2="166" y2="283"/>
        <line x1="248" y1="310" x2="261" y2="298"/>
        <line x1="152" y1="310" x2="139" y2="298"/>
      </g>
      <circle cx="200" cy="330" r="34" fill="url(#sun-k)"/>
    </g>
  </g>

  <!-- ring text -->
  <g fill="none">
    <path id="top-k" d="M38.7,124.7 A178,178 0 0 1 361.3,124.7"/>
    <path id="bot-k" d="M44,272 A172,172 0 0 0 356,272"/>
  </g>
  <text font-family="Avenir Next, Helvetica Neue, Arial, sans-serif" font-weight="700" font-size="26" fill="#ffb95e" letter-spacing="6"><textPath href="#top-k" startOffset="50%" text-anchor="middle">KNOX PICK-ME-UP</textPath></text>
  <text font-family="Avenir Next, Helvetica Neue, Arial, sans-serif" font-weight="700" font-size="15.5" fill="#0c1224" letter-spacing="1.5"><textPath href="#bot-k" startOffset="50%" text-anchor="middle">FREE LARGE COFFEE &#183; FREE KAT RIDE</textPath></text>

  <!-- center message -->
  <text x="200" y="152" text-anchor="middle" font-family="Avenir Next, Helvetica Neue, Arial, sans-serif" font-weight="700" font-size="19" fill="#ffb95e" letter-spacing="2">BOOKED YOUR RIDE HOME?</text>
  <text x="200" y="200" text-anchor="middle" font-family="Avenir Next, Helvetica Neue, Arial, sans-serif" font-weight="800" font-size="38" fill="#fff7ec" letter-spacing="1">SHOW YOUR</text>
  <text x="200" y="240" text-anchor="middle" font-family="Avenir Next, Helvetica Neue, Arial, sans-serif" font-weight="800" font-size="38" fill="#fff7ec" letter-spacing="1">BARTENDER</text>
  <text x="200" y="272" text-anchor="middle" font-family="Georgia, 'Times New Roman', serif" font-style="italic" font-size="19" fill="#ffb95e">Tomorrow&#39;s coffee&#39;s on us.</text>

  <!-- rims -->
  <circle cx="200" cy="200" r="196" fill="none" stroke="#ffb95e" stroke-width="6"/>
  <circle cx="200" cy="200" r="182" fill="none" stroke="#ffb95e" stroke-width="1.5" opacity=".5"/>
</svg>
