<svg xmlns="http://www.w3.org/2000/svg" viewBox="0 0 64 64" role="img" aria-label="Knox Park &amp; Perk favicon">
  <defs><linearGradient id="fav-bg" x1="0" y1="0" x2="0" y2="1"><stop offset="0%" stop-color="#141d33"/><stop offset="100%" stop-color="#0c1224"/></linearGradient></defs>
  <rect x="1.5" y="1.5" width="61" height="61" rx="15" fill="url(#fav-bg)" stroke="#ffb95e" stroke-width="2.5"/>
  <svg x="8" y="12" width="48" height="43" viewBox="15.79 40.64 555.82 493.75" preserveAspectRatio="xMidYMid meet">
      <g fill="#fff7ec"><path d="M0 0 C2.689626 0.00315 5.378136 -0.020363 8.067627 -0.045654 C20.296085 -0.089891 31.998412 1.135023 44.022705 3.315674 C44.438861 3.390472 44.438861 3.390472 46.544861 3.768997 C90.146799 11.692215 129.118623 34.053937 161.022705 64.315674 C161.525923 64.79021 162.029141 65.264746 162.547607 65.753662 C170.547303 73.346812 177.431504 81.483908 184.022705 90.315674 C184.4373 90.858853 184.851895 91.402031 185.279053 91.96167 C214.204903 129.898903 230.578279 178.71839 232.022705 226.315674 C232.060571 227.268936 232.098437 228.222197 232.137451 229.204346 C233.742755 273.881921 222.349985 315.716096 207.022705 357.315674 C231.843073 356.781328 252.445329 350.796332 270.120361 332.456299 C283.079938 317.873448 290.420192 298.979912 290.241455 279.542236 C289.789193 272.871372 287.88879 267.050243 283.022705 262.315674 C273.68162 255.320058 264.975856 254.967678 253.585205 254.690674 C249.10958 254.566924 244.633955 254.443174 240.022705 254.315674 C240.022705 244.085674 240.022705 233.855674 240.022705 223.315674 C244.663992 223.246247 249.303429 223.186688 253.944824 223.150879 C255.51878 223.135929 257.092695 223.115561 258.666504 223.089355 C267.935798 222.939043 276.179846 223.146721 285.022705 226.315674 C285.89395 226.605632 286.765195 226.895591 287.662842 227.194336 C300.726611 231.671914 311.981451 241.670678 318.037354 254.024414 C326.788592 272.788645 326.378123 292.881828 319.530518 312.268799 C319.267307 312.971982 319.004097 313.675166 318.73291 314.399658 C318.134668 316.013616 317.610785 317.654853 317.104736 319.300049 C307.315323 346.583178 285.911116 369.049387 260.048584 381.61792 C236.886907 392.411873 214.029783 393.706464 189.022705 390.315674 C188.393643 391.210283 187.76458 392.104893 187.116455 393.026611 C178.793385 404.810129 169.975667 415.854058 160.022705 426.315674 C159.43457 426.937808 158.846436 427.559941 158.240479 428.200928 C127.850608 460.144198 88.177383 481.057145 45.008789 489.713623 C42.821017 490.154719 40.63886 490.623912 38.460449 491.109131 C27.916689 493.376763 17.721043 493.79426 6.960205 493.690674 C6.533868 493.688514 6.533868 493.688514 4.376343 493.677582 C-16.126064 493.556063 -35.316625 491.232326 -54.977295 485.315674 C-55.792466 485.074136 -56.607637 484.832598 -57.44751 484.58374 C-67.191118 481.678284 -76.705619 478.521129 -85.977295 474.315674 C-87.155498 473.792314 -88.333701 473.268955 -89.547607 472.729736 C-114.20225 461.626053 -136.598127 446.138502 -155.977295 427.315674 C-156.264756 427.041104 -156.264756 427.041104 -157.719482 425.651611 C-192.107246 392.765497 -211.677238 349.965565 -224.039795 304.565674 C-224.147955 304.175531 -224.147955 304.175531 -224.695312 302.201172 C-225.657109 298.500141 -226.101404 295.965629 -224.977295 292.315674 C-224.215459 293.210283 -223.453623 294.104893 -222.668701 295.026611 C-217.249518 301.377795 -211.810355 307.701184 -206.192139 313.878174 C-204.610933 315.618337 -203.041922 317.369615 -201.481201 319.128174 C-197.148264 323.982118 -192.801003 328.537452 -187.817139 332.721924 C-186.046873 334.255402 -184.460632 335.865088 -182.852295 337.565674 C-177.407018 343.072134 -171.146413 347.660767 -164.977295 352.315674 C-164.276045 352.845317 -163.574795 353.374961 -162.852295 353.920654 C-152.301531 361.836082 -141.527696 368.951167 -129.977295 375.315674 C-129.14166 375.783281 -128.306025 376.250889 -127.445068 376.732666 C-102.202527 390.774813 -75.378504 400.940209 -46.977295 406.315674 C-46.575107 406.392615 -46.575107 406.392615 -44.539795 406.781982 C-7.882011 413.404727 33.807755 411.769953 69.022705 399.315674 C69.757793 399.065918 70.492881 398.816162 71.250244 398.558838 C113.612274 384.132086 152.696873 358.205453 173.195801 317.236572 C177.52044 308.247983 180.678092 298.997175 183.420654 289.417725 C183.948409 287.575077 184.501119 285.739615 185.057861 283.905518 C187.14278 276.545268 189.051343 267.615988 186.22583 260.233643 C184.521586 257.539626 182.675873 256.084452 180.022705 254.315674 C162.081566 251.48808 142.674034 256.074744 125.022705 259.315674 C124.453826 259.419766 124.453826 259.419766 121.574951 259.946533 C67.565542 270.044193 67.565542 270.044193 52.75708 288.272705 C48.364701 293.446611 43.367352 297.627801 37.397705 300.815674 C30.700921 305.128263 28.524695 313.120964 26.022705 320.315674 C25.621807 321.447471 25.220908 322.579268 24.807861 323.745361 C17.932289 346.214214 18.530435 371.061659 18.022705 394.315674 C6.472705 394.315674 -5.077295 394.315674 -16.977295 394.315674 C-17.003076 391.657627 -17.028857 388.99958 -17.05542 386.260986 C-17.735426 333.039216 -17.735426 333.039216 -27.977295 311.315674 C-28.343389 310.503564 -28.709482 309.691455 -29.08667 308.854736 C-32.405077 302.578619 -38.26661 299.24897 -43.977295 295.315674 C-47.852392 292.338283 -51.025675 289.284986 -54.039795 285.440674 C-63.724232 274.266324 -79.335971 270.365602 -92.977295 266.315674 C-93.35918 266.199094 -93.35918 266.199094 -95.291748 265.609131 C-114.942265 259.676488 -135.526915 256.993178 -155.852295 254.503174 C-156.861147 254.379263 -157.87 254.255352 -158.909424 254.127686 C-175.650668 252.195456 -175.650668 252.195456 -182.977295 257.315674 C-186.322897 260.974926 -186.173298 264.176065 -186.115479 268.878906 C-185.90171 272.648552 -185.162915 276.212132 -184.289795 279.878174 C-184.108279 280.657734 -183.926763 281.437295 -183.739746 282.240479 C-180.174823 297.166229 -174.806358 311.09248 -168.837646 325.209473 C-168.152619 326.886468 -167.550145 328.597122 -166.977295 330.315674 C-192.167837 318.97993 -217.476815 288.13019 -228.290771 263.179443 C-230.417169 257.406712 -230.769642 251.39752 -230.977295 245.315674 C-231.007588 244.518872 -231.037881 243.72207 -231.069092 242.901123 C-232.687678 191.826828 -217.048694 141.233765 -187.977295 99.315674 C-187.752354 98.988977 -187.752354 98.988977 -186.614014 97.335693 C-180.101918 87.949924 -172.930901 79.501998 -164.977295 71.315674 C-164.426704 70.739302 -163.876113 70.16293 -163.308838 69.569092 C-155.612379 61.521096 -147.646713 54.222831 -138.696533 47.590576 C-137.027582 46.352964 -135.375519 45.095136 -133.723389 43.835205 C-104.212125 21.689664 -69.186591 8.267159 -32.977295 2.315674 C-31.866042 2.128035 -30.75479 1.940396 -29.609863 1.74707 C-19.721062 0.239087 -9.988044 -0.024333 0 0 Z " transform="translate(246.977294921875,40.684326171875)"/>
    <path d="M0 0 C0.33 0 0.66 0 1 0 C1 12.21 1 24.42 1 37 C0.01 36.67 -0.98 36.34 -2 36 C-2.237517 10.472356 -2.237517 10.472356 -1 1 C-0.67 0.67 -0.34 0.34 0 0 Z " transform="translate(18,250)"/></g>
      <g fill="#ff8200"><path d="M0 0 C9.648887 2.388483 19.490599 4.104564 29.238281 6.011719 C29.238281 17.231719 29.238281 28.451719 29.238281 40.011719 C-11.708278 40.011719 -52.906712 21.849464 -82.582031 -6.019531 C-84.761719 -7.988281 -84.761719 -7.988281 -86.761719 -8.988281 C-86.761719 -9.648281 -86.761719 -10.308281 -86.761719 -10.988281 C-59.596192 -17.765998 -26.11156 -6.763322 0 0 Z " transform="translate(189.76171875,392.98828125)"/>
    <path d="M0 0 C-1.078204 2.698017 -2.160162 5.394169 -3.253906 8.085938 C-9.940954 24.893384 -9.179095 40.067085 -2.460938 56.726562 C1.364503 65.298004 6.530681 72.797221 12 80.375 C24.534489 97.831257 30.583159 115.113727 27.3125 136.6875 C23.937016 152.322553 16.256918 165.67013 4 176 C3.34 176 2.68 176 2 176 C2.181758 175.440547 2.363516 174.881094 2.550781 174.304688 C9.765237 151.292422 10.609803 131.1216 -0.511475 109.193115 C-3.785032 103.057326 -7.695324 97.385736 -11.626709 91.658936 C-20.198518 79.01261 -26.617619 65.18779 -26.4375 49.6875 C-26.430652 48.772507 -26.423804 47.857515 -26.416748 46.914795 C-26.240191 39.422049 -24.955635 32.922408 -22 26 C-21.824688 25.561719 -21.824688 25.561719 -20.9375 23.34375 C-17.872903 16.448407 -13.229938 11.358845 -8 6 C-7.695781 5.676445 -7.695781 5.676445 -6.15625 4.039062 C-2.287852 0 -2.287852 0 0 0 Z " transform="translate(260,105)"/>
    <path d="M0 0 C0.856582 0.009023 1.713164 0.018047 2.595703 0.027344 C4.668095 0.050499 6.740339 0.086348 8.8125 0.125 C-2.971175 21.997437 -31.575799 36.030849 -53.1875 46.125 C-53.833481 46.431797 -54.479463 46.738594 -55.14502 47.054688 C-64.17225 51.280488 -73.318024 54.140991 -83 56.5 C-83.512684 56.625442 -83.512684 56.625442 -86.107178 57.260254 C-93.288865 58.916989 -99.620786 59.494441 -107.1875 60.125 C-107.1875 48.905 -107.1875 37.685 -107.1875 26.125 C-105.774688 25.908437 -105.774688 25.908437 -98.625 24.8125 C-81.68537 22.136221 -65.002528 18.940666 -49.224609 11.973145 C-44.378387 9.955434 -39.391878 8.292018 -34.4375 6.5625 C-33.321172 6.163535 -32.204844 5.76457 -31.054688 5.353516 C-20.635992 1.716687 -11.036423 -0.227195 0 0 Z " transform="translate(383.1875,372.875)"/>
    <path d="M0 0 C0.66 0.33 1.32 0.66 2 1 C1.920078 1.355137 1.920078 1.355137 1.515625 3.152344 C-1.250334 18.427982 3.688141 31.45146 12 44 C13.315862 45.804537 14.648503 47.596995 16 49.375 C26.565638 63.490358 31.183721 77.353445 30 95 C28.267071 105.7391 24.170654 116.666106 17 125 C15.03805 126.388715 13.043116 127.733724 11 129 C11.144375 128.137617 11.28875 127.275234 11.4375 126.386719 C15.475021 99.834413 10.898017 80.568161 -3.75 58.1875 C-6.921171 53.333225 -9.069977 48.450618 -11 43 C-11.4125 42.030625 -11.825 41.06125 -12.25 40.0625 C-14.551102 30.666332 -13.204414 19.933104 -8.605469 11.417969 C-7.151791 9.19881 -5.633307 7.089609 -4 5 C-3.21625 3.989375 -2.4325 2.97875 -1.625 1.9375 C-1.08875 1.298125 -0.5525 0.65875 0 0 Z " transform="translate(224,172)"/>
    <path d="M0 0 C0.66 0.33 1.32 0.66 2 1 C1.34 5.62 0.68 10.24 0 15 C-0.33 15 -0.66 15 -1 15 C-1.66 13.02 -2.32 11.04 -3 9 C-4.32 9.33 -5.64 9.66 -7 10 C-4.939923 6.394866 -2.648686 3.19669 0 0 Z " transform="translate(224,172)"/>
    <path d="M0 0 C-2 5 -4 10 -6 15 C-6.33 15 -6.66 15 -7 15 C-7 12.69 -7 10.38 -7 8 C-7.66 8.33 -7.66 8.33 -11 10 C-10.064095 8.894481 -9.126201 7.790645 -8.1875 6.6875 C-7.66543 6.072617 -7.143359 5.457734 -6.605469 4.824219 C-2.359743 0 -2.359743 0 0 0 Z " transform="translate(260,105)"/></g>
    </svg>
</svg>
