<svg xmlns="http://www.w3.org/2000/svg" viewBox="0 0 770 212" role="img" aria-label="Knox Pick-Me-Up logo">
  <circle cx="86" cy="96" r="74" fill="#141d33" stroke="#ffb95e" stroke-width="4"/><circle cx="86" cy="96" r="63" fill="none" stroke="#ffb95e" stroke-width="1" opacity=".4"/><g transform="translate(38.25,42.95) scale(0.18355)"><g fill="#fff7ec" fill-rule="evenodd"><path d="M0 0 C11.198013 9.868179 21.911786 20.116732 31 32 C31.494033 32.644692 31.988066 33.289385 32.49707 33.953613 C40.725906 44.789331 47.795008 55.896498 54 68 C54.413467 68.791807 54.826934 69.583613 55.25293 70.399414 C72.180181 103.069919 80.766951 139.316803 82 176 C82.020625 176.603281 82.020625 176.603281 82.125 179.65625 C82.769533 218.650517 75.232976 260.133065 59.300781 295.847656 C58 299 58 299 58 302 C79.307555 302.601782 97.747701 298.763297 114 284 C114.733477 283.358047 115.466953 282.716094 116.222656 282.054688 C125.967902 272.994784 132.628694 261.496793 137 249 C137.318398 248.132461 137.636797 247.264922 137.964844 246.371094 C141.109779 236.646433 141.85884 224.362541 137.902344 214.753906 C135.015126 209.141955 130.714661 205.556795 125 203 C117.627847 200.679007 110.10549 200.578688 102.4375 200.375 C101.837764 200.355664 101.837764 200.355664 98.802734 200.257812 C95.868636 200.164295 92.934531 200.078544 90 200 C89.942272 192.562751 90.060482 185.174289 90.5 177.75 C90.547695 176.89793 90.595391 176.045859 90.644531 175.167969 C90.760046 173.11181 90.879572 171.055877 91 169 C95.016024 168.924482 99.031759 168.870771 103.04834 168.835205 C105.067531 168.813128 107.086526 168.774963 109.105469 168.736328 C128.961538 168.589608 144.309725 173.530865 159.070312 186.871094 C170.451253 198.736872 174.511838 215.131603 174.351807 231.131348 C173.455787 260.566685 158.805818 288.418193 137.761719 308.570312 C123.352565 321.247107 106.740141 330.435419 88 335 C87.140195 335.211406 86.280391 335.422813 85.394531 335.640625 C69.91342 338.919529 54.570479 337.966626 39 336 C38.382539 336.883008 37.765078 337.766016 37.128906 338.675781 C31.709801 346.375764 26.122828 353.83662 20 361 C19.351602 361.760547 18.703203 362.521094 18.035156 363.304688 C2.554554 380.954357 -14.238887 395.390528 -34 408 C-34.961641 408.616172 -35.923281 409.232344 -36.914062 409.867188 C-83.806798 438.531198 -142.569575 445.823445 -195.617432 433.239258 C-224.447356 425.937921 -252.819276 414.578662 -277 397 C-277.575566 396.582988 -278.151133 396.165977 -278.744141 395.736328 C-282.581715 392.925031 -286.302738 389.993243 -290 387 C-290.514497 386.588467 -291.028994 386.176934 -291.559082 385.75293 C-304.969047 374.983247 -317.701985 362.803722 -328 349 C-328.458262 348.385762 -328.916523 347.771523 -329.388672 347.138672 C-336.754674 337.186427 -343.324501 327.004295 -349 316 C-349.426357 315.178545 -349.852715 314.35709 -350.291992 313.510742 C-360.368879 293.872058 -368.00009 273.323095 -373.6875 252 C-373.943782 251.044805 -374.200063 250.089609 -374.464111 249.105469 C-374.686072 248.225039 -374.908032 247.344609 -375.136719 246.4375 C-375.329675 245.673086 -375.522632 244.908672 -375.721436 244.121094 C-376.02672 241.796546 -375.712775 240.216545 -375 238 C-374.287148 238.845625 -373.574297 239.69125 -372.839844 240.5625 C-361.891822 253.536797 -361.891822 253.536797 -357 259 C-356.164688 259.939727 -355.329375 260.879453 -354.46875 261.847656 C-342.464137 275.199916 -329.402428 287.280792 -315 298 C-314.311802 298.518042 -313.623604 299.036084 -312.914551 299.569824 C-302.35227 307.496829 -291.572491 314.639547 -280 321 C-279.137778 321.478242 -278.275557 321.956484 -277.387207 322.449219 C-218.409864 354.939481 -149.523738 364.57508 -84.448242 346.282715 C-64.108045 340.381643 -44.255793 331.338456 -27 319 C-25.98293 318.28457 -24.965859 317.569141 -23.917969 316.832031 C-16.431204 311.401964 -9.686766 305.362443 -3 299 C-2.292305 298.356758 -1.584609 297.713516 -0.855469 297.050781 C21.734606 275.840956 34.434778 243.583147 38.018555 213.293457 C37.986121 209.284484 36.311455 206.194569 34 203 C30.578177 199.685109 27.578895 199.009868 22.875 198.980469 C-10.735839 200.776209 -70.108407 204.00873 -94.746094 230.90625 C-95.914715 232.259664 -97.074925 233.620386 -98.226562 234.988281 C-101.706747 238.936067 -105.596346 242.717221 -110.261719 245.207031 C-118.569068 249.649841 -121.215093 257.472162 -124 266 C-129.272626 283.443867 -130.349085 301.349187 -131.125 319.4375 C-131.211642 321.344428 -131.298878 323.25133 -131.386719 325.158203 C-131.597979 329.771855 -131.801258 334.385793 -132 339 C-135.552835 339.96347 -138.717647 340.129137 -142.410156 340.132812 C-143.647012 340.134102 -144.883867 340.135391 -146.158203 340.136719 C-147.446621 340.132852 -148.735039 340.128984 -150.0625 340.125 C-151.354785 340.128867 -152.64707 340.132734 -153.978516 340.136719 C-155.214082 340.13543 -156.449648 340.134141 -157.722656 340.132812 C-158.854534 340.131685 -159.986411 340.130557 -161.152588 340.129395 C-164 340 -164 340 -167 339 C-167.007291 338.502422 -167.007291 338.502422 -167.044189 335.984375 C-168.12355 267.5713 -168.12355 267.5713 -183 248 C-185.515641 246.057228 -188.072835 244.585353 -190.863281 243.066406 C-194.915712 240.396748 -197.891701 237.094754 -201.1875 233.5625 C-208.346251 226.105997 -215.400397 221.702643 -225 218 C-225.37979 217.850952 -225.37979 217.850952 -227.301758 217.09668 C-252.178177 207.566301 -304.144736 190.365443 -330.269531 201.078125 C-333.771907 202.94395 -334.787806 205.363419 -336 209 C-336.591645 215.564239 -335.470572 221.596384 -333.875 227.9375 C-333.762771 228.392982 -333.762771 228.392982 -333.194824 230.697998 C-329.932546 243.600254 -325.769391 256.004695 -320.096191 268.052002 C-319.343212 269.677285 -318.66415 271.336441 -318 273 C-318.33 273.66 -318.66 274.32 -319 275 C-325.589128 270.402643 -331.76687 265.599562 -337.667969 260.144531 C-339.735495 258.243238 -341.849521 256.430713 -344 254.625 C-354.723109 245.186095 -363.066028 233.795293 -371 222 C-371.218577 221.680232 -371.218577 221.680232 -372.324707 220.062012 C-387.339416 197.53692 -381.737144 162.382273 -376.75 137.3125 C-368.298696 96.866302 -351.370548 58.309861 -324 27 C-323.660332 26.605547 -323.660332 26.605547 -321.941406 24.609375 C-311.311143 12.516232 -300.006788 1.502659 -287 -8 C-286.460205 -8.395259 -285.92041 -8.790518 -285.364258 -9.197754 C-210.646661 -63.407755 -108.451435 -69.91604 0 0 Z M-263 24 C-263.863672 24.653555 -264.727344 25.307109 -265.617188 25.980469 C-301.344882 53.660871 -328.002858 95.187615 -336 140 C-336.615986 145.962994 -336.847848 150.986361 -334.5 156.5625 C-327.540824 163.347697 -320.600933 163.585771 -311.341797 163.545898 C-310.092172 163.556236 -308.842546 163.566574 -307.555054 163.577225 C-304.150414 163.60156 -300.746594 163.608493 -297.341925 163.607505 C-293.77576 163.610646 -290.209757 163.636289 -286.643677 163.659485 C-279.900745 163.699957 -273.15791 163.720365 -266.414876 163.733459 C-258.733976 163.749359 -251.05324 163.787787 -243.372436 163.828052 C-227.581672 163.91033 -211.790942 163.964498 -196 164 C-196.076629 164.963312 -196.153257 165.926625 -196.232208 166.919128 C-196.328475 168.181705 -196.424742 169.444281 -196.523926 170.745117 C-196.62118 171.99718 -196.718433 173.249242 -196.818634 174.539246 C-197.460323 186.783712 -192.589906 198.071574 -184.75 207.25 C-176.463352 215.988647 -165.563388 222.441319 -153.347656 223.238281 C-136.896212 223.66812 -125.03301 219.573161 -112.8125 208.3125 C-102.950721 197.952652 -97.638892 184.796402 -97.902344 170.578125 C-97.909393 169.845454 -97.916443 169.112783 -97.923706 168.35791 C-97.941916 166.571852 -97.969932 164.785898 -98 163 C-97.372543 163.002765 -96.745087 163.005531 -96.098617 163.00838 C-80.816118 163.074695 -65.533665 163.124307 -50.25106 163.155437 C-42.860436 163.170891 -35.469908 163.191954 -28.079346 163.226318 C-21.636121 163.256263 -15.192966 163.275585 -8.749673 163.282265 C-5.339431 163.286169 -1.929387 163.295314 1.480791 163.31719 C5.292083 163.338967 9.102962 163.341967 12.914307 163.340576 C14.039281 163.351362 15.164254 163.362148 16.323318 163.37326 C22.975458 163.346997 28.532246 163.055667 33.742188 158.464844 C38.476126 152.082188 38.786231 147.383068 37.640137 139.536133 C37.134785 137.0463 36.558516 134.588523 35.9375 132.125 C35.82511 131.672177 35.82511 131.672177 35.256348 129.380615 C22.647947 80.180535 -8.407387 38.223061 -52 12 C-72.456101 0.050313 -93.741073 -7.639243 -117 -12 C-118.29293 -12.246211 -119.585859 -12.492422 -120.917969 -12.746094 C-170.150248 -20.397413 -223.71408 -6.515825 -263 24 Z " transform="translate(397,95)"/></g><g fill="#ff8200"><path d="M0 0 C0 3.506412 -0.960597 5.361698 -2.375 8.5625 C-8.197716 23.551834 -8.573712 39.845594 -2.539062 54.847656 C1.662185 64.26114 7.687127 72.556765 13.552734 80.984619 C26.067979 99.067632 32.01353 116.900884 28.34375 138.941406 C24.590961 153.418759 16.355319 168.174772 4 177 C3.34 177 2.68 177 2 177 C2.14373 176.570742 2.14373 176.570742 2.871094 174.398438 C8.698672 156.855208 8.698672 156.855208 9 150 C9.051562 149.048672 9.103125 148.097344 9.15625 147.117188 C9.715083 127.790875 2.427566 111.109122 -8.425781 95.472656 C-12.866199 89.068518 -16.858659 82.777645 -20 75.625 C-20.278437 74.995615 -20.556875 74.36623 -20.84375 73.717773 C-27.237057 58.445762 -27.177781 40.300112 -21 25 C-16.587531 14.874122 -9.755949 5.503356 0 0 Z " transform="translate(259,105)"/>
    <path d="M0 0 C1.126308 3.378925 0.747049 4.602945 0 8 C-1.379212 24.789253 5.469781 36.865271 15.0625 50 C25.525879 64.385671 30.612673 79.022361 29 97 C26.856352 109.619452 22.001556 121.626604 12 130 C11.34 130 10.68 130 10 130 C10.072187 129.503711 10.072187 129.503711 10.4375 126.992188 C14.182237 100.177076 9.039285 81.38312 -5.498291 58.773926 C-12.93055 47.015427 -15.838947 34.76872 -12.9375 21.0625 C-10.695111 12.787015 -6.192147 5.879137 0 0 Z " transform="translate(225,171)"/>
    <path d="M0 0 C0.165 0.33 0.165 0.33 1 2 C-23.579613 34.83633 -65.547474 52.570258 -104.664062 60.738281 C-108.089049 61.122017 -111.553583 61 -115 61 C-115 49.78 -115 38.56 -115 27 C-110.813125 26.29875 -106.62625 25.5975 -102.3125 24.875 C-84.559683 21.74468 -68.052339 16.776251 -51.132233 10.68692 C-18.158543 -1.173622 -18.158543 -1.173622 0 0 Z " transform="translate(391,372)"/>
    <path d="M0 0 C6.548106 1.64062 13.119539 3.134948 19.71875 4.554688 C20.620046 4.749255 21.521343 4.943823 22.449951 5.144287 C28.299989 6.396254 34.162268 7.582524 40.03125 8.742188 C41.335305 20.393844 41.127982 32.033123 41.03125 43.742188 C-0.475156 41.875577 -46.890605 24.398216 -75.96875 -6.257812 C-75.96875 -6.917813 -75.96875 -7.577812 -75.96875 -8.257812 C-52.412601 -14.961632 -22.839276 -5.728317 0 0 Z " transform="translate(178.96875,390.2578125)"/></g></g>
  <text x="186" y="118" font-family='Poppins, "Helvetica Neue", Arial, sans-serif' font-weight="800" font-size="62" fill="#3a2a1d" letter-spacing="-0.5">KNOX PICK-ME-UP</text>
  <text x="188" y="160" font-family="Fraunces, Georgia, 'Times New Roman', serif" font-style="italic" font-size="22" fill="#6b543f">Make it home safe. Tomorrow&#39;s coffee&#39;s on us.</text>
  <text x="190" y="190" font-family='Poppins, "Helvetica Neue", Arial, sans-serif' font-size="14" font-weight="700" fill="#d96a00" letter-spacing="4">KNOXVILLE, TENNESSEE</text>
</svg>
